{
copyright = "Copyright (c) 2015, Cadson Demak (info@cadsondemak.com)";
customParameters = (
{
name = vendorID;
value = CDK;
},
{
name = description;
value = "Copyright (c) 2015, Cadson Demak (info@cadsondemak.com)";
},
{
name = license;

glyphs = (
{
glyphname = A;
lastChange = "2015-10-24 21:18:00 +0000";
layers = (
{
layerId = "D3C4CEFB-873C-4437-A63B-85583903CC89";
name = "Light Italic";
paths = (
{
closed = 1;
nodes = (
"75 0 LINE",
"185 188 LINE",
"487 188 LINE",
"519 0 LINE",
"572 0 LINE",
"465 644 LINE",
"395 644 LINE",
"15 0 LINE"
);
},
{
closed = 1;
nodes = (
"423 600 LINE",
"484 233 LINE",
"207 233 LINE"
);
}
);
width = 667;
}
);
leftKerningGroup = A;
note = A;
rightKerningGroup = A;
unicode = 0041;
},
{
glyphname = Aacute;
lastChange = "2015-10-24 21:18:01 +0000";
layers = (
{
layerId = "D3C4CEFB-873C-4437-A63B-85583903CC89";
name = "Light Italic";
paths = (
{
closed = 1;
nodes = (
"75 0 LINE",
"185 188 LINE",
"487 188 LINE",
"519 0 LINE",
"572 0 LINE",
"465 644 LINE",
"395 644 LINE",
"15 0 LINE"
);
},
{
closed = 1;
nodes = (
"423 600 LINE",
"484 233 LINE",
"207 233 LINE"
);
},
{
closed = 1;
nodes = (
"451 688 LINE",
"559 846 LINE",
"507 846 LINE",
"406 688 LINE"
);
}
);
width = 667;
}
);
leftKerningGroup = A;
note = Aacute;
rightKerningGroup = A;
unicode = 00C1;
},
{
glyphname = Abreve;
lastChange = "2015-10-24 21:18:01 +0000";
layers = (
{
layerId = "D3C4CEFB-873C-4437-A63B-85583903CC89";
name = "Light Italic";
paths = (
{
closed = 1;
nodes = (
"75 0 LINE",
"185 188 LINE",
"487 188 LINE",
"519 0 LINE",
"572 0 LINE",
"465 644 LINE",
"395 644 LINE",
"15 0 LINE"
);
},
{
closed = 1;
nodes = (
"423 600 LINE",
"484 233 LINE",
"207 233 LINE"
);
},
{
closed = 1;
nodes = (
"511 687 OFFCURVE",
"560 734 OFFCURVE",
"574 798 CURVE",
"530 798 LINE",
"520 752 OFFCURVE",
"486 726 OFFCURVE",
"444 726 CURVE SMOOTH",
"396 726 OFFCURVE",
"381 752 OFFCURVE",
"391 798 CURVE",
"351 798 LINE",
"337 734 OFFCURVE",
"370 687 OFFCURVE",
"438 687 CURVE SMOOTH"
);
}
);
width = 667;
}
);
leftKerningGroup = A;
note = Abreve;
rightKerningGroup = A;
unicode = 0102;
},
{
glyphname = Abreveacute;
lastChange = "2015-10-24 21:18:01 +0000";
layers = (
{
layerId = "D3C4CEFB-873C-4437-A63B-85583903CC89";
name = "Light Italic";
paths = (
{
closed = 1;
nodes = (
"75 0 LINE",
"185 188 LINE",
"487 188 LINE",
"519 0 LINE",
"572 0 LINE",
"465 644 LINE",
"395 644 LINE",
"15 0 LINE"
);
},
{
closed = 1;
nodes = (
"423 600 LINE",
"484 233 LINE",
"207 233 LINE"
);
},
{
closed = 1;
nodes = (
"514 688 OFFCURVE",
"586 723 OFFCURVE",
"607 820 CURVE",
"566 820 LINE",
"552 754 OFFCURVE",
"504 724 OFFCURVE",
"445 724 CURVE SMOOTH",
"376 724 OFFCURVE",
"352 754 OFFCURVE",
"366 820 CURVE",
"330 820 LINE",
"309 723 OFFCURVE",
"368 688 OFFCURVE",
"441 688 CURVE SMOOTH"
);
},
{
closed = 1;
nodes = (
"470 786 LINE",
"561 903 LINE",
"514 903 LINE",
"429 786 LINE"
);
}
);
width = 667;
}
);
leftKerningGroup = A;
note = Abreveacute;
rightKerningGroup = A;
unicode = 1EAE;
},
{
glyphname = Abrevedotbelow;
lastChange = "2015-10-24 21:18:00 +0000";
layers = (
{
layerId = "D3C4CEFB-873C-4437-A63B-85583903CC89";
name = "Light Italic";
paths = (
{
closed = 1;
nodes = (
"75 0 LINE",
"185 188 LINE",
"487 188 LINE",
"519 0 LINE",
"572 0 LINE",
"465 644 LINE",
"395 644 LINE",
"15 0 LINE"
);
},
{
closed = 1;
nodes = (
"291 -152 LINE",
"303 -95 LINE",
"244 -95 LINE",
"232 -152 LINE"
);
},
{
closed = 1;
nodes = (
"423 600 LINE",
"484 233 LINE",
"207 233 LINE"
);
},
{
closed = 1;
nodes = (
"511 687 OFFCURVE",
"560 734 OFFCURVE",
"574 798 CURVE",
"530 798 LINE",
"520 752 OFFCURVE",
"486 726 OFFCURVE",
"444 726 CURVE SMOOTH",
"396 726 OFFCURVE",
"381 752 OFFCURVE",
"391 798 CURVE",
"351 798 LINE",
"337 734 OFFCURVE",
"370 687 OFFCURVE",
"438 687 CURVE SMOOTH"
);
}
);
width = 667;
}
);
leftKerningGroup = A;
note = Abrevedotbelow;
rightKerningGroup = A;
unicode = 1EB6;
},
{
glyphname = Abrevegrave;
lastChange = "2015-10-24 21:17:59 +0000";
layers = (
{
layerId = "D3C4CEFB-873C-4437-A63B-85583903CC89";
name = "Light Italic";
paths = (
{
closed = 1;
nodes = (
"75 0 LINE",
"185 188 LINE",
"487 188 LINE",
"519 0 LINE",
"572 0 LINE",
"465 644 LINE",
"395 644 LINE",
"15 0 LINE"
);
},
{
closed = 1;
nodes = (
"423 600 LINE",
"484 233 LINE",
"207 233 LINE"
);
},
{
closed = 1;
nodes = (
"514 688 OFFCURVE",
"586 723 OFFCURVE",
"607 820 CURVE",
"566 820 LINE",
"552 754 OFFCURVE",
"504 724 OFFCURVE",
"445 724 CURVE SMOOTH",
"376 724 OFFCURVE",
"352 754 OFFCURVE",
"366 820 CURVE",
"330 820 LINE",
"309 723 OFFCURVE",
"368 688 OFFCURVE",
"441 688 CURVE SMOOTH"
);
},
{
closed = 1;
nodes = (
"492 786 LINE",
"458 903 LINE",
"411 903 LINE",
"452 786 LINE"
);
}
);
width = 667;
}
);
leftKerningGroup = A;
note = Abrevegrave;
rightKerningGroup = A;
unicode = 1EB0;
},
{
glyphname = Abrevehookabove;
lastChange = "2015-10-24 21:18:00 +0000";
layers = (
{
layerId = "D3C4CEFB-873C-4437-A63B-85583903CC89";
name = "Light Italic";
paths = (
{
closed = 1;
nodes = (
"75 0 LINE",
"185 188 LINE",
"487 188 LINE",
"519 0 LINE",
"572 0 LINE",
"465 644 LINE",
"395 644 LINE",
"15 0 LINE"
);
},
{
closed = 1;
nodes = (
"423 600 LINE",
"484 233 LINE",
"207 233 LINE"
);
},
{
closed = 1;
nodes = (
"514 688 OFFCURVE",
"586 723 OFFCURVE",
"607 820 CURVE",
"566 820 LINE",
"552 754 OFFCURVE",
"504 724 OFFCURVE",
"445 724 CURVE SMOOTH",
"376 724 OFFCURVE",
"352 754 OFFCURVE",
"366 820 CURVE",
"330 820 LINE",
"309 723 OFFCURVE",
"368 688 OFFCURVE",
"441 688 CURVE SMOOTH"
);
},
{
closed = 1;
nodes = (
"468 776 LINE",
"476 811 LINE",
"534 819 OFFCURVE",
"562 840 OFFCURVE",
"571 883 CURVE SMOOTH",
"581 928 OFFCURVE",
"554 954 OFFCURVE",
"499 954 CURVE SMOOTH",
"473 954 OFFCURVE",
"449 949 OFFCURVE",
"430 942 CURVE",
"423 909 LINE",
"442 917 OFFCURVE",
"461 922 OFFCURVE",
"484 922 CURVE SMOOTH",
"521 922 OFFCURVE",
"535 908 OFFCURVE",
"529 880 CURVE SMOOTH",
"523 851 OFFCURVE",
"506 836 OFFCURVE",
"436 833 CURVE",
"424 776 LINE"
);
}
);
width = 667;
}
);
leftKerningGroup = A;
note = Abrevehookabove;
rightKerningGroup = A;
unicode = 1EB2;
},
{
glyphname = Abrevetilde;
lastChange = "2015-10-24 21:18:00 +0000";
layers = (
{
layerId = "D3C4CEFB-873C-4437-A63B-85583903CC89";
name = "Light Italic";
paths = (
{
closed = 1;
nodes = (
"75 0 LINE",
"185 188 LINE",
"487 188 LINE",
"519 0 LINE",
"572 0 LINE",
"465 644 LINE",
"395 644 LINE",
"15 0 LINE"
);
},
{
closed = 1;
nodes = (
"423 600 LINE",
"484 233 LINE",
"207 233 LINE"
);
},
{
closed = 1;
nodes = (
"513 688 OFFCURVE",
"585 723 OFFCURVE",
"606 820 CURVE",
"565 820 LINE",
"551 754 OFFCURVE",
"503 724 OFFCURVE",
"444 724 CURVE SMOOTH",
"375 724 OFFCURVE",
"351 754 OFFCURVE",
"365 820 CURVE",
"329 820 LINE",
"308 723 OFFCURVE",
"367 688 OFFCURVE",
"440 688 CURVE SMOOTH"
);
},
{
closed = 1;
nodes = (
"566 848 OFFCURVE",
"595 858 OFFCURVE",
"612 875 CURVE",
"622 919 LINE",
"596 894 OFFCURVE",
"572 886 OFFCURVE",
"543 886 CURVE SMOOTH",
"499 886 OFFCURVE",
"478 920 OFFCURVE",
"428 920 CURVE SMOOTH",
"400 920 OFFCURVE",
"369 910 OFFCURVE",
"349 893 CURVE",
"340 850 LINE",
"367 875 OFFCURVE",
"393 882 OFFCURVE",
"422 882 CURVE SMOOTH",
"460 882 OFFCURVE",
"489 848 OFFCURVE",
"536 848 CURVE SMOOTH"
);
}
);
width = 667;
}
);
leftKerningGroup = A;
note = Abrevetilde;
rightKerningGroup = A;
unicode = 1EB4;
},
{
glyphname = Acaron;
lastChange = "2015-10-24 21:18:00 +0000";
layers = (
{
layerId = "D3C4CEFB-873C-4437-A63B-85583903CC89";
name = "Light Italic";
paths = (
{
closed = 1;
nodes = (
"75 0 LINE",
"185 188 LINE",
"487 188 LINE",
"519 0 LINE",
"572 0 LINE",
"465 644 LINE",
"395 644 LINE",
"15 0 LINE"
);
},
{
closed = 1;
nodes = (
"423 600 LINE",
"484 233 LINE",
"207 233 LINE"
);
},
{
closed = 1;
nodes = (
"462 688 LINE",
"596 823 LINE",
"544 823 LINE",
"443 720 LINE",
"386 823 LINE",
"339 823 LINE",
"414 688 LINE"
);
}
);
width = 667;
}
);
leftKerningGroup = A;
note = Acaron;
rightKerningGroup = A;
unicode = 01CD;
},
{
glyphname = Acircumflex;
lastChange = "2015-10-24 21:17:59 +0000";
layers = (
{
layerId = "D3C4CEFB-873C-4437-A63B-85583903CC89";
name = "Light Italic";
paths = (
{
closed = 1;
nodes = (
"75 0 LINE",
"185 188 LINE",
"487 188 LINE",
"519 0 LINE",
"572 0 LINE",
"465 644 LINE",
"395 644 LINE",
"15 0 LINE"
);
},
{
closed = 1;
nodes = (
"423 600 LINE",
"484 233 LINE",
"207 233 LINE"
);
},
{
closed = 1;
nodes = (
"361 687 LINE",
"462 790 LINE",
"519 687 LINE",
"567 687 LINE",
"491 822 LINE",
"443 822 LINE",
"310 687 LINE"
);
}
);
width = 667;
}
);
leftKerningGroup = A;
note = Acircumflex;
rightKerningGroup = A;
unicode = 00C2;
},
{
glyphname = Acircumflexacute;
lastChange = "2015-10-24 21:18:01 +0000";
layers = (
{
layerId = "D3C4CEFB-873C-4437-A63B-85583903CC89";
name = "Light Italic";
paths = (
{
closed = 1;
nodes = (
"75 0 LINE",
"185 188 LINE",
"487 188 LINE",
"519 0 LINE",
"572 0 LINE",
"465 644 LINE",
"395 644 LINE",
"15 0 LINE"
);
},
{
closed = 1;
nodes = (
"423 600 LINE",
"484 233 LINE",
"207 233 LINE"
);
},
{
closed = 1;
nodes = (
"361 687 LINE",
"457 772 LINE",
"517 687 LINE",
"563 687 LINE",
"483 797 LINE",
"435 797 LINE",
"309 687 LINE"
);
},
{
closed = 1;
nodes = (
"568 793 LINE",
"658 910 LINE",
"612 910 LINE",
"527 793 LINE"
);
}
);
width = 667;
}
);
leftKerningGroup = A;
note = Acircumflexacute;
rightKerningGroup = A;
unicode = 1EA4;
},
{
glyphname = Acircumflexdotbelow;
lastChange = "2015-10-24 21:17:59 +0000";
layers = (
{
layerId = "D3C4CEFB-873C-4437-A63B-85583903CC89";
name = "Light Italic";
paths = (
{
closed = 1;
nodes = (
"75 0 LINE",
"185 188 LINE",
"487 188 LINE",
"519 0 LINE",
"572 0 LINE",
"465 644 LINE",
"395 644 LINE",
"15 0 LINE"
);
},
{
closed = 1;
nodes = (
"291 -152 LINE",
"303 -95 LINE",
"244 -95 LINE",
"232 -152 LINE"
);
},
{
closed = 1;
nodes = (
"423 600 LINE",
"484 233 LINE",
"207 233 LINE"
);
},
{
closed = 1;
nodes = (
"361 687 LINE",
"462 790 LINE",
"519 687 LINE",
"567 687 LINE",
"491 822 LINE",
"443 822 LINE",
"310 687 LINE"
);
}
);
width = 667;
}
);
leftKerningGroup = A;
note = Acircumflexdotbelow;
rightKerningGroup = A;
unicode = 1EAC;
},
{
glyphname = Acircumflexgrave;
lastChange = "2015-10-24 21:18:00 +0000";
layers = (
{
layerId = "D3C4CEFB-873C-4437-A63B-85583903CC89";
name = "Light Italic";
paths = (
{
closed = 1;
nodes = (
"75 0 LINE",
"185 188 LINE",
"487 188 LINE",
"519 0 LINE",
"572 0 LINE",
"465 644 LINE",
"395 644 LINE",
"15 0 LINE"
);
},
{
closed = 1;
nodes = (
"423 600 LINE",
"484 233 LINE",
"207 233 LINE"
);
},
{
closed = 1;
nodes = (
"366 687 LINE",
"462 772 LINE",
"522 687 LINE",
"568 687 LINE",
"488 797 LINE",
"440 797 LINE",
"314 687 LINE"
);
},
{
closed = 1;
nodes = (
"393 793 LINE",
"359 910 LINE",
"312 910 LINE",
"353 793 LINE"
);
}
);
width = 667;
}
);
leftKerningGroup = A;
note = Acircumflexgrave;
rightKerningGroup = A;
unicode = 1EA6;
},
{
glyphname = Acircumflexhookabove;
lastChange = "2015-10-24 21:17:59 +0000";
layers = (
{
layerId = "D3C4CEFB-873C-4437-A63B-85583903CC89";
name = "Light Italic";
paths = (
{
closed = 1;
nodes = (
"75 0 LINE",
"185 188 LINE",
"487 188 LINE",
"519 0 LINE",
"572 0 LINE",
"465 644 LINE",
"395 644 LINE",
"15 0 LINE"
);
},
{
closed = 1;
nodes = (
"423 600 LINE",
"484 233 LINE",
"207 233 LINE"
);
},
{
closed = 1;
nodes = (
"365 687 LINE",
"460 772 LINE",
"520 687 LINE",
"566 687 LINE",
"486 797 LINE",
"438 797 LINE",
"312 687 LINE"
);
},
{
closed = 1;
nodes = (
"579 772 LINE",
"587 808 LINE",
"643 814 OFFCURVE",
"672 837 OFFCURVE",
"681 879 CURVE SMOOTH",
"690 925 OFFCURVE",
"663 951 OFFCURVE",
"608 951 CURVE SMOOTH",
"582 951 OFFCURVE",
"559 946 OFFCURVE",
"540 939 CURVE",
"533 905 LINE",
"552 913 OFFCURVE",
"571 918 OFFCURVE",
"594 918 CURVE SMOOTH",
"630 918 OFFCURVE",
"644 904 OFFCURVE",
"638 877 CURVE SMOOTH",
"632 849 OFFCURVE",
"616 835 OFFCURVE",
"546 831 CURVE",
"534 772 LINE"
);
}
);
width = 667;
}
);
leftKerningGroup = A;
note = Acircumflexhookabove;
rightKerningGroup = A;
unicode = 1EA8;
},
{
glyphname = Acircumflextilde;
lastChange = "2015-10-24 21:18:00 +0000";
layers = (
{
layerId = "D3C4CEFB-873C-4437-A63B-85583903CC89";
name = "Light Italic";
paths = (
{
closed = 1;
nodes = (
"75 0 LINE",
"185 188 LINE",
"487 188 LINE",
"519 0 LINE",
"572 0 LINE",
"465 644 LINE",
"395 644 LINE",
"15 0 LINE"
);
},
{
closed = 1;
nodes = (
"423 600 LINE",
"484 233 LINE",
"207 233 LINE"
);
},
{
closed = 1;
nodes = (
"363 687 LINE",
"458 772 LINE",
"518 687 LINE",
"564 687 LINE",
"484 797 LINE",
"436 797 LINE",
"310 687 LINE"
);
},
{
closed = 1;
nodes = (
"557 805 OFFCURVE",
"585 815 OFFCURVE",
"602 831 CURVE",
"612 875 LINE",
"587 851 OFFCURVE",
"563 843 OFFCURVE",
"534 843 CURVE SMOOTH",
"490 843 OFFCURVE",
"469 876 OFFCURVE",
"419 876 CURVE SMOOTH",
"391 876 OFFCURVE",
"360 866 OFFCURVE",
"341 850 CURVE",
"331 806 LINE",
"358 831 OFFCURVE",
"384 838 OFFCURVE",
"413 838 CURVE SMOOTH",
"451 838 OFFCURVE",
"480 805 OFFCURVE",
"527 805 CURVE SMOOTH"
);
}
);
width = 667;
}
);
leftKerningGroup = A;
note = Acircumflextilde;
rightKerningGroup = A;
unicode = 1EAA;
},
{
glyphname = Adieresis;
lastChange = "2015-10-24 21:18:00 +0000";
layers = (
{
layerId = "D3C4CEFB-873C-4437-A63B-85583903CC89";
name = "Light Italic";
paths = (
{
closed = 1;
nodes = (
"75 0 LINE",
"185 188 LINE",
"487 188 LINE",
"519 0 LINE",
"572 0 LINE",
"465 644 LINE",
"395 644 LINE",
"15 0 LINE"
);
},
{
closed = 1;
nodes = (
"423 600 LINE",
"484 233 LINE",
"207 233 LINE"
);
},
{
closed = 1;
nodes = (
"390 713 LINE",
"402 768 LINE",
"345 768 LINE",
"334 713 LINE"
);
},
{
closed = 1;
nodes = (
"556 713 LINE",
"568 768 LINE",
"512 768 LINE",
"500 713 LINE"
);
}
);
width = 667;
}
);
leftKerningGroup = A;
note = Adieresis;
rightKerningGroup = A;
unicode = 00C4;
},
{
glyphname = Adotbelow;
lastChange = "2015-10-24 21:18:00 +0000";
layers = (
{
layerId = "D3C4CEFB-873C-4437-A63B-85583903CC89";
name = "Light Italic";
paths = (
{
closed = 1;
nodes = (
"75 0 LINE",
"185 188 LINE",
"487 188 LINE",
"519 0 LINE",
"572 0 LINE",
"465 644 LINE",
"395 644 LINE",
"15 0 LINE"
);
},
{
closed = 1;
nodes = (
"291 -152 LINE",
"303 -95 LINE",
"244 -95 LINE",
"232 -152 LINE"
);
},
{
closed = 1;
nodes = (
"423 600 LINE",
"484 233 LINE",
"207 233 LINE"
);
}
);
width = 667;
}
);
leftKerningGroup = A;
note = Adotbelow;
rightKerningGroup = A;
unicode = 1EA0;
},
{
glyphname = Agrave;
lastChange = "2015-10-24 21:18:00 +0000";
layers = (
{
layerId = "D3C4CEFB-873C-4437-A63B-85583903CC89";
name = "Light Italic";
paths = (
{
closed = 1;
nodes = (
"75 0 LINE",
"185 188 LINE",
"487 188 LINE",
"519 0 LINE",
"572 0 LINE",
"465 644 LINE",
"395 644 LINE",
"15 0 LINE"
);
},
{
closed = 1;
nodes = (
"423 600 LINE",
"484 233 LINE",
"207 233 LINE"
);
},
{
closed = 1;
nodes = (
"455 688 LINE",
"422 846 LINE",
"370 846 LINE",
"410 688 LINE"
);
}
);
width = 667;
}
);
leftKerningGroup = A;
note = Agrave;
rightKerningGroup = A;
unicode = 00C0;
},
{
glyphname = Ahookabove;
lastChange = "2015-10-24 21:18:00 +0000";
layers = (
{
layerId = "D3C4CEFB-873C-4437-A63B-85583903CC89";
name = "Light Italic";
paths = (
{
closed = 1;
nodes = (
"75 0 LINE",
"185 188 LINE",
"487 188 LINE",
"519 0 LINE",
"572 0 LINE",
"465 644 LINE",
"395 644 LINE",
"15 0 LINE"
);
},
{
closed = 1;
nodes = (
"423 600 LINE",
"484 233 LINE",
"207 233 LINE"
);
},
{
closed = 1;
nodes = (
"462 688 LINE",
"473 740 LINE",
"543 747 OFFCURVE",
"571 776 OFFCURVE",
"582 829 CURVE SMOOTH",
"594 885 OFFCURVE",
"561 917 OFFCURVE",
"485 917 CURVE SMOOTH",
"461 917 OFFCURVE",
"425 912 OFFCURVE",
"405 905 CURVE",
"397 867 LINE",
"416 874 OFFCURVE",
"446 879 OFFCURVE",
"467 879 CURVE SMOOTH",
"525 879 OFFCURVE",
"546 862 OFFCURVE",
"538 826 CURVE SMOOTH",
"530 788 OFFCURVE",
"513 771 OFFCURVE",
"432 767 CURVE",
"415 688 LINE"
);
}
);
width = 667;
}
);
leftKerningGroup = A;
note = Ahookabove;
rightKerningGroup = A;
unicode = 1EA2;
},
{
glyphname = Amacron;
lastChange = "2015-10-24 21:17:59 +0000";
layers = (
{
layerId = "D3C4CEFB-873C-4437-A63B-85583903CC89";
name = "Light Italic";
paths = (
{
closed = 1;
nodes = (
"75 0 LINE",
"185 188 LINE",
"487 188 LINE",
"519 0 LINE",
"572 0 LINE",
"465 644 LINE",
"395 644 LINE",
"15 0 LINE"
);
},
{
closed = 1;
nodes = (
"423 600 LINE",
"484 233 LINE",
"207 233 LINE"
);
},
{
closed = 1;
nodes = (
"583 715 LINE",
"592 757 LINE",
"316 757 LINE",
"307 715 LINE"
);
}
);
width = 667;
}
);
leftKerningGroup = A;
note = Amacron;
rightKerningGroup = A;
unicode = 0100;
},
{
glyphname = Aogonek;
lastChange = "2015-11-24 09:49:30 +0000";
layers = (
{
layerId = "D3C4CEFB-873C-4437-A63B-85583903CC89";
name = "Light Italic";
paths = (
{
closed = 1;
nodes = (
"515 -220 OFFCURVE",
"539 -217 OFFCURVE",
"556 -209 CURVE",
"565 -168 LINE",
"551 -175 OFFCURVE",
"530 -179 OFFCURVE",
"513 -179 CURVE SMOOTH",
"476 -179 OFFCURVE",
"463 -165 OFFCURVE",
"471 -128 CURVE SMOOTH",
"481 -83 OFFCURVE",
"515 -37 OFFCURVE",
"572 0 CURVE",
"465 644 LINE",
"395 644 LINE",
"15 0 LINE",
"75 0 LINE",
"185 188 LINE",
"487 188 LINE",
"519 0 LINE",
"478 -29 OFFCURVE",
"434 -80 OFFCURVE",
"423 -134 CURVE SMOOTH",
"410 -197 OFFCURVE",
"445 -220 OFFCURVE",
"496 -220 CURVE SMOOTH"
);
},
{
closed = 1;
nodes = (
"423 600 LINE",
"484 233 LINE",
"207 233 LINE"
);
}
);
width = 667;
}
);
leftKerningGroup = A;
note = Aogonek;
rightKerningGroup = A;
unicode = 0104;
},
{
glyphname = Aring;
lastChange = "2015-10-24 21:18:01 +0000";
layers = (
{
layerId = "D3C4CEFB-873C-4437-A63B-85583903CC89";
name = "Light Italic";
paths = (
{
closed = 1;
nodes = (
"75 0 LINE",
"185 188 LINE",
"487 188 LINE",
"519 0 LINE",
"572 0 LINE",
"469 618 LINE",
"508 634 OFFCURVE",
"535 669 OFFCURVE",
"544 710 CURVE SMOOTH",
"556 767 OFFCURVE",
"523 812 OFFCURVE",
"463 812 CURVE SMOOTH",
"398 812 OFFCURVE",
"351 767 OFFCURVE",
"339 710 CURVE SMOOTH",
"330 668 OFFCURVE",
"346 633 OFFCURVE",
"379 617 CURVE",
"15 0 LINE"
);
},
{
closed = 1;
nodes = (
"423 600 LINE",
"484 233 LINE",
"207 233 LINE"
);
},
{
closed = 1;
nodes = (
"383 645 OFFCURVE",
"367 673 OFFCURVE",
"375 710 CURVE SMOOTH",
"383 748 OFFCURVE",
"417 776 OFFCURVE",
"455 776 CURVE SMOOTH",
"500 776 OFFCURVE",
"515 748 OFFCURVE",
"507 710 CURVE SMOOTH",
"499 673 OFFCURVE",
"466 645 OFFCURVE",
"427 645 CURVE SMOOTH"
);
}
);
width = 667;
}
);
leftKerningGroup = A;
note = Aring;
rightKerningGroup = A;
unicode = 00C5;
},
{
glyphname = Aringacute;
lastChange = "2015-10-24 21:17:59 +0000";
layers = (
{
layerId = "D3C4CEFB-873C-4437-A63B-85583903CC89";
name = "Light Italic";
paths = (
{
closed = 1;
nodes = (
"72 0 LINE",
"182 188 LINE",
"484 188 LINE",
"516 0 LINE",
"572 0 LINE",
"468 626 LINE",
"508 642 OFFCURVE",
"539 677 OFFCURVE",
"548 719 CURVE SMOOTH",
"560 776 OFFCURVE",
"527 821 OFFCURVE",
"467 821 CURVE SMOOTH",
"408 821 OFFCURVE",
"355 776 OFFCURVE",
"343 719 CURVE SMOOTH",
"334 677 OFFCURVE",
"350 641 OFFCURVE",
"384 626 CURVE",
"15 0 LINE"
);
},
{
closed = 1;
nodes = (
"420 600 LINE",
"481 233 LINE",
"204 233 LINE"
);
},
{
closed = 1;
nodes = (
"394 654 OFFCURVE",
"371 682 OFFCURVE",
"379 719 CURVE SMOOTH",
"387 757 OFFCURVE",
"421 785 OFFCURVE",
"459 785 CURVE SMOOTH",
"498 785 OFFCURVE",
"519 757 OFFCURVE",
"511 719 CURVE SMOOTH",
"503 682 OFFCURVE",
"471 654 OFFCURVE",
"432 654 CURVE SMOOTH"
);
},
{
closed = 1;
nodes = (
"484 851 LINE",
"590 994 LINE",
"538 994 LINE",
"440 851 LINE"
);
}
);
width = 667;
}
);
leftKerningGroup = A;
note = Aringacute;
rightKerningGroup = A;
unicode = 01FA;
},
{
glyphname = Atilde;
lastChange = "2015-10-24 21:18:00 +0000";
layers = (
{
layerId = "D3C4CEFB-873C-4437-A63B-85583903CC89";
name = "Light Italic";
paths = (
{
closed = 1;
nodes = (
"75 0 LINE",
"185 188 LINE",
"487 188 LINE",
"519 0 LINE",
"572 0 LINE",
"465 644 LINE",
"395 644 LINE",
"15 0 LINE"
);
},
{
closed = 1;
nodes = (
"423 600 LINE",
"484 233 LINE",
"207 233 LINE"
);
},
{
closed = 1;
nodes = (
"547 710 OFFCURVE",
"576 721 OFFCURVE",
"592 739 CURVE",
"602 786 LINE",
"579 761 OFFCURVE",
"554 751 OFFCURVE",
"522 751 CURVE SMOOTH",
"476 751 OFFCURVE",
"450 788 OFFCURVE",
"398 788 CURVE SMOOTH",
"368 788 OFFCURVE",
"333 777 OFFCURVE",
"314 759 CURVE",
"304 712 LINE",
"331 739 OFFCURVE",
"360 747 OFFCURVE",
"390 747 CURVE SMOOTH",
"430 747 OFFCURVE",
"466 710 OFFCURVE",
"515 710 CURVE SMOOTH"
);
}
);
width = 667;
}
);
leftKerningGroup = A;
note = Atilde;
rightKerningGroup = A;
unicode = 00C3;
},
{
glyphname = AE;
lastChange = "2015-10-24 21:18:00 +0000";
layers = (
{
layerId = "D3C4CEFB-873C-4437-A63B-85583903CC89";
name = "Light Italic";
paths = (
{
closed = 1;
nodes = (
"73 0 LINE",
"185 189 LINE",
"410 189 LINE",
"370 0 LINE",
"737 0 LINE",
"746 44 LINE",
"434 44 LINE",
"488 299 LINE",
"765 299 LINE",
"775 344 LINE",
"498 344 LINE",
"552 598 LINE",
"864 598 LINE",
"873 644 LINE",
"395 644 LINE",
"15 0 LINE"
);
},
{
closed = 1;
nodes = (
"427 598 LINE",
"497 598 LINE",
"419 233 LINE",
"211 233 LINE"
);
}
);
width = 832;
}
);
leftKerningGroup = A;
note = AE;
rightKerningGroup = E;
unicode = 00C6;
},
{
glyphname = AEacute;
lastChange = "2015-10-24 21:18:01 +0000";
layers = (
{
layerId = "D3C4CEFB-873C-4437-A63B-85583903CC89";
name = "Light Italic";
paths = (
{
closed = 1;
nodes = (
"73 0 LINE",
"185 189 LINE",
"410 189 LINE",
"370 0 LINE",
"737 0 LINE",
"746 44 LINE",
"434 44 LINE",
"488 299 LINE",
"765 299 LINE",
"775 344 LINE",
"498 344 LINE",
"552 598 LINE",
"864 598 LINE",
"873 644 LINE",
"395 644 LINE",
"15 0 LINE"
);
},
{
closed = 1;
nodes = (
"427 598 LINE",
"497 598 LINE",
"419 233 LINE",
"211 233 LINE"
);
},
{
closed = 1;
nodes = (
"588 688 LINE",
"696 846 LINE",
"644 846 LINE",
"543 688 LINE"
);
}
);
width = 832;
}
);
leftKerningGroup = A;
note = AEacute;
rightKerningGroup = E;
unicode = 01FC;
},
{
glyphname = B;
lastChange = "2015-10-24 21:18:01 +0000";
layers = (
{
layerId = "D3C4CEFB-873C-4437-A63B-85583903CC89";
name = "Light Italic";
paths = (
{
closed = 1;
nodes = (
"337 0 LINE SMOOTH",
"461 0 OFFCURVE",
"535 56 OFFCURVE",
"562 182 CURVE SMOOTH",
"581 270 OFFCURVE",
"548 316 OFFCURVE",
"484 331 CURVE",
"541 354 OFFCURVE",
"583 404 OFFCURVE",
"599 476 CURVE SMOOTH",
"621 583 OFFCURVE",
"574 644 OFFCURVE",
"454 644 CURVE SMOOTH",
"171 644 LINE",
"35 0 LINE"
);
},
{
closed = 1;
nodes = (
"156 311 LINE",
"383 311 LINE SMOOTH",
"500 311 OFFCURVE",
"526 266 OFFCURVE",
"509 184 CURVE SMOOTH",
"487 82 OFFCURVE",
"436 43 OFFCURVE",
"341 43 CURVE SMOOTH",
"99 43 LINE"
);
},
{
closed = 1;
nodes = (
"217 600 LINE",
"433 600 LINE SMOOTH",
"551 600 OFFCURVE",
"563 555 OFFCURVE",
"546 473 CURVE SMOOTH",
"531 404 OFFCURVE",
"488 354 OFFCURVE",
"398 354 CURVE SMOOTH",
"165 354 LINE"
);
}
);
width = 619;
}
);
note = B;
unicode = 0042;
},
{
glyphname = C;
lastChange = "2015-10-24 21:17:54 +0000";
layers = (
{
layerId = "D3C4CEFB-873C-4437-A63B-85583903CC89";
name = "Light Italic";
paths = (
{
closed = 1;
nodes = (
"380 -10 OFFCURVE",
"442 -1 OFFCURVE",
"497 15 CURVE",
"507 64 LINE",
"452 46 OFFCURVE",
"384 37 OFFCURVE",
"325 37 CURVE SMOOTH",
"141 37 OFFCURVE",
"97 136 OFFCURVE",
"133 304 CURVE SMOOTH",
"172 487 OFFCURVE",
"256 606 OFFCURVE",
"443 606 CURVE SMOOTH",
"509 606 OFFCURVE",
"569 595 OFFCURVE",
"616 576 CURVE",
"626 625 LINE",
"579 643 OFFCURVE",
"522 654 OFFCURVE",
"449 654 CURVE SMOOTH",
"228 654 OFFCURVE",
"124 513 OFFCURVE",
"79 304 CURVE SMOOTH",
"39 116 OFFCURVE",
"104 -10 OFFCURVE",
"308 -10 CURVE SMOOTH"
);
}
);
width = 589;
}
);
leftKerningGroup = C;
note = C;
rightKerningGroup = C;
unicode = 0043;
},
{
glyphname = Cacute;
lastChange = "2015-10-24 21:18:01 +0000";
layers = (
{
layerId = "D3C4CEFB-873C-4437-A63B-85583903CC89";
name = "Light Italic";
paths = (
{
closed = 1;
nodes = (
"380 -10 OFFCURVE",
"442 -1 OFFCURVE",
"497 15 CURVE",
"507 64 LINE",
"452 46 OFFCURVE",
"384 37 OFFCURVE",
"325 37 CURVE SMOOTH",
"141 37 OFFCURVE",
"97 136 OFFCURVE",
"133 304 CURVE SMOOTH",
"172 487 OFFCURVE",
"256 606 OFFCURVE",
"443 606 CURVE SMOOTH",
"509 606 OFFCURVE",
"569 595 OFFCURVE",
"616 576 CURVE",
"626 625 LINE",
"579 643 OFFCURVE",
"522 654 OFFCURVE",
"449 654 CURVE SMOOTH",
"228 654 OFFCURVE",
"124 513 OFFCURVE",
"79 304 CURVE SMOOTH",
"39 116 OFFCURVE",
"104 -10 OFFCURVE",
"308 -10 CURVE SMOOTH"
);
},
{
closed = 1;
nodes = (
"465 688 LINE",
"573 846 LINE",
"521 846 LINE",
"420 688 LINE"
);
}
);
width = 589;
}
);
leftKerningGroup = C;
note = Cacute;
rightKerningGroup = C;
unicode = 0106;
},
{
glyphname = Ccaron;
lastChange = "2015-10-24 21:18:00 +0000";
layers = (
{
layerId = "D3C4CEFB-873C-4437-A63B-85583903CC89";
name = "Light Italic";
paths = (
{
closed = 1;
nodes = (
"380 -10 OFFCURVE",
"442 -1 OFFCURVE",
"497 15 CURVE",
"507 64 LINE",
"452 46 OFFCURVE",
"384 37 OFFCURVE",
"325 37 CURVE SMOOTH",
"141 37 OFFCURVE",
"97 136 OFFCURVE",
"133 304 CURVE SMOOTH",
"172 487 OFFCURVE",
"256 606 OFFCURVE",
"443 606 CURVE SMOOTH",
"509 606 OFFCURVE",
"569 595 OFFCURVE",
"616 576 CURVE",
"626 625 LINE",
"579 643 OFFCURVE",
"522 654 OFFCURVE",
"449 654 CURVE SMOOTH",
"228 654 OFFCURVE",
"124 513 OFFCURVE",
"79 304 CURVE SMOOTH",
"39 116 OFFCURVE",
"104 -10 OFFCURVE",
"308 -10 CURVE SMOOTH"
);
},
{
closed = 1;
nodes = (
"488 687 LINE",
"622 822 LINE",
"570 822 LINE",
"469 719 LINE",
"412 822 LINE",
"365 822 LINE",
"440 687 LINE"
);
}
);
width = 589;
}
);
leftKerningGroup = C;
note = Ccaron;
rightKerningGroup = C;
unicode = 010C;
},
{
glyphname = Ccedilla;
lastChange = "2015-10-24 21:18:01 +0000";
layers = (
{
layerId = "D3C4CEFB-873C-4437-A63B-85583903CC89";
name = "Light Italic";
paths = (
{
closed = 1;
nodes = (
"380 -10 OFFCURVE",
"442 -1 OFFCURVE",
"497 15 CURVE",
"507 64 LINE",
"452 46 OFFCURVE",
"384 37 OFFCURVE",
"325 37 CURVE SMOOTH",
"141 37 OFFCURVE",
"97 136 OFFCURVE",
"133 304 CURVE SMOOTH",
"172 487 OFFCURVE",
"256 606 OFFCURVE",
"443 606 CURVE SMOOTH",
"509 606 OFFCURVE",
"569 595 OFFCURVE",
"616 576 CURVE",
"626 625 LINE",
"579 643 OFFCURVE",
"522 654 OFFCURVE",
"449 654 CURVE SMOOTH",
"228 654 OFFCURVE",
"124 513 OFFCURVE",
"79 304 CURVE SMOOTH",
"39 116 OFFCURVE",
"104 -10 OFFCURVE",
"308 -10 CURVE SMOOTH"
);
},
{
closed = 1;
nodes = (
"330 -240 OFFCURVE",
"379 -204 OFFCURVE",
"393 -139 CURVE SMOOTH",
"405 -81 OFFCURVE",
"372 -51 OFFCURVE",
"299 -51 CURVE",
"326 0 LINE",
"283 0 LINE",
"238 -84 LINE",
"271 -84 LINE SMOOTH",
"332 -84 OFFCURVE",
"359 -96 OFFCURVE",
"350 -139 CURVE SMOOTH",
"340 -187 OFFCURVE",
"305 -203 OFFCURVE",
"238 -203 CURVE SMOOTH",
"216 -203 OFFCURVE",
"194 -200 OFFCURVE",
"177 -195 CURVE",
"169 -232 LINE",
"183 -236 OFFCURVE",
"212 -240 OFFCURVE",
"233 -240 CURVE SMOOTH"
);
}
);
width = 589;
}
);
leftKerningGroup = C;
note = Ccedilla;
rightKerningGroup = C;
unicode = 00C7;
},
{
glyphname = Ccircumflex;
lastChange = "2015-10-24 21:17:59 +0000";
layers = (
{
layerId = "D3C4CEFB-873C-4437-A63B-85583903CC89";
name = "Light Italic";
paths = (
{
closed = 1;
nodes = (
"380 -10 OFFCURVE",
"442 -1 OFFCURVE",
"497 15 CURVE",
"507 64 LINE",
"452 46 OFFCURVE",
"384 37 OFFCURVE",
"325 37 CURVE SMOOTH",
"141 37 OFFCURVE",
"97 136 OFFCURVE",
"133 304 CURVE SMOOTH",
"172 487 OFFCURVE",
"256 606 OFFCURVE",
"443 606 CURVE SMOOTH",
"509 606 OFFCURVE",
"569 595 OFFCURVE",
"616 576 CURVE",
"626 625 LINE",
"579 643 OFFCURVE",
"522 654 OFFCURVE",
"449 654 CURVE SMOOTH",
"228 654 OFFCURVE",
"124 513 OFFCURVE",
"79 304 CURVE SMOOTH",
"39 116 OFFCURVE",
"104 -10 OFFCURVE",
"308 -10 CURVE SMOOTH"
);
},
{
closed = 1;
nodes = (
"363 687 LINE",
"464 790 LINE",
"521 687 LINE",
"569 687 LINE",
"493 822 LINE",
"445 822 LINE",
"312 687 LINE"
);
}
);
width = 589;
}
);
leftKerningGroup = C;
note = Ccircumflex;
rightKerningGroup = C;
unicode = 0108;
},
{
glyphname = Cdotaccent;
lastChange = "2015-10-24 21:18:01 +0000";
layers = (
{
layerId = "D3C4CEFB-873C-4437-A63B-85583903CC89";
name = "Light Italic";
paths = (
{
closed = 1;
nodes = (
"380 -10 OFFCURVE",
"442 -1 OFFCURVE",
"497 15 CURVE",
"507 64 LINE",
"452 46 OFFCURVE",
"384 37 OFFCURVE",
"325 37 CURVE SMOOTH",
"141 37 OFFCURVE",
"97 136 OFFCURVE",
"133 304 CURVE SMOOTH",
"172 487 OFFCURVE",
"256 606 OFFCURVE",
"443 606 CURVE SMOOTH",
"509 606 OFFCURVE",
"569 595 OFFCURVE",
"616 576 CURVE",
"626 625 LINE",
"579 643 OFFCURVE",
"522 654 OFFCURVE",
"449 654 CURVE SMOOTH",
"228 654 OFFCURVE",
"124 513 OFFCURVE",
"79 304 CURVE SMOOTH",
"39 116 OFFCURVE",
"104 -10 OFFCURVE",
"308 -10 CURVE SMOOTH"
);
},
{
closed = 1;
nodes = (
"489 714 LINE",
"501 770 LINE",
"444 770 LINE",
"432 714 LINE"
);
}
);
width = 589;
}
);
leftKerningGroup = C;
note = Cdotaccent;
rightKerningGroup = C;
unicode = 010A;
},
{
glyphname = D;
lastChange = "2015-10-24 21:17:59 +0000";
layers = (
{
layerId = "D3C4CEFB-873C-4437-A63B-85583903CC89";
name = "Light Italic";
paths = (
{
closed = 1;
nodes = (
"277 0 LINE SMOOTH",
"481 0 OFFCURVE",
"557 98 OFFCURVE",
"604 317 CURVE SMOOTH",
"653 549 OFFCURVE",
"596 644 OFFCURVE",
"411 644 CURVE SMOOTH",
"171 644 LINE",
"35 0 LINE"
);
},
{
closed = 1;
nodes = (
"217 599 LINE",
"392 599 LINE SMOOTH",
"559 599 OFFCURVE",
"596 537 OFFCURVE",
"549 317 CURVE SMOOTH",
"502 95 OFFCURVE",
"423 44 OFFCURVE",
"274 44 CURVE SMOOTH",
"99 44 LINE"
);
}
);
width = 632;
}
);
note = D;
rightKerningGroup = D;
unicode = 0044;
},
{
glyphname = Eth;
lastChange = "2015-10-24 21:18:01 +0000";
layers = (
{
layerId = "D3C4CEFB-873C-4437-A63B-85583903CC89";
name = "Light Italic";
paths = (
{
closed = 1;
nodes = (
"318 0 LINE SMOOTH",
"522 0 OFFCURVE",
"598 98 OFFCURVE",
"645 317 CURVE SMOOTH",
"694 549 OFFCURVE",
"637 644 OFFCURVE",
"452 644 CURVE SMOOTH",
"212 644 LINE",
"147 339 LINE",
"67 339 LINE",
"57 294 LINE",
"138 294 LINE",
"76 0 LINE"
);
},
{
closed = 1;
nodes = (
"193 294 LINE",
"383 294 LINE",
"393 339 LINE",
"202 339 LINE",
"258 599 LINE",
"433 599 LINE SMOOTH",
"600 599 OFFCURVE",
"637 537 OFFCURVE",
"590 317 CURVE SMOOTH",
"543 95 OFFCURVE",
"464 44 OFFCURVE",
"315 44 CURVE SMOOTH",
"140 44 LINE"
);
}
);
width = 673;
}
);
note = Eth;
rightKerningGroup = D;
unicode = 00D0;
},
{
glyphname = Dcaron;
lastChange = "2015-10-24 21:17:59 +0000";
layers = (
{
layerId = "D3C4CEFB-873C-4437-A63B-85583903CC89";
name = "Light Italic";
paths = (
{
closed = 1;
nodes = (
"277 0 LINE SMOOTH",
"481 0 OFFCURVE",
"557 98 OFFCURVE",
"604 317 CURVE SMOOTH",
"653 549 OFFCURVE",
"596 644 OFFCURVE",
"411 644 CURVE SMOOTH",
"171 644 LINE",
"35 0 LINE"
);
},
{
closed = 1;
nodes = (
"217 599 LINE",
"392 599 LINE SMOOTH",
"559 599 OFFCURVE",
"596 537 OFFCURVE",
"549 317 CURVE SMOOTH",
"502 95 OFFCURVE",
"423 44 OFFCURVE",
"274 44 CURVE SMOOTH",
"99 44 LINE"
);
},
{
closed = 1;
nodes = (
"437 709 LINE",
"571 844 LINE",
"519 844 LINE",
"418 741 LINE",
"361 844 LINE",
"314 844 LINE",
"389 709 LINE"
);
}
);
width = 632;
}
);
note = Dcaron;
rightKerningGroup = D;
unicode = 010E;
},
{
glyphname = Dcroat;
lastChange = "2015-10-24 21:18:01 +0000";
layers = (
{
layerId = "D3C4CEFB-873C-4437-A63B-85583903CC89";
name = "Light Italic";
paths = (
{
closed = 1;
nodes = (
"308 0 LINE SMOOTH",
"512 0 OFFCURVE",
"588 98 OFFCURVE",
"635 317 CURVE SMOOTH",
"684 549 OFFCURVE",
"627 644 OFFCURVE",
"442 644 CURVE SMOOTH",
"202 644 LINE",
"137 339 LINE",
"57 339 LINE",
"47 294 LINE",
"128 294 LINE",
"66 0 LINE"
);
},
{
closed = 1;
nodes = (
"183 294 LINE",
"373 294 LINE",
"383 339 LINE",
"192 339 LINE",
"248 599 LINE",
"423 599 LINE SMOOTH",
"590 599 OFFCURVE",
"627 537 OFFCURVE",
"580 317 CURVE SMOOTH",
"533 95 OFFCURVE",
"454 44 OFFCURVE",
"305 44 CURVE SMOOTH",
"130 44 LINE"
);
}
);
width = 663;
}
);
note = Dcroat;
rightKerningGroup = D;
unicode = 0110;
},
{
glyphname = Ddotbelow;
lastChange = "2015-11-24 09:49:50 +0000";
layers = (
{
layerId = "D3C4CEFB-873C-4437-A63B-85583903CC89";
name = "Light Italic";
paths = (
{
closed = 1;
nodes = (
"277 0 LINE SMOOTH",
"481 0 OFFCURVE",
"557 98 OFFCURVE",
"604 317 CURVE SMOOTH",
"653 549 OFFCURVE",
"596 644 OFFCURVE",
"411 644 CURVE SMOOTH",
"171 644 LINE",
"35 0 LINE"
);
},
{
closed = 1;
nodes = (
"217 599 LINE",
"392 599 LINE SMOOTH",
"559 599 OFFCURVE",
"596 537 OFFCURVE",
"549 317 CURVE SMOOTH",
"502 95 OFFCURVE",
"423 44 OFFCURVE",
"274 44 CURVE SMOOTH",
"99 44 LINE"
);
},
{
closed = 1;
nodes = (
"283 -152 LINE",
"295 -95 LINE",
"236 -95 LINE",
"224 -152 LINE"
);
}
);
width = 632;
}
);
note = Ddotbelow;
rightKerningGroup = D;
unicode = 1E0C;
},
{
glyphname = Dlinebelow;
lastChange = "2015-11-24 09:49:53 +0000";
layers = (
{
layerId = "D3C4CEFB-873C-4437-A63B-85583903CC89";
name = "Light Italic";
paths = (
{
closed = 1;
nodes = (
"277 0 LINE SMOOTH",
"481 0 OFFCURVE",
"557 98 OFFCURVE",
"604 317 CURVE SMOOTH",
"653 549 OFFCURVE",
"596 644 OFFCURVE",
"411 644 CURVE SMOOTH",
"171 644 LINE",
"35 0 LINE"
);
},
{
closed = 1;
nodes = (
"217 599 LINE",
"392 599 LINE SMOOTH",
"559 599 OFFCURVE",
"596 537 OFFCURVE",
"549 317 CURVE SMOOTH",
"502 95 OFFCURVE",
"423 44 OFFCURVE",
"274 44 CURVE SMOOTH",
"99 44 LINE"
);
},
{
closed = 1;
nodes = (
"359 -123 LINE",
"368 -81 LINE",
"92 -81 LINE",
"83 -123 LINE"
);
}
);
width = 632;
}
);
note = Dlinebelow;
rightKerningGroup = D;
unicode = 1E0E;
},
{
glyphname = E;
lastChange = "2015-10-24 21:17:54 +0000";
layers = (
{
layerId = "D3C4CEFB-873C-4437-A63B-85583903CC89";
name = "Light Italic";
paths = (
{
closed = 1;
nodes = (
"456 0 LINE",
"465 44 LINE",
"99 44 LINE",
"153 300 LINE",
"484 300 LINE",
"494 344 LINE",
"163 344 LINE",
"217 599 LINE",
"583 599 LINE",
"592 644 LINE",
"171 644 LINE",
"35 0 LINE"
);
}
);
width = 541;
}
);
leftKerningGroup = E;
note = E;
rightKerningGroup = E;
unicode = 0045;
},
{
glyphname = Eacute;
lastChange = "2015-10-24 21:18:01 +0000";
layers = (
{
layerId = "D3C4CEFB-873C-4437-A63B-85583903CC89";
name = "Light Italic";
paths = (
{
closed = 1;
nodes = (
"456 0 LINE",
"465 44 LINE",
"99 44 LINE",
"153 300 LINE",
"484 300 LINE",
"494 344 LINE",
"163 344 LINE",
"217 599 LINE",
"583 599 LINE",
"592 644 LINE",
"171 644 LINE",
"35 0 LINE"
);
},
{
closed = 1;
nodes = (
"408 688 LINE",
"516 846 LINE",
"464 846 LINE",
"363 688 LINE"
);
}
);
width = 541;
}
);
leftKerningGroup = E;
note = Eacute;
rightKerningGroup = E;
unicode = 00C9;
},
{
glyphname = Ebreve;
lastChange = "2015-11-24 09:50:01 +0000";
layers = (
{
layerId = "D3C4CEFB-873C-4437-A63B-85583903CC89";
name = "Light Italic";
paths = (
{
closed = 1;
nodes = (
"456 0 LINE",
"465 44 LINE",
"99 44 LINE",
"153 300 LINE",
"484 300 LINE",
"494 344 LINE",
"163 344 LINE",
"217 599 LINE",
"583 599 LINE",
"592 644 LINE",
"171 644 LINE",
"35 0 LINE"
);
},
{
closed = 1;
nodes = (
"469 687 OFFCURVE",
"518 734 OFFCURVE",
"532 798 CURVE",
"488 798 LINE",
"478 752 OFFCURVE",
"444 726 OFFCURVE",
"402 726 CURVE SMOOTH",
"354 726 OFFCURVE",
"339 752 OFFCURVE",
"349 798 CURVE",
"309 798 LINE",
"295 734 OFFCURVE",
"328 687 OFFCURVE",
"396 687 CURVE SMOOTH"
);
}
);
width = 541;
}
);
leftKerningGroup = E;
note = Ebreve;
rightKerningGroup = E;
unicode = 0114;
},
{
glyphname = Ecaron;
lastChange = "2015-11-24 09:50:05 +0000";
layers = (
{
layerId = "D3C4CEFB-873C-4437-A63B-85583903CC89";
name = "Light Italic";
paths = (
{
closed = 1;
nodes = (
"456 0 LINE",
"465 44 LINE",
"99 44 LINE",
"153 300 LINE",
"484 300 LINE",
"494 344 LINE",
"163 344 LINE",
"217 599 LINE",
"583 599 LINE",
"592 644 LINE",
"171 644 LINE",
"35 0 LINE"
);
},
{
closed = 1;
nodes = (
"421 687 LINE",
"555 822 LINE",
"503 822 LINE",
"402 719 LINE",
"345 822 LINE",
"298 822 LINE",
"373 687 LINE"
);
}
);
width = 541;
}
);
leftKerningGroup = E;
note = Ecaron;
rightKerningGroup = E;
unicode = 011A;
},
{
glyphname = Ecircumflex;
lastChange = "2015-11-24 09:50:12 +0000";
layers = (
{
layerId = "D3C4CEFB-873C-4437-A63B-85583903CC89";
name = "Light Italic";
paths = (
{
closed = 1;
nodes = (
"456 0 LINE",
"465 44 LINE",
"99 44 LINE",
"153 300 LINE",
"484 300 LINE",
"494 344 LINE",
"163 344 LINE",
"217 599 LINE",
"583 599 LINE",
"592 644 LINE",
"171 644 LINE",
"35 0 LINE"
);
},
{
closed = 1;
nodes = (
"305 687 LINE",
"406 790 LINE",
"463 687 LINE",
"511 687 LINE",
"435 822 LINE",
"387 822 LINE",
"254 687 LINE"
);
}
);
width = 541;
}
);
leftKerningGroup = E;
note = Ecircumflex;
rightKerningGroup = E;
unicode = 00CA;
},
{
glyphname = Ecircumflexacute;
lastChange = "2015-11-24 09:50:17 +0000";
layers = (
{
layerId = "D3C4CEFB-873C-4437-A63B-85583903CC89";
name = "Light Italic";
paths = (
{
closed = 1;
nodes = (
"456 0 LINE",
"465 44 LINE",
"99 44 LINE",
"153 300 LINE",
"484 300 LINE",
"494 344 LINE",
"163 344 LINE",
"217 599 LINE",
"583 599 LINE",
"592 644 LINE",
"171 644 LINE",
"35 0 LINE"
);
},
{
closed = 1;
nodes = (
"309 687 LINE",
"405 772 LINE",
"465 687 LINE",
"511 687 LINE",
"431 797 LINE",
"383 797 LINE",
"257 687 LINE"
);
},
{
closed = 1;
nodes = (
"516 793 LINE",
"606 910 LINE",
"560 910 LINE",
"475 793 LINE"
);
}
);
width = 541;
}
);
leftKerningGroup = E;
note = Ecircumflexacute;
rightKerningGroup = E;
unicode = 1EBE;
},
{
glyphname = Ecircumflexdotbelow;
lastChange = "2015-11-24 09:50:20 +0000";
layers = (
{
layerId = "D3C4CEFB-873C-4437-A63B-85583903CC89";
name = "Light Italic";
paths = (
{
closed = 1;
nodes = (
"456 0 LINE",
"465 44 LINE",
"99 44 LINE",
"153 300 LINE",
"484 300 LINE",
"494 344 LINE",
"163 344 LINE",
"217 599 LINE",
"583 599 LINE",
"592 644 LINE",
"171 644 LINE",
"35 0 LINE"
);
},
{
closed = 1;
nodes = (
"231 -152 LINE",
"243 -95 LINE",
"184 -95 LINE",
"172 -152 LINE"
);
},
{
closed = 1;
nodes = (
"301 687 LINE",
"402 790 LINE",
"459 687 LINE",
"507 687 LINE",
"431 822 LINE",
"383 822 LINE",
"250 687 LINE"
);
}
);
width = 541;
}
);
leftKerningGroup = E;
note = Ecircumflexdotbelow;
rightKerningGroup = E;
unicode = 1EC6;
},
{
glyphname = Ecircumflexgrave;
lastChange = "2015-11-24 09:50:23 +0000";
layers = (
{
layerId = "D3C4CEFB-873C-4437-A63B-85583903CC89";
name = "Light Italic";
paths = (
{
closed = 1;
nodes = (
"456 0 LINE",
"465 44 LINE",
"99 44 LINE",
"153 300 LINE",
"484 300 LINE",
"494 344 LINE",
"163 344 LINE",
"217 599 LINE",
"583 599 LINE",
"592 644 LINE",
"171 644 LINE",
"35 0 LINE"
);
},
{
closed = 1;
nodes = (
"325 687 LINE",
"421 772 LINE",
"481 687 LINE",
"527 687 LINE",
"447 797 LINE",
"399 797 LINE",
"273 687 LINE"
);
},
{
closed = 1;
nodes = (
"352 793 LINE",
"318 910 LINE",
"271 910 LINE",
"312 793 LINE"
);
}
);
width = 541;
}
);
leftKerningGroup = E;
note = Ecircumflexgrave;
rightKerningGroup = E;
unicode = 1EC0;
},
{
glyphname = Ecircumflexhookabove;
lastChange = "2015-11-24 09:50:27 +0000";
layers = (
{
layerId = "D3C4CEFB-873C-4437-A63B-85583903CC89";
name = "Light Italic";
paths = (
{
closed = 1;
nodes = (
"456 0 LINE",
"465 44 LINE",
"99 44 LINE",
"153 300 LINE",
"484 300 LINE",
"494 344 LINE",
"163 344 LINE",
"217 599 LINE",
"583 599 LINE",
"592 644 LINE",
"171 644 LINE",
"35 0 LINE"
);
},
{
closed = 1;
nodes = (
"317 687 LINE",
"412 772 LINE",
"472 687 LINE",
"518 687 LINE",
"438 797 LINE",
"390 797 LINE",
"264 687 LINE"
);
},
{
closed = 1;
nodes = (
"531 772 LINE",
"539 808 LINE",
"595 814 OFFCURVE",
"624 837 OFFCURVE",
"633 879 CURVE SMOOTH",
"642 925 OFFCURVE",
"615 951 OFFCURVE",
"560 951 CURVE SMOOTH",
"534 951 OFFCURVE",
"511 946 OFFCURVE",
"492 939 CURVE",
"485 905 LINE",
"504 913 OFFCURVE",
"523 918 OFFCURVE",
"546 918 CURVE SMOOTH",
"582 918 OFFCURVE",
"596 904 OFFCURVE",
"590 877 CURVE SMOOTH",
"584 849 OFFCURVE",
"568 835 OFFCURVE",
"498 831 CURVE",
"486 772 LINE"
);
}
);
width = 541;
}
);
leftKerningGroup = E;
note = Ecircumflexhookabove;
rightKerningGroup = E;
unicode = 1EC2;
},
{
glyphname = Ecircumflextilde;
lastChange = "2015-11-24 09:50:33 +0000";
layers = (
{
layerId = "D3C4CEFB-873C-4437-A63B-85583903CC89";
name = "Light Italic";
paths = (
{
closed = 1;
nodes = (
"456 0 LINE",
"465 44 LINE",
"99 44 LINE",
"153 300 LINE",
"484 300 LINE",
"494 344 LINE",
"163 344 LINE",
"217 599 LINE",
"583 599 LINE",
"592 644 LINE",
"171 644 LINE",
"35 0 LINE"
);
},
{
closed = 1;
nodes = (
"318 687 LINE",
"413 772 LINE",
"473 687 LINE",
"519 687 LINE",
"439 797 LINE",
"391 797 LINE",
"265 687 LINE"
);
},
{
closed = 1;
nodes = (
"512 805 OFFCURVE",
"540 815 OFFCURVE",
"557 831 CURVE",
"567 875 LINE",
"542 851 OFFCURVE",
"518 843 OFFCURVE",
"489 843 CURVE SMOOTH",
"445 843 OFFCURVE",
"424 876 OFFCURVE",
"374 876 CURVE SMOOTH",
"346 876 OFFCURVE",
"315 866 OFFCURVE",
"296 850 CURVE",
"286 806 LINE",
"313 831 OFFCURVE",
"339 838 OFFCURVE",
"368 838 CURVE SMOOTH",
"406 838 OFFCURVE",
"435 805 OFFCURVE",
"482 805 CURVE SMOOTH"
);
}
);
width = 541;
}
);
leftKerningGroup = E;
note = Ecircumflextilde;
rightKerningGroup = E;
unicode = 1EC4;
},
{
glyphname = Edieresis;
lastChange = "2015-11-24 09:50:37 +0000";
layers = (
{
layerId = "D3C4CEFB-873C-4437-A63B-85583903CC89";
name = "Light Italic";
paths = (
{
closed = 1;
nodes = (
"456 0 LINE",
"465 44 LINE",
"99 44 LINE",
"153 300 LINE",
"484 300 LINE",
"494 344 LINE",
"163 344 LINE",
"217 599 LINE",
"583 599 LINE",
"592 644 LINE",
"171 644 LINE",
"35 0 LINE"
);
},
{
closed = 1;
nodes = (
"340 714 LINE",
"352 769 LINE",
"295 769 LINE",
"284 714 LINE"
);
},
{
closed = 1;
nodes = (
"506 714 LINE",
"518 769 LINE",
"462 769 LINE",
"450 714 LINE"
);
}
);
width = 541;
}
);
leftKerningGroup = E;
note = Edieresis;
rightKerningGroup = E;
unicode = 00CB;
},
{
glyphname = Edotaccent;
lastChange = "2015-11-24 09:50:39 +0000";
layers = (
{
layerId = "D3C4CEFB-873C-4437-A63B-85583903CC89";
name = "Light Italic";
paths = (
{
closed = 1;
nodes = (
"456 0 LINE",
"465 44 LINE",
"99 44 LINE",
"153 300 LINE",
"484 300 LINE",
"494 344 LINE",
"163 344 LINE",
"217 599 LINE",
"583 599 LINE",
"592 644 LINE",
"171 644 LINE",
"35 0 LINE"
);
},
{
closed = 1;
nodes = (
"424 714 LINE",
"436 770 LINE",
"379 770 LINE",
"367 714 LINE"
);
}
);
width = 541;
}
);
leftKerningGroup = E;
note = Edotaccent;
rightKerningGroup = E;
unicode = 0116;
},
{
glyphname = Edotbelow;
lastChange = "2015-11-24 09:50:42 +0000";
layers = (
{
layerId = "D3C4CEFB-873C-4437-A63B-85583903CC89";
name = "Light Italic";
paths = (
{
closed = 1;
nodes = (
"456 0 LINE",
"465 44 LINE",
"99 44 LINE",
"153 300 LINE",
"484 300 LINE",
"494 344 LINE",
"163 344 LINE",
"217 599 LINE",
"583 599 LINE",
"592 644 LINE",
"171 644 LINE",
"35 0 LINE"
);
},
{
closed = 1;
nodes = (
"239 -152 LINE",
"251 -95 LINE",
"192 -95 LINE",
"180 -152 LINE"
);
}
);
width = 541;
}
);
leftKerningGroup = E;
note = Edotbelow;
rightKerningGroup = E;
unicode = 1EB8;
},
{
glyphname = Egrave;
lastChange = "2015-11-24 09:50:45 +0000";
layers = (
{
layerId = "D3C4CEFB-873C-4437-A63B-85583903CC89";
name = "Light Italic";
paths = (
{
closed = 1;
nodes = (
"456 0 LINE",
"465 44 LINE",
"99 44 LINE",
"153 300 LINE",
"484 300 LINE",
"494 344 LINE",
"163 344 LINE",
"217 599 LINE",
"583 599 LINE",
"592 644 LINE",
"171 644 LINE",
"35 0 LINE"
);
},
{
closed = 1;
nodes = (
"422 688 LINE",
"389 846 LINE",
"337 846 LINE",
"377 688 LINE"
);
}
);
width = 541;
}
);
leftKerningGroup = E;
note = Egrave;
rightKerningGroup = E;
unicode = 00C8;
},
{
glyphname = Ehookabove;
lastChange = "2015-11-24 09:50:48 +0000";
layers = (
{
layerId = "D3C4CEFB-873C-4437-A63B-85583903CC89";
name = "Light Italic";
paths = (
{
closed = 1;
nodes = (
"456 0 LINE",
"465 44 LINE",
"99 44 LINE",
"153 300 LINE",
"484 300 LINE",
"494 344 LINE",
"163 344 LINE",
"217 599 LINE",
"583 599 LINE",
"592 644 LINE",
"171 644 LINE",
"35 0 LINE"
);
},
{
closed = 1;
nodes = (
"406 688 LINE",
"417 740 LINE",
"487 747 OFFCURVE",
"515 776 OFFCURVE",
"526 829 CURVE SMOOTH",
"538 885 OFFCURVE",
"505 917 OFFCURVE",
"429 917 CURVE SMOOTH",
"405 917 OFFCURVE",
"369 912 OFFCURVE",
"349 905 CURVE",
"341 867 LINE",
"360 874 OFFCURVE",
"390 879 OFFCURVE",
"411 879 CURVE SMOOTH",
"469 879 OFFCURVE",
"490 862 OFFCURVE",
"482 826 CURVE SMOOTH",
"474 788 OFFCURVE",
"457 771 OFFCURVE",
"376 767 CURVE",
"359 688 LINE"
);
}
);
width = 541;
}
);
leftKerningGroup = E;
note = Ehookabove;
rightKerningGroup = E;
unicode = 1EBA;
},
{
glyphname = Emacron;
lastChange = "2015-11-24 09:50:51 +0000";
layers = (
{
layerId = "D3C4CEFB-873C-4437-A63B-85583903CC89";
name = "Light Italic";
paths = (
{
closed = 1;
nodes = (
"456 0 LINE",
"465 44 LINE",
"99 44 LINE",
"153 300 LINE",
"484 300 LINE",
"494 344 LINE",
"163 344 LINE",
"217 599 LINE",
"583 599 LINE",
"592 644 LINE",
"171 644 LINE",
"35 0 LINE"
);
},
{
closed = 1;
nodes = (
"531 719 LINE",
"540 761 LINE",
"264 761 LINE",
"255 719 LINE"
);
}
);
width = 541;
}
);
leftKerningGroup = E;
note = Emacron;
rightKerningGroup = E;
unicode = 0112;
},
{
glyphname = Eogonek;
lastChange = "2015-11-24 09:50:58 +0000";
layers = (
{
layerId = "D3C4CEFB-873C-4437-A63B-85583903CC89";
name = "Light Italic";
paths = (
{
closed = 1;
nodes = (
"376 -220 OFFCURVE",
"400 -217 OFFCURVE",
"417 -209 CURVE",
"426 -168 LINE",
"412 -175 OFFCURVE",
"391 -179 OFFCURVE",
"374 -179 CURVE SMOOTH",
"337 -179 OFFCURVE",
"324 -165 OFFCURVE",
"332 -128 CURVE SMOOTH",
"342 -83 OFFCURVE",
"376 -37 OFFCURVE",
"433 0 CURVE",
"456 0 LINE",
"465 44 LINE",
"99 44 LINE",
"153 300 LINE",
"484 300 LINE",
"494 344 LINE",
"163 344 LINE",
"217 599 LINE",
"583 599 LINE",
"592 644 LINE",
"171 644 LINE",
"35 0 LINE",
"387 0 LINE",
"339 -29 OFFCURVE",
"295 -80 OFFCURVE",
"284 -134 CURVE SMOOTH",
"271 -197 OFFCURVE",
"306 -220 OFFCURVE",
"357 -220 CURVE SMOOTH"
);
}
);
width = 541;
}
);
leftKerningGroup = E;
note = Eogonek;
rightKerningGroup = E;
unicode = 0118;
},
{
glyphname = Etilde;
lastChange = "2015-11-24 09:51:03 +0000";
layers = (
{
layerId = "D3C4CEFB-873C-4437-A63B-85583903CC89";
name = "Light Italic";
paths = (
{
closed = 1;
nodes = (
"456 0 LINE",
"465 44 LINE",
"99 44 LINE",
"153 300 LINE",
"484 300 LINE",
"494 344 LINE",
"163 344 LINE",
"217 599 LINE",
"583 599 LINE",
"592 644 LINE",
"171 644 LINE",
"35 0 LINE"
);
},
{
closed = 1;
nodes = (
"495 713 OFFCURVE",
"524 724 OFFCURVE",
"540 742 CURVE",
"550 789 LINE",
"527 764 OFFCURVE",
"502 754 OFFCURVE",
"470 754 CURVE SMOOTH",
"424 754 OFFCURVE",
"398 791 OFFCURVE",
"346 791 CURVE SMOOTH",
"316 791 OFFCURVE",
"281 780 OFFCURVE",
"262 762 CURVE",
"252 715 LINE",
"279 742 OFFCURVE",
"308 750 OFFCURVE",
"338 750 CURVE SMOOTH",
"378 750 OFFCURVE",
"414 713 OFFCURVE",
"463 713 CURVE SMOOTH"
);
}
);
width = 541;
}
);
leftKerningGroup = E;
note = Etilde;
rightKerningGroup = E;
unicode = 1EBC;
},
{
glyphname = F;
lastChange = "2015-10-24 21:17:54 +0000";
layers = (
{
layerId = "D3C4CEFB-873C-4437-A63B-85583903CC89";
name = "Light Italic";
paths = (
{
closed = 1;
nodes = (
"90 0 LINE",
"153 300 LINE",
"467 300 LINE",
"477 344 LINE",
"163 344 LINE",
"217 599 LINE",
"568 599 LINE",
"577 644 LINE",
"171 644 LINE",
"35 0 LINE"
);
}
);
width = 516;
}
);
note = F;
unicode = 0046;
},
{
glyphname = G;
lastChange = "2015-10-24 21:17:54 +0000";
layers = (
{
layerId = "D3C4CEFB-873C-4437-A63B-85583903CC89";
name = "Light Italic";
paths = (
{
closed = 1;
nodes = (
"429 -10 OFFCURVE",
"505 15 OFFCURVE",
"546 39 CURVE",
"610 340 LINE",
"377 340 LINE",
"367 296 LINE",
"550 296 LINE",
"502 67 LINE",
"454 49 OFFCURVE",
"386 37 OFFCURVE",
"324 37 CURVE SMOOTH",
"135 37 OFFCURVE",
"97 136 OFFCURVE",
"133 304 CURVE SMOOTH",
"172 487 OFFCURVE",
"260 606 OFFCURVE",
"444 606 CURVE SMOOTH",
"509 606 OFFCURVE",
"569 595 OFFCURVE",
"616 578 CURVE",
"627 627 LINE",
"579 644 OFFCURVE",
"522 654 OFFCURVE",
"449 654 CURVE SMOOTH",
"235 654 OFFCURVE",
"124 513 OFFCURVE",
"79 304 CURVE SMOOTH",
"39 116 OFFCURVE",
"111 -10 OFFCURVE",
"308 -10 CURVE SMOOTH"
);
}
);
width = 633;
}
);
leftKerningGroup = G;
note = G;
unicode = 0047;
},
{
glyphname = Gbreve;
lastChange = "2015-10-24 21:18:01 +0000";
layers = (
{
layerId = "D3C4CEFB-873C-4437-A63B-85583903CC89";
name = "Light Italic";
paths = (
{
closed = 1;
nodes = (
"429 -10 OFFCURVE",
"505 15 OFFCURVE",
"546 39 CURVE",
"610 340 LINE",
"377 340 LINE",
"367 296 LINE",
"550 296 LINE",
"502 67 LINE",
"454 49 OFFCURVE",
"386 37 OFFCURVE",
"324 37 CURVE SMOOTH",
"135 37 OFFCURVE",
"97 136 OFFCURVE",
"133 304 CURVE SMOOTH",
"172 487 OFFCURVE",
"260 606 OFFCURVE",
"444 606 CURVE SMOOTH",
"509 606 OFFCURVE",
"569 595 OFFCURVE",
"616 578 CURVE",
"627 627 LINE",
"579 644 OFFCURVE",
"522 654 OFFCURVE",
"449 654 CURVE SMOOTH",
"235 654 OFFCURVE",
"124 513 OFFCURVE",
"79 304 CURVE SMOOTH",
"39 116 OFFCURVE",
"111 -10 OFFCURVE",
"308 -10 CURVE SMOOTH"
);
},
{
closed = 1;
nodes = (
"528 687 OFFCURVE",
"577 734 OFFCURVE",
"591 798 CURVE",
"547 798 LINE",
"537 752 OFFCURVE",
"503 726 OFFCURVE",
"461 726 CURVE SMOOTH",
"413 726 OFFCURVE",
"398 752 OFFCURVE",
"408 798 CURVE",
"368 798 LINE",
"354 734 OFFCURVE",
"387 687 OFFCURVE",
"455 687 CURVE SMOOTH"
);
}
);
width = 633;
}
);
leftKerningGroup = G;
note = Gbreve;
unicode = 011E;
},
{
glyphname = Gcaron;
lastChange = "2015-10-24 21:18:00 +0000";
layers = (
{
layerId = "D3C4CEFB-873C-4437-A63B-85583903CC89";
name = "Light Italic";
paths = (
{
closed = 1;
nodes = (
"429 -10 OFFCURVE",
"505 15 OFFCURVE",
"546 39 CURVE",
"610 340 LINE",
"377 340 LINE",
"367 296 LINE",
"550 296 LINE",
"502 67 LINE",
"454 49 OFFCURVE",
"386 37 OFFCURVE",
"324 37 CURVE SMOOTH",
"135 37 OFFCURVE",
"97 136 OFFCURVE",
"133 304 CURVE SMOOTH",
"172 487 OFFCURVE",
"260 606 OFFCURVE",
"444 606 CURVE SMOOTH",
"509 606 OFFCURVE",
"569 595 OFFCURVE",
"616 578 CURVE",
"627 627 LINE",
"579 644 OFFCURVE",
"522 654 OFFCURVE",
"449 654 CURVE SMOOTH",
"235 654 OFFCURVE",
"124 513 OFFCURVE",
"79 304 CURVE SMOOTH",
"39 116 OFFCURVE",
"111 -10 OFFCURVE",
"308 -10 CURVE SMOOTH"
);
},
{
closed = 1;
nodes = (
"480 687 LINE",
"614 822 LINE",
"562 822 LINE",
"461 719 LINE",
"404 822 LINE",
"357 822 LINE",
"432 687 LINE"
);
}
);
width = 633;
}
);
leftKerningGroup = G;
note = Gcaron;
unicode = 01E6;
},
{
glyphname = Gcircumflex;
lastChange = "2015-10-24 21:18:01 +0000";
layers = (
{
layerId = "D3C4CEFB-873C-4437-A63B-85583903CC89";
name = "Light Italic";
paths = (
{
closed = 1;
nodes = (
"429 -10 OFFCURVE",
"505 15 OFFCURVE",
"546 39 CURVE",
"610 340 LINE",
"377 340 LINE",
"367 296 LINE",
"550 296 LINE",
"502 67 LINE",
"454 49 OFFCURVE",
"386 37 OFFCURVE",
"324 37 CURVE SMOOTH",
"135 37 OFFCURVE",
"97 136 OFFCURVE",
"133 304 CURVE SMOOTH",
"172 487 OFFCURVE",
"260 606 OFFCURVE",
"444 606 CURVE SMOOTH",
"509 606 OFFCURVE",
"569 595 OFFCURVE",
"616 578 CURVE",
"627 627 LINE",
"579 644 OFFCURVE",
"522 654 OFFCURVE",
"449 654 CURVE SMOOTH",
"235 654 OFFCURVE",
"124 513 OFFCURVE",
"79 304 CURVE SMOOTH",
"39 116 OFFCURVE",
"111 -10 OFFCURVE",
"308 -10 CURVE SMOOTH"
);
},
{
closed = 1;
nodes = (
"381 687 LINE",
"482 790 LINE",
"539 687 LINE",
"587 687 LINE",
"511 822 LINE",
"463 822 LINE",
"330 687 LINE"
);
}
);
width = 633;
}
);
leftKerningGroup = G;
note = Gcircumflex;
unicode = 011C;
},
{
glyphname = Gcommaaccent;
lastChange = "2015-10-24 21:18:00 +0000";
layers = (
{
layerId = "D3C4CEFB-873C-4437-A63B-85583903CC89";
name = "Light Italic";
paths = (
{
closed = 1;
nodes = (
"429 -10 OFFCURVE",
"505 15 OFFCURVE",
"546 39 CURVE",
"610 340 LINE",
"377 340 LINE",
"367 296 LINE",
"550 296 LINE",
"502 67 LINE",
"454 49 OFFCURVE",
"386 37 OFFCURVE",
"324 37 CURVE SMOOTH",
"135 37 OFFCURVE",
"97 136 OFFCURVE",
"133 304 CURVE SMOOTH",
"172 487 OFFCURVE",
"260 606 OFFCURVE",
"444 606 CURVE SMOOTH",
"509 606 OFFCURVE",
"569 595 OFFCURVE",
"616 578 CURVE",
"627 627 LINE",
"579 644 OFFCURVE",
"522 654 OFFCURVE",
"449 654 CURVE SMOOTH",
"235 654 OFFCURVE",
"124 513 OFFCURVE",
"79 304 CURVE SMOOTH",
"39 116 OFFCURVE",
"111 -10 OFFCURVE",
"308 -10 CURVE SMOOTH"
);
},
{
closed = 1;
nodes = (
"268 -207 LINE",
"341 -42 LINE",
"288 -42 LINE",
"227 -207 LINE"
);
}
);
width = 633;
}
);
leftKerningGroup = G;
note = Gcommaaccent;
unicode = 0122;
},
{
glyphname = Gdotaccent;
lastChange = "2015-10-24 21:18:00 +0000";
layers = (
{
layerId = "D3C4CEFB-873C-4437-A63B-85583903CC89";
name = "Light Italic";
paths = (
{
closed = 1;
nodes = (
"429 -10 OFFCURVE",
"505 15 OFFCURVE",
"546 39 CURVE",
"610 340 LINE",
"377 340 LINE",
"367 296 LINE",
"550 296 LINE",
"502 67 LINE",
"454 49 OFFCURVE",
"386 37 OFFCURVE",
"324 37 CURVE SMOOTH",
"135 37 OFFCURVE",
"97 136 OFFCURVE",
"133 304 CURVE SMOOTH",
"172 487 OFFCURVE",
"260 606 OFFCURVE",
"444 606 CURVE SMOOTH",
"509 606 OFFCURVE",
"569 595 OFFCURVE",
"616 578 CURVE",
"627 627 LINE",
"579 644 OFFCURVE",
"522 654 OFFCURVE",
"449 654 CURVE SMOOTH",
"235 654 OFFCURVE",
"124 513 OFFCURVE",
"79 304 CURVE SMOOTH",
"39 116 OFFCURVE",
"111 -10 OFFCURVE",
"308 -10 CURVE SMOOTH"
);
},
{
closed = 1;
nodes = (
"490 714 LINE",
"502 770 LINE",
"445 770 LINE",
"433 714 LINE"
);
}
);
width = 633;
}
);
leftKerningGroup = G;
note = Gdotaccent;
unicode = 0120;
},
{
glyphname = Gmacron;
lastChange = "2015-10-24 21:18:00 +0000";
layers = (
{
layerId = "D3C4CEFB-873C-4437-A63B-85583903CC89";
name = "Light Italic";
paths = (
{
closed = 1;
nodes = (
"429 -10 OFFCURVE",
"505 15 OFFCURVE",
"546 39 CURVE",
"610 340 LINE",
"377 340 LINE",
"367 296 LINE",
"550 296 LINE",
"502 67 LINE",
"454 49 OFFCURVE",
"386 37 OFFCURVE",
"324 37 CURVE SMOOTH",
"135 37 OFFCURVE",
"97 136 OFFCURVE",
"133 304 CURVE SMOOTH",
"172 487 OFFCURVE",
"260 606 OFFCURVE",
"444 606 CURVE SMOOTH",
"509 606 OFFCURVE",
"569 595 OFFCURVE",
"616 578 CURVE",
"627 627 LINE",
"579 644 OFFCURVE",
"522 654 OFFCURVE",
"449 654 CURVE SMOOTH",
"235 654 OFFCURVE",
"124 513 OFFCURVE",
"79 304 CURVE SMOOTH",
"39 116 OFFCURVE",
"111 -10 OFFCURVE",
"308 -10 CURVE SMOOTH"
);
},
{
closed = 1;
nodes = (
"601 717 LINE",
"610 759 LINE",
"334 759 LINE",
"325 717 LINE"
);
}
);
width = 633;
}
);
leftKerningGroup = G;
note = Gmacron;
unicode = 1E20;
},
{
glyphname = H;
lastChange = "2015-10-24 21:17:54 +0000";
layers = (
{
layerId = "D3C4CEFB-873C-4437-A63B-85583903CC89";
name = "Light Italic";
paths = (
{
closed = 1;
nodes = (
"90 0 LINE",
"153 300 LINE",
"523 300 LINE",
"460 0 LINE",
"515 0 LINE",
"651 644 LINE",
"596 644 LINE",
"533 344 LINE",
"163 344 LINE",
"226 644 LINE",
"171 644 LINE",
"35 0 LINE"
);
}
);
width = 630;
}
);
note = H;
unicode = 0048;
},
{
glyphname = Hbar;
lastChange = "2015-10-24 21:18:01 +0000";
layers = (
{
layerId = "D3C4CEFB-873C-4437-A63B-85583903CC89";
name = "Light Italic";
paths = (
{
closed = 1;
nodes = (
"104 0 LINE",
"167 300 LINE",
"537 300 LINE",
"474 0 LINE",
"529 0 LINE",
"628 471 LINE",
"699 471 LINE",
"708 516 LINE",
"638 516 LINE",
"665 644 LINE",
"610 644 LINE",
"583 516 LINE",
"213 516 LINE",
"240 644 LINE",
"185 644 LINE",
"158 516 LINE",
"87 516 LINE",
"78 471 LINE",
"148 471 LINE",
"49 0 LINE"
);
},
{
closed = 1;
nodes = (
"203 471 LINE",
"573 471 LINE",
"547 344 LINE",
"177 344 LINE"
);
}
);
width = 671;
}
);
note = Hbar;
unicode = 0126;
},
{
glyphname = Hbrevebelow;
lastChange = "2015-11-24 09:51:24 +0000";
layers = (
{
layerId = "D3C4CEFB-873C-4437-A63B-85583903CC89";
name = "Light Italic";
paths = (
{
closed = 1;
nodes = (
"90 0 LINE",
"153 300 LINE",
"523 300 LINE",
"460 0 LINE",
"515 0 LINE",
"651 644 LINE",
"596 644 LINE",
"533 344 LINE",
"163 344 LINE",
"226 644 LINE",
"171 644 LINE",
"35 0 LINE"
);
},
{
closed = 1;
nodes = (
"317 -185 OFFCURVE",
"380 -144 OFFCURVE",
"399 -55 CURVE",
"356 -55 LINE",
"342 -120 OFFCURVE",
"296 -147 OFFCURVE",
"242 -147 CURVE SMOOTH",
"180 -147 OFFCURVE",
"154 -120 OFFCURVE",
"168 -55 CURVE",
"128 -55 LINE",
"109 -144 OFFCURVE",
"159 -185 OFFCURVE",
"236 -185 CURVE SMOOTH"
);
}
);
width = 630;
}
);
note = Hbrevebelow;
unicode = 1E2A;
},
{
glyphname = Hcircumflex;
lastChange = "2015-11-24 09:51:35 +0000";
layers = (
{
layerId = "D3C4CEFB-873C-4437-A63B-85583903CC89";
name = "Light Italic";
paths = (
{
closed = 1;
nodes = (
"90 0 LINE",
"153 300 LINE",
"523 300 LINE",
"460 0 LINE",
"515 0 LINE",
"651 644 LINE",
"596 644 LINE",
"533 344 LINE",
"163 344 LINE",
"226 644 LINE",
"171 644 LINE",
"35 0 LINE"
);
},
{
closed = 1;
nodes = (
"343 687 LINE",
"444 790 LINE",
"501 687 LINE",
"549 687 LINE",
"473 822 LINE",
"425 822 LINE",
"292 687 LINE"
);
}
);
width = 630;
}
);
note = Hcircumflex;
unicode = 0124;
},
{
glyphname = Hdotbelow;
lastChange = "2015-11-24 09:51:43 +0000";
layers = (
{
layerId = "D3C4CEFB-873C-4437-A63B-85583903CC89";
name = "Light Italic";
paths = (
{
closed = 1;
nodes = (
"90 0 LINE",
"153 300 LINE",
"523 300 LINE",
"460 0 LINE",
"515 0 LINE",
"651 644 LINE",
"596 644 LINE",
"533 344 LINE",
"163 344 LINE",
"226 644 LINE",
"171 644 LINE",
"35 0 LINE"
);
},
{
closed = 1;
nodes = (
"273 -152 LINE",
"285 -95 LINE",
"226 -95 LINE",
"214 -152 LINE"
);
}
);
width = 630;
}
);
note = Hdotbelow;
unicode = 1E24;
},
{
glyphname = I;
lastChange = "2015-10-24 21:17:54 +0000";
layers = (
{
layerId = "D3C4CEFB-873C-4437-A63B-85583903CC89";
name = "Light Italic";
paths = (
{
closed = 1;
nodes = (
"90 0 LINE",
"226 644 LINE",
"171 644 LINE",
"35 0 LINE"
);
}
);
width = 205;
}
);
note = I;
unicode = 0049;
},
{
glyphname = IJ;
lastChange = "2015-10-24 21:17:59 +0000";
layers = (
{
layerId = "D3C4CEFB-873C-4437-A63B-85583903CC89";
name = "Light Italic";
paths = (
{
closed = 1;
nodes = (
"437 -10 OFFCURVE",
"503 52 OFFCURVE",
"527 165 CURVE SMOOTH",
"628 644 LINE",
"573 644 LINE",
"472 168 LINE SMOOTH",
"453 77 OFFCURVE",
"400 37 OFFCURVE",
"308 37 CURVE SMOOTH",
"263 37 OFFCURVE",
"218 47 OFFCURVE",
"190 61 CURVE",
"180 13 LINE",
"210 0 OFFCURVE",
"252 -10 OFFCURVE",
"305 -10 CURVE SMOOTH"
);
},
{
closed = 1;
nodes = (
"90 0 LINE",
"226 644 LINE",
"171 644 LINE",
"35 0 LINE"
);
}
);
width = 602;
}
);
note = IJ;
unicode = 0132;
},
{
glyphname = Iacute;
lastChange = "2015-10-24 21:18:00 +0000";
layers = (
{
layerId = "D3C4CEFB-873C-4437-A63B-85583903CC89";
name = "Light Italic";
paths = (
{
closed = 1;
nodes = (
"90 0 LINE",
"226 644 LINE",
"171 644 LINE",
"35 0 LINE"
);
},
{
closed = 1;
nodes = (
"229 688 LINE",
"337 846 LINE",
"285 846 LINE",
"184 688 LINE"
);
}
);
width = 205;
}
);
note = Iacute;
unicode = 00CD;
},
{
glyphname = Ibreve;
lastChange = "2015-10-24 21:18:01 +0000";
layers = (
{
layerId = "D3C4CEFB-873C-4437-A63B-85583903CC89";
name = "Light Italic";
paths = (
{
closed = 1;
nodes = (
"90 0 LINE",
"226 644 LINE",
"171 644 LINE",
"35 0 LINE"
);
},
{
closed = 1;
nodes = (
"281 691 OFFCURVE",
"330 738 OFFCURVE",
"344 802 CURVE",
"300 802 LINE",
"290 756 OFFCURVE",
"256 730 OFFCURVE",
"214 730 CURVE SMOOTH",
"166 730 OFFCURVE",
"151 756 OFFCURVE",
"161 802 CURVE",
"121 802 LINE",
"107 738 OFFCURVE",
"140 691 OFFCURVE",
"208 691 CURVE SMOOTH"
);
}
);
width = 205;
}
);
note = Ibreve;
unicode = 012C;
},
{
glyphname = Icaron;
lastChange = "2015-10-24 21:18:00 +0000";
layers = (
{
layerId = "D3C4CEFB-873C-4437-A63B-85583903CC89";
name = "Light Italic";
paths = (
{
closed = 1;
nodes = (
"90 0 LINE",
"226 644 LINE",
"171 644 LINE",
"35 0 LINE"
);
},
{
closed = 1;
nodes = (
"231 687 LINE",
"365 822 LINE",
"313 822 LINE",
"212 719 LINE",
"155 822 LINE",
"108 822 LINE",
"183 687 LINE"
);
}
);
width = 205;
}
);
note = Icaron;
unicode = 01CF;
},
{
glyphname = Icircumflex;
lastChange = "2015-10-24 21:18:01 +0000";
layers = (
{
layerId = "D3C4CEFB-873C-4437-A63B-85583903CC89";
name = "Light Italic";
paths = (
{
closed = 1;
nodes = (
"90 0 LINE",
"226 644 LINE",
"171 644 LINE",
"35 0 LINE"
);
},
{
closed = 1;
nodes = (
"130 687 LINE",
"231 790 LINE",
"288 687 LINE",
"336 687 LINE",
"260 822 LINE",
"212 822 LINE",
"79 687 LINE"
);
}
);
width = 205;
}
);
note = Icircumflex;
unicode = 00CE;
},
{
glyphname = Idieresis;
lastChange = "2015-10-24 21:17:59 +0000";
layers = (
{
layerId = "D3C4CEFB-873C-4437-A63B-85583903CC89";
name = "Light Italic";
paths = (
{
closed = 1;
nodes = (
"90 0 LINE",
"226 644 LINE",
"171 644 LINE",
"35 0 LINE"
);
},
{
closed = 1;
nodes = (
"158 715 LINE",
"170 770 LINE",
"113 770 LINE",
"102 715 LINE"
);
},
{
closed = 1;
nodes = (
"324 715 LINE",
"336 770 LINE",
"280 770 LINE",
"268 715 LINE"
);
}
);
width = 205;
}
);
note = Idieresis;
unicode = 00CF;
},
{
glyphname = Idotaccent;
lastChange = "2015-10-24 21:17:59 +0000";
layers = (
{
layerId = "D3C4CEFB-873C-4437-A63B-85583903CC89";
name = "Light Italic";
paths = (
{
closed = 1;
nodes = (
"90 0 LINE",
"226 644 LINE",
"171 644 LINE",
"35 0 LINE"
);
},
{
closed = 1;
nodes = (
"242 715 LINE",
"254 771 LINE",
"197 771 LINE",
"185 715 LINE"
);
}
);
width = 205;
}
);
note = Idotaccent;
unicode = 0130;
},
{
glyphname = Idotbelow;
lastChange = "2015-10-24 21:18:01 +0000";
layers = (
{
layerId = "D3C4CEFB-873C-4437-A63B-85583903CC89";
name = "Light Italic";
paths = (
{
closed = 1;
nodes = (
"90 0 LINE",
"226 644 LINE",
"171 644 LINE",
"35 0 LINE"
);
},
{
closed = 1;
nodes = (
"60 -152 LINE",
"72 -95 LINE",
"13 -95 LINE",
"1 -152 LINE"
);
}
);
width = 205;
}
);
note = Idotbelow;
unicode = 1ECA;
},
{
glyphname = Igrave;
lastChange = "2015-10-24 21:18:01 +0000";
layers = (
{
layerId = "D3C4CEFB-873C-4437-A63B-85583903CC89";
name = "Light Italic";
paths = (
{
closed = 1;
nodes = (
"90 0 LINE",
"226 644 LINE",
"171 644 LINE",
"35 0 LINE"
);
},
{
closed = 1;
nodes = (
"231 688 LINE",
"198 846 LINE",
"146 846 LINE",
"186 688 LINE"
);
}
);
width = 205;
}
);
note = Igrave;
unicode = 00CC;
},
{
glyphname = Ihookabove;
lastChange = "2015-10-24 21:17:59 +0000";
layers = (
{
layerId = "D3C4CEFB-873C-4437-A63B-85583903CC89";
name = "Light Italic";
paths = (
{
closed = 1;
nodes = (
"90 0 LINE",
"226 644 LINE",
"171 644 LINE",
"35 0 LINE"
);
},
{
closed = 1;
nodes = (
"231 688 LINE",
"242 740 LINE",
"312 747 OFFCURVE",
"340 776 OFFCURVE",
"351 829 CURVE SMOOTH",
"363 885 OFFCURVE",
"330 917 OFFCURVE",
"254 917 CURVE SMOOTH",
"230 917 OFFCURVE",
"194 912 OFFCURVE",
"174 905 CURVE",
"166 867 LINE",
"185 874 OFFCURVE",
"215 879 OFFCURVE",
"236 879 CURVE SMOOTH",
"294 879 OFFCURVE",
"315 862 OFFCURVE",
"307 826 CURVE SMOOTH",
"299 788 OFFCURVE",
"282 771 OFFCURVE",
"201 767 CURVE",
"184 688 LINE"
);
}
);
width = 205;
}
);
note = Ihookabove;
unicode = 1EC8;
},
{
glyphname = Imacron;
lastChange = "2015-10-24 21:17:59 +0000";
layers = (
{
layerId = "D3C4CEFB-873C-4437-A63B-85583903CC89";
name = "Light Italic";
paths = (
{
closed = 1;
nodes = (
"90 0 LINE",
"226 644 LINE",
"171 644 LINE",
"35 0 LINE"
);
},
{
closed = 1;
nodes = (
"354 719 LINE",
"363 761 LINE",
"86 761 LINE",
"77 719 LINE"
);
}
);
width = 205;
}
);
note = Imacron;
unicode = 012A;
},
{
glyphname = Iogonek;
lastChange = "2015-10-24 21:17:55 +0000";
layers = (
{
layerId = "D3C4CEFB-873C-4437-A63B-85583903CC89";
name = "Light Italic";
paths = (
{
closed = 1;
nodes = (
"33 -220 OFFCURVE",
"57 -217 OFFCURVE",
"74 -209 CURVE",
"83 -168 LINE",
"69 -175 OFFCURVE",
"48 -179 OFFCURVE",
"31 -179 CURVE SMOOTH",
"-6 -179 OFFCURVE",
"-19 -165 OFFCURVE",
"-11 -128 CURVE SMOOTH",
"-1 -83 OFFCURVE",
"33 -37 OFFCURVE",
"90 0 CURVE",
"226 644 LINE",
"171 644 LINE",
"35 0 LINE",
"-4 -29 OFFCURVE",
"-48 -80 OFFCURVE",
"-59 -134 CURVE SMOOTH",
"-72 -197 OFFCURVE",
"-37 -220 OFFCURVE",
"14 -220 CURVE SMOOTH"
);
}
);
width = 205;
}
);
note = Iogonek;
unicode = 012E;
},
{
glyphname = Itilde;
lastChange = "2015-10-24 21:18:01 +0000";
layers = (
{
layerId = "D3C4CEFB-873C-4437-A63B-85583903CC89";
name = "Light Italic";
paths = (
{
closed = 1;
nodes = (
"90 0 LINE",
"226 644 LINE",
"171 644 LINE",
"35 0 LINE"
);
},
{
closed = 1;
nodes = (
"311 690 OFFCURVE",
"340 701 OFFCURVE",
"356 719 CURVE",
"366 766 LINE",
"343 741 OFFCURVE",
"318 731 OFFCURVE",
"286 731 CURVE SMOOTH",
"240 731 OFFCURVE",
"214 768 OFFCURVE",
"162 768 CURVE SMOOTH",
"132 768 OFFCURVE",
"97 757 OFFCURVE",
"78 739 CURVE",
"68 692 LINE",
"95 719 OFFCURVE",
"124 727 OFFCURVE",
"154 727 CURVE SMOOTH",
"194 727 OFFCURVE",
"230 690 OFFCURVE",
"279 690 CURVE SMOOTH"
);
}
);
width = 205;
}
);
note = Itilde;
unicode = 0128;
},
{
glyphname = J;
lastChange = "2015-10-24 21:17:55 +0000";
layers = (
{
layerId = "D3C4CEFB-873C-4437-A63B-85583903CC89";
name = "Light Italic";
paths = (
{
closed = 1;
nodes = (
"254 -10 OFFCURVE",
"320 52 OFFCURVE",
"344 165 CURVE SMOOTH",
"445 644 LINE",
"390 644 LINE",
"289 168 LINE SMOOTH",
"270 77 OFFCURVE",
"217 37 OFFCURVE",
"125 37 CURVE SMOOTH",
"80 37 OFFCURVE",
"35 47 OFFCURVE",
"7 61 CURVE",
"-3 13 LINE",
"27 0 OFFCURVE",
"69 -10 OFFCURVE",
"122 -10 CURVE SMOOTH"
);
}
);
width = 419;
}
);
note = J;
unicode = 004A;
},
{
glyphname = Jcircumflex;
lastChange = "2015-10-24 21:18:01 +0000";
layers = (
{
layerId = "D3C4CEFB-873C-4437-A63B-85583903CC89";
name = "Light Italic";
paths = (
{
closed = 1;
nodes = (
"254 -10 OFFCURVE",
"320 52 OFFCURVE",
"344 165 CURVE SMOOTH",
"445 644 LINE",
"390 644 LINE",
"289 168 LINE SMOOTH",
"270 77 OFFCURVE",
"217 37 OFFCURVE",
"125 37 CURVE SMOOTH",
"80 37 OFFCURVE",
"35 47 OFFCURVE",
"7 61 CURVE",
"-3 13 LINE",
"27 0 OFFCURVE",
"69 -10 OFFCURVE",
"122 -10 CURVE SMOOTH"
);
},
{
closed = 1;
nodes = (
"347 687 LINE",
"448 790 LINE",
"505 687 LINE",
"553 687 LINE",
"477 822 LINE",
"429 822 LINE",
"296 687 LINE"
);
}
);
width = 419;
}
);
note = Jcircumflex;
unicode = 0134;
},
{
glyphname = K;
lastChange = "2015-10-24 21:17:55 +0000";
layers = (
{
layerId = "D3C4CEFB-873C-4437-A63B-85583903CC89";
name = "Light Italic";
paths = (
{
closed = 1;
nodes = (
"90 0 LINE",
"139 231 LINE",
"279 352 LINE",
"430 0 LINE",
"490 0 LINE",
"321 388 LINE",
"620 644 LINE",
"553 644 LINE",
"154 302 LINE",
"226 644 LINE",
"171 644 LINE",
"35 0 LINE"
);
}
);
width = 585;
}
);
leftKerningGroup = K;
note = K;
rightKerningGroup = K;
unicode = 004B;
},
{
glyphname = Kcommaaccent;
lastChange = "2015-10-24 21:17:59 +0000";
layers = (
{
layerId = "D3C4CEFB-873C-4437-A63B-85583903CC89";
name = "Light Italic";
paths = (
{
closed = 1;
nodes = (
"90 0 LINE",
"139 231 LINE",
"279 352 LINE",
"430 0 LINE",
"490 0 LINE",
"321 388 LINE",
"620 644 LINE",
"553 644 LINE",
"154 302 LINE",
"226 644 LINE",
"171 644 LINE",
"35 0 LINE"
);
},
{
closed = 1;
nodes = (
"199 -202 LINE",
"272 -37 LINE",
"219 -37 LINE",
"158 -202 LINE"
);
}
);
width = 585;
}
);
leftKerningGroup = K;
note = Kcommaaccent;
rightKerningGroup = K;
unicode = 0136;
},
{
glyphname = L;
lastChange = "2015-10-24 21:17:55 +0000";
layers = (
{
layerId = "D3C4CEFB-873C-4437-A63B-85583903CC89";
name = "Light Italic";
paths = (
{
closed = 1;
nodes = (
"446 0 LINE",
"455 44 LINE",
"99 44 LINE",
"226 644 LINE",
"171 644 LINE",
"35 0 LINE"
);
}
);
width = 521;
}
);
note = L;
rightKerningGroup = L;
unicode = 004C;
},
{
glyphname = Lacute;
lastChange = "2015-10-24 21:18:01 +0000";
layers = (
{
layerId = "D3C4CEFB-873C-4437-A63B-85583903CC89";
name = "Light Italic";
paths = (
{
closed = 1;
nodes = (
"446 0 LINE",
"455 44 LINE",
"99 44 LINE",
"226 644 LINE",
"171 644 LINE",
"35 0 LINE"
);
},
{
closed = 1;
nodes = (
"228 688 LINE",
"336 846 LINE",
"284 846 LINE",
"183 688 LINE"
);
}
);
width = 521;
}
);
note = Lacute;
rightKerningGroup = L;
unicode = 0139;
},
{
glyphname = Lcaron;
lastChange = "2015-10-24 21:18:00 +0000";
layers = (
{
layerId = "D3C4CEFB-873C-4437-A63B-85583903CC89";
name = "Light Italic";
paths = (
{
closed = 1;
nodes = (
"446 0 LINE",
"455 44 LINE",
"99 44 LINE",
"226 644 LINE",
"171 644 LINE",
"35 0 LINE"
);
},
{
closed = 1;
nodes = (
"413 570 LINE",
"486 735 LINE",
"433 735 LINE",
"372 570 LINE"
);
}
);
width = 521;
}
);
note = Lcaron;
rightKerningGroup = L;
unicode = 013D;
},
{
glyphname = Lcommaaccent;
lastChange = "2015-10-24 21:17:59 +0000";
layers = (
{
layerId = "D3C4CEFB-873C-4437-A63B-85583903CC89";
name = "Light Italic";
paths = (
{
closed = 1;
nodes = (
"446 0 LINE",
"455 44 LINE",
"99 44 LINE",
"226 644 LINE",
"171 644 LINE",
"35 0 LINE"
);
},
{
closed = 1;
nodes = (
"183 -202 LINE",
"256 -37 LINE",
"203 -37 LINE",
"142 -202 LINE"
);
}
);
width = 521;
}
);
note = Lcommaaccent;
rightKerningGroup = L;
unicode = 013B;
},
{
glyphname = Ldot;
lastChange = "2015-11-24 09:52:10 +0000";
layers = (
{
layerId = "D3C4CEFB-873C-4437-A63B-85583903CC89";
name = "Light Italic";
paths = (
{
closed = 1;
nodes = (
"446 0 LINE",
"455 44 LINE",
"99 44 LINE",
"226 644 LINE",
"171 644 LINE",
"35 0 LINE"
);
},
{
closed = 1;
nodes = (
"369 258 LINE",
"381 315 LINE",
"322 315 LINE",
"310 258 LINE"
);
}
);
width = 521;
}
);
note = Ldot;
rightKerningGroup = L;
unicode = 013F;
},
{
glyphname = Ldotbelow;
lastChange = "2015-10-24 21:17:59 +0000";
layers = (
{
layerId = "D3C4CEFB-873C-4437-A63B-85583903CC89";
name = "Light Italic";
paths = (
{
closed = 1;
nodes = (
"446 0 LINE",
"455 44 LINE",
"99 44 LINE",
"226 644 LINE",
"171 644 LINE",
"35 0 LINE"
);
},
{
closed = 1;
nodes = (
"227 -152 LINE",
"239 -95 LINE",
"180 -95 LINE",
"168 -152 LINE"
);
}
);
width = 521;
}
);
note = Ldotbelow;
rightKerningGroup = L;
unicode = 1E36;
},
{
glyphname = Ldotbelowmacron;
lastChange = "2015-10-24 21:18:01 +0000";
layers = (
{
layerId = "D3C4CEFB-873C-4437-A63B-85583903CC89";
name = "Light Italic";
paths = (
{
closed = 1;
nodes = (
"460 0 LINE",
"469 44 LINE",
"113 44 LINE",
"240 644 LINE",
"185 644 LINE",
"49 0 LINE"
);
},
{
closed = 1;
nodes = (
"247 -152 LINE",
"259 -95 LINE",
"200 -95 LINE",
"188 -152 LINE"
);
},
{
closed = 1;
nodes = (
"388 717 LINE",
"397 759 LINE",
"121 759 LINE",
"112 717 LINE"
);
}
);
width = 535;
}
);
note = Ldotbelowmacron;
rightKerningGroup = L;
unicode = 1E38;
},
{
glyphname = Llinebelow;
lastChange = "2015-10-24 21:18:01 +0000";
layers = (
{
layerId = "D3C4CEFB-873C-4437-A63B-85583903CC89";
name = "Light Italic";
paths = (
{
closed = 1;
nodes = (
"446 0 LINE",
"455 44 LINE",
"99 44 LINE",
"226 644 LINE",
"171 644 LINE",
"35 0 LINE"
);
},
{
closed = 1;
nodes = (
"345 -117 LINE",
"354 -75 LINE",
"78 -75 LINE",
"69 -117 LINE"
);
}
);
width = 521;
}
);
note = Llinebelow;
rightKerningGroup = L;
unicode = 1E3A;
},
{
glyphname = Lslash;
lastChange = "2015-10-24 21:17:55 +0000";
layers = (
{
layerId = "D3C4CEFB-873C-4437-A63B-85583903CC89";
name = "Light Italic";
paths = (
{
closed = 1;
nodes = (
"470 0 LINE",
"479 44 LINE",
"122 44 LINE",
"179 316 LINE",
"347 383 LINE",
"357 431 LINE",
"189 364 LINE",
"249 644 LINE",
"194 644 LINE",
"129 340 LINE",
"23 297 LINE",
"12 249 LINE",
"119 292 LINE",
"58 0 LINE"
);
}
);
width = 545;
}
);
note = Lslash;
rightKerningGroup = L;
unicode = 0141;
},
{
glyphname = M;
lastChange = "2015-10-24 21:17:55 +0000";
layers = (
{
layerId = "D3C4CEFB-873C-4437-A63B-85583903CC89";
name = "Light Italic";
paths = (
{
closed = 1;
nodes = (
"89 0 LINE",
"208 564 LINE",
"334 112 LINE",
"377 112 LINE",
"694 564 LINE",
"575 0 LINE",
"629 0 LINE",
"765 644 LINE",
"698 644 LINE",
"364 167 LINE",
"232 644 LINE",
"171 644 LINE",
"35 0 LINE"
);
}
);
width = 744;
}
);
note = M;
unicode = 004D;
},
{
glyphname = Mdotbelow;
lastChange = "2015-10-24 21:17:59 +0000";
layers = (
{
layerId = "D3C4CEFB-873C-4437-A63B-85583903CC89";
name = "Light Italic";
paths = (
{
closed = 1;
nodes = (
"89 0 LINE",
"208 564 LINE",
"334 112 LINE",
"377 112 LINE",
"694 564 LINE",
"575 0 LINE",
"629 0 LINE",
"765 644 LINE",
"698 644 LINE",
"364 167 LINE",
"232 644 LINE",
"171 644 LINE",
"35 0 LINE"
);
},
{
closed = 1;
nodes = (
"330 -152 LINE",
"342 -95 LINE",
"283 -95 LINE",
"271 -152 LINE"
);
}
);
width = 744;
}
);
note = Mdotbelow;
unicode = 1E42;
},
{
glyphname = N;
lastChange = "2015-10-24 21:17:55 +0000";
layers = (
{
layerId = "D3C4CEFB-873C-4437-A63B-85583903CC89";
name = "Light Italic";
paths = (
{
closed = 1;
nodes = (
"90 0 LINE",
"209 561 LINE",
"488 0 LINE",
"541 0 LINE",
"677 644 LINE",
"622 644 LINE",
"503 82 LINE",
"223 644 LINE",
"171 644 LINE",
"35 0 LINE"
);
}
);
width = 656;
}
);
note = N;
unicode = 004E;
},
{
glyphname = Nacute;
lastChange = "2015-10-24 21:18:01 +0000";
layers = (
{
layerId = "D3C4CEFB-873C-4437-A63B-85583903CC89";
name = "Light Italic";
paths = (
{
closed = 1;
nodes = (
"90 0 LINE",
"209 561 LINE",
"488 0 LINE",
"541 0 LINE",
"677 644 LINE",
"622 644 LINE",
"503 82 LINE",
"223 644 LINE",
"171 644 LINE",
"35 0 LINE"
);
},
{
closed = 1;
nodes = (
"460 688 LINE",
"568 846 LINE",
"516 846 LINE",
"415 688 LINE"
);
}
);
width = 656;
}
);
note = Nacute;
unicode = 0143;
},
{
glyphname = Ncaron;
lastChange = "2015-10-24 21:17:59 +0000";
layers = (
{
layerId = "D3C4CEFB-873C-4437-A63B-85583903CC89";
name = "Light Italic";
paths = (
{
closed = 1;
nodes = (
"90 0 LINE",
"209 561 LINE",
"488 0 LINE",
"541 0 LINE",
"677 644 LINE",
"622 644 LINE",
"503 82 LINE",
"223 644 LINE",
"171 644 LINE",
"35 0 LINE"
);
},
{
closed = 1;
nodes = (
"477 687 LINE",
"611 822 LINE",
"559 822 LINE",
"458 719 LINE",
"401 822 LINE",
"354 822 LINE",
"429 687 LINE"
);
}
);
width = 656;
}
);
note = Ncaron;
unicode = 0147;
},
{
glyphname = Ncommaaccent;
lastChange = "2015-10-24 21:18:01 +0000";
layers = (
{
layerId = "D3C4CEFB-873C-4437-A63B-85583903CC89";
name = "Light Italic";
paths = (
{
closed = 1;
nodes = (
"90 0 LINE",
"209 561 LINE",
"488 0 LINE",
"541 0 LINE",
"677 644 LINE",
"622 644 LINE",
"503 82 LINE",
"223 644 LINE",
"171 644 LINE",
"35 0 LINE"
);
},
{
closed = 1;
nodes = (
"238 -202 LINE",
"311 -37 LINE",
"258 -37 LINE",
"197 -202 LINE"
);
}
);
width = 656;
}
);
note = Ncommaaccent;
unicode = 0145;
},
{
glyphname = Ndotaccent;
lastChange = "2015-10-24 21:18:00 +0000";
layers = (
{
layerId = "D3C4CEFB-873C-4437-A63B-85583903CC89";
name = "Light Italic";
paths = (
{
closed = 1;
nodes = (
"90 0 LINE",
"209 561 LINE",
"488 0 LINE",
"541 0 LINE",
"677 644 LINE",
"622 644 LINE",
"503 82 LINE",
"223 644 LINE",
"171 644 LINE",
"35 0 LINE"
);
},
{
closed = 1;
nodes = (
"483 714 LINE",
"495 770 LINE",
"438 770 LINE",
"426 714 LINE"
);
}
);
width = 656;
}
);
note = Ndotaccent;
unicode = 1E44;
},
{
glyphname = Ndotbelow;
lastChange = "2015-10-24 21:17:59 +0000";
layers = (
{
layerId = "D3C4CEFB-873C-4437-A63B-85583903CC89";
name = "Light Italic";
paths = (
{
closed = 1;
nodes = (
"90 0 LINE",
"209 561 LINE",
"488 0 LINE",
"541 0 LINE",
"677 644 LINE",
"622 644 LINE",
"503 82 LINE",
"223 644 LINE",
"171 644 LINE",
"35 0 LINE"
);
},
{
closed = 1;
nodes = (
"283 -152 LINE",
"295 -95 LINE",
"236 -95 LINE",
"224 -152 LINE"
);
}
);
width = 656;
}
);
note = Ndotbelow;
unicode = 1E46;
},
{
glyphname = Eng;
lastChange = "2015-10-24 21:17:55 +0000";
layers = (
{
layerId = "D3C4CEFB-873C-4437-A63B-85583903CC89";
name = "Light Italic";
paths = (
{
closed = 1;
nodes = (
"441 -234 OFFCURVE",
"501 -184 OFFCURVE",
"519 -102 CURVE SMOOTH",
"677 644 LINE",
"622 644 LINE",
"503 82 LINE",
"223 644 LINE",
"171 644 LINE",
"35 0 LINE",
"90 0 LINE",
"209 561 LINE",
"486 3 LINE",
"464 -99 LINE SMOOTH",
"452 -159 OFFCURVE",
"421 -187 OFFCURVE",
"347 -187 CURVE SMOOTH",
"331 -187 OFFCURVE",
"309 -184 OFFCURVE",
"288 -177 CURVE",
"278 -222 LINE",
"299 -230 OFFCURVE",
"327 -234 OFFCURVE",
"356 -234 CURVE SMOOTH"
);
}
);
width = 656;
}
);
note = Eng;
unicode = 014A;
},
{
glyphname = Nlinebelow;
lastChange = "2015-10-24 21:17:59 +0000";
layers = (
{
layerId = "D3C4CEFB-873C-4437-A63B-85583903CC89";
name = "Light Italic";
paths = (
{
closed = 1;
nodes = (
"90 0 LINE",
"209 561 LINE",
"488 0 LINE",
"541 0 LINE",
"677 644 LINE",
"622 644 LINE",
"503 82 LINE",
"223 644 LINE",
"171 644 LINE",
"35 0 LINE"
);
},
{
closed = 1;
nodes = (
"402 -116 LINE",
"411 -74 LINE",
"135 -74 LINE",
"126 -116 LINE"
);
}
);
width = 656;
}
);
note = Nlinebelow;
unicode = 1E48;
},
{
glyphname = Ntilde;
lastChange = "2015-10-24 21:17:59 +0000";
layers = (
{
layerId = "D3C4CEFB-873C-4437-A63B-85583903CC89";
name = "Light Italic";
paths = (
{
closed = 1;
nodes = (
"90 0 LINE",
"209 561 LINE",
"488 0 LINE",
"541 0 LINE",
"677 644 LINE",
"622 644 LINE",
"503 82 LINE",
"223 644 LINE",
"171 644 LINE",
"35 0 LINE"
);
},
{
closed = 1;
nodes = (
"542 713 OFFCURVE",
"571 724 OFFCURVE",
"587 742 CURVE",
"597 789 LINE",
"574 764 OFFCURVE",
"549 754 OFFCURVE",
"517 754 CURVE SMOOTH",
"471 754 OFFCURVE",
"445 791 OFFCURVE",
"393 791 CURVE SMOOTH",
"363 791 OFFCURVE",
"328 780 OFFCURVE",
"309 762 CURVE",
"299 715 LINE",
"326 742 OFFCURVE",
"355 750 OFFCURVE",
"385 750 CURVE SMOOTH",
"425 750 OFFCURVE",
"461 713 OFFCURVE",
"510 713 CURVE SMOOTH"
);
}
);
width = 656;
}
);
note = Ntilde;
unicode = 00D1;
},
{
glyphname = O;
lastChange = "2015-10-24 21:18:00 +0000";
layers = (
{
layerId = "D3C4CEFB-873C-4437-A63B-85583903CC89";
name = "Light Italic";
paths = (
{
closed = 1;
nodes = (
"507 -10 OFFCURVE",
"615 104 OFFCURVE",
"660 319 CURVE SMOOTH",
"709 549 OFFCURVE",
"638 654 OFFCURVE",
"443 654 CURVE SMOOTH",
"240 654 OFFCURVE",
"131 549 OFFCURVE",
"82 319 CURVE SMOOTH",
"37 104 OFFCURVE",
"109 -10 OFFCURVE",
"301 -10 CURVE SMOOTH"
);
},
{
closed = 1;
nodes = (
"141 37 OFFCURVE",
"95 124 OFFCURVE",
"136 319 CURVE SMOOTH",
"181 531 OFFCURVE",
"273 606 OFFCURVE",
"432 606 CURVE SMOOTH",
"602 606 OFFCURVE",
"650 531 OFFCURVE",
"605 319 CURVE SMOOTH",
"564 124 OFFCURVE",
"469 37 OFFCURVE",
"311 37 CURVE SMOOTH"
);
}
);
width = 688;
}
);
leftKerningGroup = O;
note = O;
rightKerningGroup = O;
unicode = 004F;
},
{
glyphname = Oacute;
lastChange = "2015-10-24 21:17:59 +0000";
layers = (
{
layerId = "D3C4CEFB-873C-4437-A63B-85583903CC89";
name = "Light Italic";
paths = (
{
closed = 1;
nodes = (
"507 -10 OFFCURVE",
"615 104 OFFCURVE",
"660 319 CURVE SMOOTH",
"709 549 OFFCURVE",
"638 654 OFFCURVE",
"443 654 CURVE SMOOTH",
"240 654 OFFCURVE",
"131 549 OFFCURVE",
"82 319 CURVE SMOOTH",
"37 104 OFFCURVE",
"109 -10 OFFCURVE",
"301 -10 CURVE SMOOTH"
);
},
{
closed = 1;
nodes = (
"141 37 OFFCURVE",
"95 124 OFFCURVE",
"136 319 CURVE SMOOTH",
"181 531 OFFCURVE",
"273 606 OFFCURVE",
"432 606 CURVE SMOOTH",
"602 606 OFFCURVE",
"650 531 OFFCURVE",
"605 319 CURVE SMOOTH",
"564 124 OFFCURVE",
"469 37 OFFCURVE",
"311 37 CURVE SMOOTH"
);
},
{
closed = 1;
nodes = (
"473 688 LINE",
"581 846 LINE",
"529 846 LINE",
"428 688 LINE"
);
}
);
width = 688;
}
);
leftKerningGroup = O;
note = Oacute;
rightKerningGroup = O;
unicode = 00D3;
},
{
glyphname = Obreve;
lastChange = "2015-10-24 21:18:01 +0000";
layers = (
{
layerId = "D3C4CEFB-873C-4437-A63B-85583903CC89";
name = "Light Italic";
paths = (
{
closed = 1;
nodes = (
"507 -10 OFFCURVE",
"615 104 OFFCURVE",
"660 319 CURVE SMOOTH",
"709 549 OFFCURVE",
"638 654 OFFCURVE",
"443 654 CURVE SMOOTH",
"240 654 OFFCURVE",
"131 549 OFFCURVE",
"82 319 CURVE SMOOTH",
"37 104 OFFCURVE",
"109 -10 OFFCURVE",
"301 -10 CURVE SMOOTH"
);
},
{
closed = 1;
nodes = (
"141 37 OFFCURVE",
"95 124 OFFCURVE",
"136 319 CURVE SMOOTH",
"181 531 OFFCURVE",
"273 606 OFFCURVE",
"432 606 CURVE SMOOTH",
"602 606 OFFCURVE",
"650 531 OFFCURVE",
"605 319 CURVE SMOOTH",
"564 124 OFFCURVE",
"469 37 OFFCURVE",
"311 37 CURVE SMOOTH"
);
},
{
closed = 1;
nodes = (
"522 687 OFFCURVE",
"571 734 OFFCURVE",
"585 798 CURVE",
"541 798 LINE",
"531 752 OFFCURVE",
"497 726 OFFCURVE",
"455 726 CURVE SMOOTH",
"407 726 OFFCURVE",
"392 752 OFFCURVE",
"402 798 CURVE",
"362 798 LINE",
"348 734 OFFCURVE",
"381 687 OFFCURVE",
"449 687 CURVE SMOOTH"
);
}
);
width = 688;
}
);
leftKerningGroup = O;
note = Obreve;
rightKerningGroup = O;
unicode = 014E;
},
{
glyphname = Ocaron;
lastChange = "2015-10-24 21:18:00 +0000";
layers = (
{
layerId = "D3C4CEFB-873C-4437-A63B-85583903CC89";
name = "Light Italic";
paths = (
{
closed = 1;
nodes = (
"507 -10 OFFCURVE",
"615 104 OFFCURVE",
"660 319 CURVE SMOOTH",
"709 549 OFFCURVE",
"638 654 OFFCURVE",
"443 654 CURVE SMOOTH",
"240 654 OFFCURVE",
"131 549 OFFCURVE",
"82 319 CURVE SMOOTH",
"37 104 OFFCURVE",
"109 -10 OFFCURVE",
"301 -10 CURVE SMOOTH"
);
},
{
closed = 1;
nodes = (
"141 37 OFFCURVE",
"95 124 OFFCURVE",
"136 319 CURVE SMOOTH",
"181 531 OFFCURVE",
"273 606 OFFCURVE",
"432 606 CURVE SMOOTH",
"602 606 OFFCURVE",
"650 531 OFFCURVE",
"605 319 CURVE SMOOTH",
"564 124 OFFCURVE",
"469 37 OFFCURVE",
"311 37 CURVE SMOOTH"
);
},
{
closed = 1;
nodes = (
"473 687 LINE",
"607 822 LINE",
"555 822 LINE",
"454 719 LINE",
"397 822 LINE",
"350 822 LINE",
"425 687 LINE"
);
}
);
width = 688;
}
);
leftKerningGroup = O;
note = Ocaron;
rightKerningGroup = O;
unicode = 01D1;
},
{
glyphname = Ocircumflex;
lastChange = "2015-10-24 21:17:59 +0000";
layers = (
{
layerId = "D3C4CEFB-873C-4437-A63B-85583903CC89";
name = "Light Italic";
paths = (
{
closed = 1;
nodes = (
"507 -10 OFFCURVE",
"615 104 OFFCURVE",
"660 319 CURVE SMOOTH",
"709 549 OFFCURVE",
"638 654 OFFCURVE",
"443 654 CURVE SMOOTH",
"240 654 OFFCURVE",
"131 549 OFFCURVE",
"82 319 CURVE SMOOTH",
"37 104 OFFCURVE",
"109 -10 OFFCURVE",
"301 -10 CURVE SMOOTH"
);
},
{
closed = 1;
nodes = (
"141 37 OFFCURVE",
"95 124 OFFCURVE",
"136 319 CURVE SMOOTH",
"181 531 OFFCURVE",
"273 606 OFFCURVE",
"432 606 CURVE SMOOTH",
"602 606 OFFCURVE",
"650 531 OFFCURVE",
"605 319 CURVE SMOOTH",
"564 124 OFFCURVE",
"469 37 OFFCURVE",
"311 37 CURVE SMOOTH"
);
},
{
closed = 1;
nodes = (
"372 687 LINE",
"473 790 LINE",
"530 687 LINE",
"578 687 LINE",
"502 822 LINE",
"454 822 LINE",
"321 687 LINE"
);
}
);
width = 688;
}
);
leftKerningGroup = O;
note = Ocircumflex;
rightKerningGroup = O;
unicode = 00D4;
},
{
glyphname = Ocircumflexacute;
lastChange = "2015-10-24 21:18:00 +0000";
layers = (
{
layerId = "D3C4CEFB-873C-4437-A63B-85583903CC89";
name = "Light Italic";
paths = (
{
closed = 1;
nodes = (
"507 -10 OFFCURVE",
"615 104 OFFCURVE",
"660 319 CURVE SMOOTH",
"709 549 OFFCURVE",
"638 654 OFFCURVE",
"443 654 CURVE SMOOTH",
"240 654 OFFCURVE",
"131 549 OFFCURVE",
"82 319 CURVE SMOOTH",
"37 104 OFFCURVE",
"109 -10 OFFCURVE",
"301 -10 CURVE SMOOTH"
);
},
{
closed = 1;
nodes = (
"141 37 OFFCURVE",
"95 124 OFFCURVE",
"136 319 CURVE SMOOTH",
"181 531 OFFCURVE",
"273 606 OFFCURVE",
"432 606 CURVE SMOOTH",
"602 606 OFFCURVE",
"650 531 OFFCURVE",
"605 319 CURVE SMOOTH",
"564 124 OFFCURVE",
"469 37 OFFCURVE",
"311 37 CURVE SMOOTH"
);
},
{
closed = 1;
nodes = (
"380 687 LINE",
"476 772 LINE",
"536 687 LINE",
"582 687 LINE",
"502 797 LINE",
"454 797 LINE",
"328 687 LINE"
);
},
{
closed = 1;
nodes = (
"587 793 LINE",
"677 910 LINE",
"631 910 LINE",
"546 793 LINE"
);
}
);
width = 688;
}
);
leftKerningGroup = O;
note = Ocircumflexacute;
rightKerningGroup = O;
unicode = 1ED0;
},
{
glyphname = Ocircumflexdotbelow;
lastChange = "2015-11-24 09:52:26 +0000";
layers = (
{
layerId = "D3C4CEFB-873C-4437-A63B-85583903CC89";
name = "Light Italic";
paths = (
{
closed = 1;
nodes = (
"507 -10 OFFCURVE",
"615 104 OFFCURVE",
"660 319 CURVE SMOOTH",
"709 549 OFFCURVE",
"638 654 OFFCURVE",
"443 654 CURVE SMOOTH",
"240 654 OFFCURVE",
"131 549 OFFCURVE",
"82 319 CURVE SMOOTH",
"37 104 OFFCURVE",
"109 -10 OFFCURVE",
"301 -10 CURVE SMOOTH"
);
},
{
closed = 1;
nodes = (
"141 37 OFFCURVE",
"95 124 OFFCURVE",
"136 319 CURVE SMOOTH",
"181 531 OFFCURVE",
"273 606 OFFCURVE",
"432 606 CURVE SMOOTH",
"602 606 OFFCURVE",
"650 531 OFFCURVE",
"605 319 CURVE SMOOTH",
"564 124 OFFCURVE",
"469 37 OFFCURVE",
"311 37 CURVE SMOOTH"
);
},
{
closed = 1;
nodes = (
"302 -152 LINE",
"314 -95 LINE",
"255 -95 LINE",
"243 -152 LINE"
);
},
{
closed = 1;
nodes = (
"374 697 LINE",
"475 800 LINE",
"532 697 LINE",
"580 697 LINE",
"504 832 LINE",
"456 832 LINE",
"323 697 LINE"
);
}
);
width = 688;
}
);
leftKerningGroup = O;
note = Ocircumflexdotbelow;
rightKerningGroup = O;
unicode = 1ED8;
},
{
glyphname = Ocircumflexgrave;
lastChange = "2015-10-24 21:18:01 +0000";
layers = (
{
layerId = "D3C4CEFB-873C-4437-A63B-85583903CC89";
name = "Light Italic";
paths = (
{
closed = 1;
nodes = (
"507 -10 OFFCURVE",
"615 104 OFFCURVE",
"660 319 CURVE SMOOTH",
"709 549 OFFCURVE",
"638 654 OFFCURVE",
"443 654 CURVE SMOOTH",
"240 654 OFFCURVE",
"131 549 OFFCURVE",
"82 319 CURVE SMOOTH",
"37 104 OFFCURVE",
"109 -10 OFFCURVE",
"301 -10 CURVE SMOOTH"
);
},
{
closed = 1;
nodes = (
"141 37 OFFCURVE",
"95 124 OFFCURVE",
"136 319 CURVE SMOOTH",
"181 531 OFFCURVE",
"273 606 OFFCURVE",
"432 606 CURVE SMOOTH",
"602 606 OFFCURVE",
"650 531 OFFCURVE",
"605 319 CURVE SMOOTH",
"564 124 OFFCURVE",
"469 37 OFFCURVE",
"311 37 CURVE SMOOTH"
);
},
{
closed = 1;
nodes = (
"370 687 LINE",
"466 772 LINE",
"526 687 LINE",
"572 687 LINE",
"492 797 LINE",
"444 797 LINE",
"318 687 LINE"
);
},
{
closed = 1;
nodes = (
"397 793 LINE",
"363 910 LINE",
"316 910 LINE",
"357 793 LINE"
);
}
);
width = 688;
}
);
leftKerningGroup = O;
note = Ocircumflexgrave;
rightKerningGroup = O;
unicode = 1ED2;
},
{
glyphname = Ocircumflexhookabove;
lastChange = "2015-10-24 21:18:01 +0000";
layers = (
{
layerId = "D3C4CEFB-873C-4437-A63B-85583903CC89";
name = "Light Italic";
paths = (
{
closed = 1;
nodes = (
"507 -10 OFFCURVE",
"615 104 OFFCURVE",
"660 319 CURVE SMOOTH",
"709 549 OFFCURVE",
"638 654 OFFCURVE",
"443 654 CURVE SMOOTH",
"240 654 OFFCURVE",
"131 549 OFFCURVE",
"82 319 CURVE SMOOTH",
"37 104 OFFCURVE",
"109 -10 OFFCURVE",
"301 -10 CURVE SMOOTH"
);
},
{
closed = 1;
nodes = (
"141 37 OFFCURVE",
"95 124 OFFCURVE",
"136 319 CURVE SMOOTH",
"181 531 OFFCURVE",
"273 606 OFFCURVE",
"432 606 CURVE SMOOTH",
"602 606 OFFCURVE",
"650 531 OFFCURVE",
"605 319 CURVE SMOOTH",
"564 124 OFFCURVE",
"469 37 OFFCURVE",
"311 37 CURVE SMOOTH"
);
},
{
closed = 1;
nodes = (
"376 687 LINE",
"471 772 LINE",
"531 687 LINE",
"577 687 LINE",
"497 797 LINE",
"449 797 LINE",
"323 687 LINE"
);
},
{
closed = 1;
nodes = (
"590 772 LINE",
"598 808 LINE",
"654 814 OFFCURVE",
"683 837 OFFCURVE",
"692 879 CURVE SMOOTH",
"701 925 OFFCURVE",
"674 951 OFFCURVE",
"619 951 CURVE SMOOTH",
"593 951 OFFCURVE",
"570 946 OFFCURVE",
"551 939 CURVE",
"544 905 LINE",
"563 913 OFFCURVE",
"582 918 OFFCURVE",
"605 918 CURVE SMOOTH",
"641 918 OFFCURVE",
"655 904 OFFCURVE",
"649 877 CURVE SMOOTH",
"643 849 OFFCURVE",
"627 835 OFFCURVE",
"557 831 CURVE",
"545 772 LINE"
);
}
);
width = 688;
}
);
leftKerningGroup = O;
note = Ocircumflexhookabove;
rightKerningGroup = O;
unicode = 1ED4;
},
{
glyphname = Ocircumflextilde;
lastChange = "2015-10-24 21:18:00 +0000";
layers = (
{
layerId = "D3C4CEFB-873C-4437-A63B-85583903CC89";
name = "Light Italic";
paths = (
{
closed = 1;
nodes = (
"507 -10 OFFCURVE",
"615 104 OFFCURVE",
"660 319 CURVE SMOOTH",
"709 549 OFFCURVE",
"638 654 OFFCURVE",
"443 654 CURVE SMOOTH",
"240 654 OFFCURVE",
"131 549 OFFCURVE",
"82 319 CURVE SMOOTH",
"37 104 OFFCURVE",
"109 -10 OFFCURVE",
"301 -10 CURVE SMOOTH"
);
},
{
closed = 1;
nodes = (
"141 37 OFFCURVE",
"95 124 OFFCURVE",
"136 319 CURVE SMOOTH",
"181 531 OFFCURVE",
"273 606 OFFCURVE",
"432 606 CURVE SMOOTH",
"602 606 OFFCURVE",
"650 531 OFFCURVE",
"605 319 CURVE SMOOTH",
"564 124 OFFCURVE",
"469 37 OFFCURVE",
"311 37 CURVE SMOOTH"
);
},
{
closed = 1;
nodes = (
"524 688 OFFCURVE",
"596 723 OFFCURVE",
"617 820 CURVE",
"576 820 LINE",
"562 754 OFFCURVE",
"514 724 OFFCURVE",
"455 724 CURVE SMOOTH",
"386 724 OFFCURVE",
"362 754 OFFCURVE",
"376 820 CURVE",
"340 820 LINE",
"319 723 OFFCURVE",
"378 688 OFFCURVE",
"451 688 CURVE SMOOTH"
);
},
{
closed = 1;
nodes = (
"577 848 OFFCURVE",
"606 858 OFFCURVE",
"623 875 CURVE",
"633 919 LINE",
"607 894 OFFCURVE",
"583 886 OFFCURVE",
"554 886 CURVE SMOOTH",
"510 886 OFFCURVE",
"489 920 OFFCURVE",
"439 920 CURVE SMOOTH",
"411 920 OFFCURVE",
"380 910 OFFCURVE",
"360 893 CURVE",
"351 850 LINE",
"378 875 OFFCURVE",
"404 882 OFFCURVE",
"433 882 CURVE SMOOTH",
"471 882 OFFCURVE",
"500 848 OFFCURVE",
"547 848 CURVE SMOOTH"
);
}
);
width = 688;
}
);
leftKerningGroup = O;
note = Ocircumflextilde;
rightKerningGroup = O;
unicode = 1ED6;
},
{
glyphname = Odieresis;
lastChange = "2015-10-24 21:17:59 +0000";
layers = (
{
layerId = "D3C4CEFB-873C-4437-A63B-85583903CC89";
name = "Light Italic";
paths = (
{
closed = 1;
nodes = (
"507 -10 OFFCURVE",
"615 104 OFFCURVE",
"660 319 CURVE SMOOTH",
"709 549 OFFCURVE",
"638 654 OFFCURVE",
"443 654 CURVE SMOOTH",
"240 654 OFFCURVE",
"131 549 OFFCURVE",
"82 319 CURVE SMOOTH",
"37 104 OFFCURVE",
"109 -10 OFFCURVE",
"301 -10 CURVE SMOOTH"
);
},
{
closed = 1;
nodes = (
"141 37 OFFCURVE",
"95 124 OFFCURVE",
"136 319 CURVE SMOOTH",
"181 531 OFFCURVE",
"273 606 OFFCURVE",
"432 606 CURVE SMOOTH",
"602 606 OFFCURVE",
"650 531 OFFCURVE",
"605 319 CURVE SMOOTH",
"564 124 OFFCURVE",
"469 37 OFFCURVE",
"311 37 CURVE SMOOTH"
);
},
{
closed = 1;
nodes = (
"401 714 LINE",
"413 769 LINE",
"356 769 LINE",
"345 714 LINE"
);
},
{
closed = 1;
nodes = (
"567 714 LINE",
"579 769 LINE",
"523 769 LINE",
"511 714 LINE"
);
}
);
width = 688;
}
);
leftKerningGroup = O;
note = Odieresis;
rightKerningGroup = O;
unicode = 00D6;
},
{
glyphname = Odotbelow;
lastChange = "2015-11-24 09:52:31 +0000";
layers = (
{
layerId = "D3C4CEFB-873C-4437-A63B-85583903CC89";
name = "Light Italic";
paths = (
{
closed = 1;
nodes = (
"507 -10 OFFCURVE",
"615 104 OFFCURVE",
"660 319 CURVE SMOOTH",
"709 549 OFFCURVE",
"638 654 OFFCURVE",
"443 654 CURVE SMOOTH",
"240 654 OFFCURVE",
"131 549 OFFCURVE",
"82 319 CURVE SMOOTH",
"37 104 OFFCURVE",
"109 -10 OFFCURVE",
"301 -10 CURVE SMOOTH"
);
},
{
closed = 1;
nodes = (
"141 37 OFFCURVE",
"95 124 OFFCURVE",
"136 319 CURVE SMOOTH",
"181 531 OFFCURVE",
"273 606 OFFCURVE",
"432 606 CURVE SMOOTH",
"602 606 OFFCURVE",
"650 531 OFFCURVE",
"605 319 CURVE SMOOTH",
"564 124 OFFCURVE",
"469 37 OFFCURVE",
"311 37 CURVE SMOOTH"
);
},
{
closed = 1;
nodes = (
"301 -152 LINE",
"313 -95 LINE",
"254 -95 LINE",
"242 -152 LINE"
);
}
);
width = 688;
}
);
leftKerningGroup = O;
note = Odotbelow;
rightKerningGroup = O;
unicode = 1ECC;
},
{
glyphname = Ograve;
lastChange = "2015-10-24 21:18:00 +0000";
layers = (
{
layerId = "D3C4CEFB-873C-4437-A63B-85583903CC89";
name = "Light Italic";
paths = (
{
closed = 1;
nodes = (
"507 -10 OFFCURVE",
"615 104 OFFCURVE",
"660 319 CURVE SMOOTH",
"709 549 OFFCURVE",
"638 654 OFFCURVE",
"443 654 CURVE SMOOTH",
"240 654 OFFCURVE",
"131 549 OFFCURVE",
"82 319 CURVE SMOOTH",
"37 104 OFFCURVE",
"109 -10 OFFCURVE",
"301 -10 CURVE SMOOTH"
);
},
{
closed = 1;
nodes = (
"141 37 OFFCURVE",
"95 124 OFFCURVE",
"136 319 CURVE SMOOTH",
"181 531 OFFCURVE",
"273 606 OFFCURVE",
"432 606 CURVE SMOOTH",
"602 606 OFFCURVE",
"650 531 OFFCURVE",
"605 319 CURVE SMOOTH",
"564 124 OFFCURVE",
"469 37 OFFCURVE",
"311 37 CURVE SMOOTH"
);
},
{
closed = 1;
nodes = (
"478 688 LINE",
"445 846 LINE",
"393 846 LINE",
"433 688 LINE"
);
}
);
width = 688;
}
);
leftKerningGroup = O;
note = Ograve;
rightKerningGroup = O;
unicode = 00D2;
},
{
glyphname = Ohookabove;
lastChange = "2015-10-24 21:18:01 +0000";
layers = (
{
layerId = "D3C4CEFB-873C-4437-A63B-85583903CC89";
name = "Light Italic";
paths = (
{
closed = 1;
nodes = (
"507 -10 OFFCURVE",
"615 104 OFFCURVE",
"660 319 CURVE SMOOTH",
"709 549 OFFCURVE",
"638 654 OFFCURVE",
"443 654 CURVE SMOOTH",
"240 654 OFFCURVE",
"131 549 OFFCURVE",
"82 319 CURVE SMOOTH",
"37 104 OFFCURVE",
"109 -10 OFFCURVE",
"301 -10 CURVE SMOOTH"
);
},
{
closed = 1;
nodes = (
"141 37 OFFCURVE",
"95 124 OFFCURVE",
"136 319 CURVE SMOOTH",
"181 531 OFFCURVE",
"273 606 OFFCURVE",
"432 606 CURVE SMOOTH",
"602 606 OFFCURVE",
"650 531 OFFCURVE",
"605 319 CURVE SMOOTH",
"564 124 OFFCURVE",
"469 37 OFFCURVE",
"311 37 CURVE SMOOTH"
);
},
{
closed = 1;
nodes = (
"476 688 LINE",
"487 740 LINE",
"557 747 OFFCURVE",
"585 776 OFFCURVE",
"596 829 CURVE SMOOTH",
"608 885 OFFCURVE",
"575 917 OFFCURVE",
"499 917 CURVE SMOOTH",
"475 917 OFFCURVE",
"439 912 OFFCURVE",
"419 905 CURVE",
"411 867 LINE",
"430 874 OFFCURVE",
"460 879 OFFCURVE",
"481 879 CURVE SMOOTH",
"539 879 OFFCURVE",
"560 862 OFFCURVE",
"552 826 CURVE SMOOTH",
"544 788 OFFCURVE",
"527 771 OFFCURVE",
"446 767 CURVE",
"429 688 LINE"
);
}
);
width = 688;
}
);
leftKerningGroup = O;
note = Ohookabove;
rightKerningGroup = O;
unicode = 1ECE;
},
{
glyphname = Ohorn;
lastChange = "2015-10-24 21:17:59 +0000";
layers = (
{
layerId = "D3C4CEFB-873C-4437-A63B-85583903CC89";
name = "Light Italic";
paths = (
{
closed = 1;
nodes = (
"507 -10 OFFCURVE",
"615 104 OFFCURVE",
"660 319 CURVE SMOOTH",
"678 403 OFFCURVE",
"680 470 OFFCURVE",
"665 522 CURVE",
"750 530 OFFCURVE",
"805 571 OFFCURVE",
"830 688 CURVE",
"782 688 LINE",
"762 595 OFFCURVE",
"728 567 OFFCURVE",
"647 566 CURVE",
"612 625 OFFCURVE",
"544 654 OFFCURVE",
"443 654 CURVE SMOOTH",
"240 654 OFFCURVE",
"131 549 OFFCURVE",
"82 319 CURVE SMOOTH",
"37 104 OFFCURVE",
"109 -10 OFFCURVE",
"301 -10 CURVE SMOOTH"
);
},
{
closed = 1;
nodes = (
"141 37 OFFCURVE",
"95 124 OFFCURVE",
"136 319 CURVE SMOOTH",
"181 531 OFFCURVE",
"273 606 OFFCURVE",
"432 606 CURVE SMOOTH",
"602 606 OFFCURVE",
"650 531 OFFCURVE",
"605 319 CURVE SMOOTH",
"564 124 OFFCURVE",
"469 37 OFFCURVE",
"311 37 CURVE SMOOTH"
);
}
);
width = 749;
}
);
leftKerningGroup = O;
note = Ohorn;
rightKerningGroup = O;
unicode = 01A0;
},
{
glyphname = Ohornacute;
lastChange = "2015-10-24 21:18:00 +0000";
layers = (
{
layerId = "D3C4CEFB-873C-4437-A63B-85583903CC89";
name = "Light Italic";
paths = (
{
closed = 1;
nodes = (
"507 -10 OFFCURVE",
"615 104 OFFCURVE",
"660 319 CURVE SMOOTH",
"678 403 OFFCURVE",
"680 470 OFFCURVE",
"665 522 CURVE",
"750 530 OFFCURVE",
"805 571 OFFCURVE",
"830 688 CURVE",
"782 688 LINE",
"762 595 OFFCURVE",
"728 567 OFFCURVE",
"647 566 CURVE",
"612 625 OFFCURVE",
"544 654 OFFCURVE",
"443 654 CURVE SMOOTH",
"240 654 OFFCURVE",
"131 549 OFFCURVE",
"82 319 CURVE SMOOTH",
"37 104 OFFCURVE",
"109 -10 OFFCURVE",
"301 -10 CURVE SMOOTH"
);
},
{
closed = 1;
nodes = (
"141 37 OFFCURVE",
"95 124 OFFCURVE",
"136 319 CURVE SMOOTH",
"181 531 OFFCURVE",
"273 606 OFFCURVE",
"432 606 CURVE SMOOTH",
"602 606 OFFCURVE",
"650 531 OFFCURVE",
"605 319 CURVE SMOOTH",
"564 124 OFFCURVE",
"469 37 OFFCURVE",
"311 37 CURVE SMOOTH"
);
},
{
closed = 1;
nodes = (
"484 688 LINE",
"592 846 LINE",
"540 846 LINE",
"439 688 LINE"
);
}
);
width = 749;
}
);
leftKerningGroup = O;
note = Ohornacute;
rightKerningGroup = O;
unicode = 1EDA;
},
{
glyphname = Ohorndotbelow;
lastChange = "2015-11-24 09:52:39 +0000";
layers = (
{
layerId = "D3C4CEFB-873C-4437-A63B-85583903CC89";
name = "Light Italic";
paths = (
{
closed = 1;
nodes = (
"507 -10 OFFCURVE",
"615 104 OFFCURVE",
"660 319 CURVE SMOOTH",
"678 403 OFFCURVE",
"680 470 OFFCURVE",
"665 522 CURVE",
"750 530 OFFCURVE",
"805 571 OFFCURVE",
"830 688 CURVE",
"782 688 LINE",
"762 595 OFFCURVE",
"728 567 OFFCURVE",
"647 566 CURVE",
"612 625 OFFCURVE",
"544 654 OFFCURVE",
"443 654 CURVE SMOOTH",
"240 654 OFFCURVE",
"131 549 OFFCURVE",
"82 319 CURVE SMOOTH",
"37 104 OFFCURVE",
"109 -10 OFFCURVE",
"301 -10 CURVE SMOOTH"
);
},
{
closed = 1;
nodes = (
"141 37 OFFCURVE",
"95 124 OFFCURVE",
"136 319 CURVE SMOOTH",
"181 531 OFFCURVE",
"273 606 OFFCURVE",
"432 606 CURVE SMOOTH",
"602 606 OFFCURVE",
"650 531 OFFCURVE",
"605 319 CURVE SMOOTH",
"564 124 OFFCURVE",
"469 37 OFFCURVE",
"311 37 CURVE SMOOTH"
);
},
{
closed = 1;
nodes = (
"305 -152 LINE",
"317 -95 LINE",
"258 -95 LINE",
"246 -152 LINE"
);
}
);
width = 749;
}
);
leftKerningGroup = O;
note = Ohorndotbelow;
rightKerningGroup = O;
unicode = 1EE2;
},
{
glyphname = Ohorngrave;
lastChange = "2015-10-24 21:18:00 +0000";
layers = (
{
layerId = "D3C4CEFB-873C-4437-A63B-85583903CC89";
name = "Light Italic";
paths = (
{
closed = 1;
nodes = (
"507 -10 OFFCURVE",
"615 104 OFFCURVE",
"660 319 CURVE SMOOTH",
"678 403 OFFCURVE",
"680 470 OFFCURVE",
"665 522 CURVE",
"750 530 OFFCURVE",
"805 571 OFFCURVE",
"830 688 CURVE",
"782 688 LINE",
"762 595 OFFCURVE",
"728 567 OFFCURVE",
"647 566 CURVE",
"612 625 OFFCURVE",
"544 654 OFFCURVE",
"443 654 CURVE SMOOTH",
"240 654 OFFCURVE",
"131 549 OFFCURVE",
"82 319 CURVE SMOOTH",
"37 104 OFFCURVE",
"109 -10 OFFCURVE",
"301 -10 CURVE SMOOTH"
);
},
{
closed = 1;
nodes = (
"141 37 OFFCURVE",
"95 124 OFFCURVE",
"136 319 CURVE SMOOTH",
"181 531 OFFCURVE",
"273 606 OFFCURVE",
"432 606 CURVE SMOOTH",
"602 606 OFFCURVE",
"650 531 OFFCURVE",
"605 319 CURVE SMOOTH",
"564 124 OFFCURVE",
"469 37 OFFCURVE",
"311 37 CURVE SMOOTH"
);
},
{
closed = 1;
nodes = (
"496 688 LINE",
"463 846 LINE",
"411 846 LINE",
"451 688 LINE"
);
}
);
width = 749;
}
);
leftKerningGroup = O;
note = Ohorngrave;
rightKerningGroup = O;
unicode = 1EDC;
},
{
glyphname = Ohornhookabove;
lastChange = "2015-10-24 21:18:00 +0000";
layers = (
{
layerId = "D3C4CEFB-873C-4437-A63B-85583903CC89";
name = "Light Italic";
paths = (
{
closed = 1;
nodes = (
"507 -10 OFFCURVE",
"615 104 OFFCURVE",
"660 319 CURVE SMOOTH",
"678 403 OFFCURVE",
"680 470 OFFCURVE",
"665 522 CURVE",
"750 530 OFFCURVE",
"805 571 OFFCURVE",
"830 688 CURVE",
"782 688 LINE",
"762 595 OFFCURVE",
"728 567 OFFCURVE",
"647 566 CURVE",
"612 625 OFFCURVE",
"544 654 OFFCURVE",
"443 654 CURVE SMOOTH",
"240 654 OFFCURVE",
"131 549 OFFCURVE",
"82 319 CURVE SMOOTH",
"37 104 OFFCURVE",
"109 -10 OFFCURVE",
"301 -10 CURVE SMOOTH"
);
},
{
closed = 1;
nodes = (
"141 37 OFFCURVE",
"95 124 OFFCURVE",
"136 319 CURVE SMOOTH",
"181 531 OFFCURVE",
"273 606 OFFCURVE",
"432 606 CURVE SMOOTH",
"602 606 OFFCURVE",
"650 531 OFFCURVE",
"605 319 CURVE SMOOTH",
"564 124 OFFCURVE",
"469 37 OFFCURVE",
"311 37 CURVE SMOOTH"
);
},
{
closed = 1;
nodes = (
"483 688 LINE",
"494 740 LINE",
"564 747 OFFCURVE",
"592 776 OFFCURVE",
"603 829 CURVE SMOOTH",
"615 885 OFFCURVE",
"582 917 OFFCURVE",
"506 917 CURVE SMOOTH",
"482 917 OFFCURVE",
"446 912 OFFCURVE",
"426 905 CURVE",
"418 867 LINE",
"437 874 OFFCURVE",
"467 879 OFFCURVE",
"488 879 CURVE SMOOTH",
"546 879 OFFCURVE",
"567 862 OFFCURVE",
"559 826 CURVE SMOOTH",
"551 788 OFFCURVE",
"534 771 OFFCURVE",
"453 767 CURVE",
"436 688 LINE"
);
}
);
width = 749;
}
);
leftKerningGroup = O;
note = Ohornhookabove;
rightKerningGroup = O;
unicode = 1EDE;
},
{
glyphname = Ohorntilde;
lastChange = "2015-10-24 21:17:59 +0000";
layers = (
{
layerId = "D3C4CEFB-873C-4437-A63B-85583903CC89";
name = "Light Italic";
paths = (
{
closed = 1;
nodes = (
"507 -10 OFFCURVE",
"615 104 OFFCURVE",
"660 319 CURVE SMOOTH",
"678 403 OFFCURVE",
"680 470 OFFCURVE",
"665 522 CURVE",
"750 530 OFFCURVE",
"805 571 OFFCURVE",
"830 688 CURVE",
"782 688 LINE",
"762 595 OFFCURVE",
"728 567 OFFCURVE",
"647 566 CURVE",
"612 625 OFFCURVE",
"544 654 OFFCURVE",
"443 654 CURVE SMOOTH",
"240 654 OFFCURVE",
"131 549 OFFCURVE",
"82 319 CURVE SMOOTH",
"37 104 OFFCURVE",
"109 -10 OFFCURVE",
"301 -10 CURVE SMOOTH"
);
},
{
closed = 1;
nodes = (
"141 37 OFFCURVE",
"95 124 OFFCURVE",
"136 319 CURVE SMOOTH",
"181 531 OFFCURVE",
"273 606 OFFCURVE",
"432 606 CURVE SMOOTH",
"602 606 OFFCURVE",
"650 531 OFFCURVE",
"605 319 CURVE SMOOTH",
"564 124 OFFCURVE",
"469 37 OFFCURVE",
"311 37 CURVE SMOOTH"
);
},
{
closed = 1;
nodes = (
"575 712 OFFCURVE",
"604 723 OFFCURVE",
"620 741 CURVE",
"630 788 LINE",
"607 763 OFFCURVE",
"582 753 OFFCURVE",
"550 753 CURVE SMOOTH",
"504 753 OFFCURVE",
"478 790 OFFCURVE",
"426 790 CURVE SMOOTH",
"396 790 OFFCURVE",
"361 779 OFFCURVE",
"342 761 CURVE",
"332 714 LINE",
"359 741 OFFCURVE",
"388 749 OFFCURVE",
"418 749 CURVE SMOOTH",
"458 749 OFFCURVE",
"494 712 OFFCURVE",
"543 712 CURVE SMOOTH"
);
}
);
width = 749;
}
);
leftKerningGroup = O;
note = Ohorntilde;
rightKerningGroup = O;
unicode = 1EE0;
},
{
glyphname = Ohungarumlaut;
lastChange = "2015-10-24 21:17:59 +0000";
layers = (
{
layerId = "D3C4CEFB-873C-4437-A63B-85583903CC89";
name = "Light Italic";
paths = (
{
closed = 1;
nodes = (
"507 -10 OFFCURVE",
"615 104 OFFCURVE",
"660 319 CURVE SMOOTH",
"709 549 OFFCURVE",
"638 654 OFFCURVE",
"443 654 CURVE SMOOTH",
"240 654 OFFCURVE",
"131 549 OFFCURVE",
"82 319 CURVE SMOOTH",
"37 104 OFFCURVE",
"109 -10 OFFCURVE",
"301 -10 CURVE SMOOTH"
);
},
{
closed = 1;
nodes = (
"141 37 OFFCURVE",
"95 124 OFFCURVE",
"136 319 CURVE SMOOTH",
"181 531 OFFCURVE",
"273 606 OFFCURVE",
"432 606 CURVE SMOOTH",
"602 606 OFFCURVE",
"650 531 OFFCURVE",
"605 319 CURVE SMOOTH",
"564 124 OFFCURVE",
"469 37 OFFCURVE",
"311 37 CURVE SMOOTH"
);
},
{
closed = 1;
nodes = (
"353 687 LINE",
"458 828 LINE",
"404 828 LINE",
"308 687 LINE"
);
},
{
closed = 1;
nodes = (
"551 687 LINE",
"657 828 LINE",
"603 828 LINE",
"506 687 LINE"
);
}
);
width = 688;
}
);
leftKerningGroup = O;
note = Ohungarumlaut;
rightKerningGroup = O;
unicode = 0150;
},
{
glyphname = Omacron;
lastChange = "2015-10-24 21:17:59 +0000";
layers = (
{
layerId = "D3C4CEFB-873C-4437-A63B-85583903CC89";
name = "Light Italic";
paths = (
{
closed = 1;
nodes = (
"507 -10 OFFCURVE",
"615 104 OFFCURVE",
"660 319 CURVE SMOOTH",
"709 549 OFFCURVE",
"638 654 OFFCURVE",
"443 654 CURVE SMOOTH",
"240 654 OFFCURVE",
"131 549 OFFCURVE",
"82 319 CURVE SMOOTH",
"37 104 OFFCURVE",
"109 -10 OFFCURVE",
"301 -10 CURVE SMOOTH"
);
},
{
closed = 1;
nodes = (
"141 37 OFFCURVE",
"95 124 OFFCURVE",
"136 319 CURVE SMOOTH",
"181 531 OFFCURVE",
"273 606 OFFCURVE",
"432 606 CURVE SMOOTH",
"602 606 OFFCURVE",
"650 531 OFFCURVE",
"605 319 CURVE SMOOTH",
"564 124 OFFCURVE",
"469 37 OFFCURVE",
"311 37 CURVE SMOOTH"
);
},
{
closed = 1;
nodes = (
"594 719 LINE",
"603 761 LINE",
"327 761 LINE",
"318 719 LINE"
);
}
);
width = 688;
}
);
leftKerningGroup = O;
note = Omacron;
rightKerningGroup = O;
unicode = 014C;
},
{
glyphname = Oslash;
lastChange = "2015-10-24 21:17:59 +0000";
layers = (
{
layerId = "D3C4CEFB-873C-4437-A63B-85583903CC89";
name = "Light Italic";
paths = (
{
closed = 1;
nodes = (
"172 -53 LINE",
"204 2 LINE",
"232 -5 OFFCURVE",
"264 -10 OFFCURVE",
"301 -10 CURVE SMOOTH",
"507 -10 OFFCURVE",
"615 104 OFFCURVE",
"660 319 CURVE SMOOTH",
"696 491 OFFCURVE",
"666 593 OFFCURVE",
"566 634 CURVE",
"600 693 LINE",
"550 693 LINE",
"523 646 LINE",
"499 651 OFFCURVE",
"472 654 OFFCURVE",
"443 654 CURVE SMOOTH",
"240 654 OFFCURVE",
"131 549 OFFCURVE",
"82 319 CURVE SMOOTH",
"50 167 OFFCURVE",
"77 65 OFFCURVE",
"163 19 CURVE",
"122 -53 LINE"
);
},
{
closed = 1;
nodes = (
"121 101 OFFCURVE",
"107 184 OFFCURVE",
"136 319 CURVE SMOOTH",
"181 531 OFFCURVE",
"273 606 OFFCURVE",
"432 606 CURVE SMOOTH",
"456 606 OFFCURVE",
"478 604 OFFCURVE",
"497 601 CURVE",
"188 62 LINE"
);
},
{
closed = 1;
nodes = (
"279 37 OFFCURVE",
"252 40 OFFCURVE",
"229 46 CURVE",
"540 589 LINE",
"620 557 OFFCURVE",
"638 475 OFFCURVE",
"605 319 CURVE SMOOTH",
"564 124 OFFCURVE",
"469 37 OFFCURVE",
"311 37 CURVE SMOOTH"
);
}
);
width = 688;
}
);
leftKerningGroup = O;
note = Oslash;
rightKerningGroup = O;
unicode = 00D8;
},
{
glyphname = Oslashacute;
lastChange = "2015-10-24 21:18:00 +0000";
layers = (
{
layerId = "D3C4CEFB-873C-4437-A63B-85583903CC89";
name = "Light Italic";
paths = (
{
closed = 1;
nodes = (
"172 -53 LINE",
"204 2 LINE",
"232 -5 OFFCURVE",
"264 -10 OFFCURVE",
"301 -10 CURVE SMOOTH",
"507 -10 OFFCURVE",
"615 104 OFFCURVE",
"660 319 CURVE SMOOTH",
"696 491 OFFCURVE",
"666 593 OFFCURVE",
"566 634 CURVE",
"600 693 LINE",
"550 693 LINE",
"523 646 LINE",
"499 651 OFFCURVE",
"472 654 OFFCURVE",
"443 654 CURVE SMOOTH",
"240 654 OFFCURVE",
"131 549 OFFCURVE",
"82 319 CURVE SMOOTH",
"50 167 OFFCURVE",
"77 65 OFFCURVE",
"163 19 CURVE",
"122 -53 LINE"
);
},
{
closed = 1;
nodes = (
"121 101 OFFCURVE",
"107 184 OFFCURVE",
"136 319 CURVE SMOOTH",
"181 531 OFFCURVE",
"273 606 OFFCURVE",
"432 606 CURVE SMOOTH",
"456 606 OFFCURVE",
"478 604 OFFCURVE",
"497 601 CURVE",
"188 62 LINE"
);
},
{
closed = 1;
nodes = (
"279 37 OFFCURVE",
"252 40 OFFCURVE",
"229 46 CURVE",
"540 589 LINE",
"620 557 OFFCURVE",
"638 475 OFFCURVE",
"605 319 CURVE SMOOTH",
"564 124 OFFCURVE",
"469 37 OFFCURVE",
"311 37 CURVE SMOOTH"
);
},
{
closed = 1;
nodes = (
"466 688 LINE",
"574 846 LINE",
"522 846 LINE",
"421 688 LINE"
);
}
);
width = 688;
}
);
leftKerningGroup = O;
note = Oslashacute;
rightKerningGroup = O;
unicode = 01FE;
},
{
glyphname = Otilde;
lastChange = "2015-10-24 21:17:59 +0000";
layers = (
{
layerId = "D3C4CEFB-873C-4437-A63B-85583903CC89";
name = "Light Italic";
paths = (
{
closed = 1;
nodes = (
"507 -10 OFFCURVE",
"615 104 OFFCURVE",
"660 319 CURVE SMOOTH",
"709 549 OFFCURVE",
"638 654 OFFCURVE",
"443 654 CURVE SMOOTH",
"240 654 OFFCURVE",
"131 549 OFFCURVE",
"82 319 CURVE SMOOTH",
"37 104 OFFCURVE",
"109 -10 OFFCURVE",
"301 -10 CURVE SMOOTH"
);
},
{
closed = 1;
nodes = (
"141 37 OFFCURVE",
"95 124 OFFCURVE",
"136 319 CURVE SMOOTH",
"181 531 OFFCURVE",
"273 606 OFFCURVE",
"432 606 CURVE SMOOTH",
"602 606 OFFCURVE",
"650 531 OFFCURVE",
"605 319 CURVE SMOOTH",
"564 124 OFFCURVE",
"469 37 OFFCURVE",
"311 37 CURVE SMOOTH"
);
},
{
closed = 1;
nodes = (
"559 715 OFFCURVE",
"588 726 OFFCURVE",
"604 744 CURVE",
"614 791 LINE",
"591 766 OFFCURVE",
"566 756 OFFCURVE",
"534 756 CURVE SMOOTH",
"488 756 OFFCURVE",
"462 793 OFFCURVE",
"410 793 CURVE SMOOTH",
"380 793 OFFCURVE",
"345 782 OFFCURVE",
"326 764 CURVE",
"316 717 LINE",
"343 744 OFFCURVE",
"372 752 OFFCURVE",
"402 752 CURVE SMOOTH",
"442 752 OFFCURVE",
"478 715 OFFCURVE",
"527 715 CURVE SMOOTH"
);
}
);
width = 688;
}
);
leftKerningGroup = O;
note = Otilde;
rightKerningGroup = O;
unicode = 00D5;
},
{
glyphname = OE;
lastChange = "2015-10-24 21:18:00 +0000";
layers = (
{
layerId = "D3C4CEFB-873C-4437-A63B-85583903CC89";
name = "Light Italic";
paths = (
{
closed = 1;
nodes = (
"414 -10 OFFCURVE",
"498 24 OFFCURVE",
"558 90 CURVE",
"539 0 LINE",
"960 0 LINE",
"969 44 LINE",
"603 44 LINE",
"657 300 LINE",
"988 300 LINE",
"998 344 LINE",
"667 344 LINE",
"721 599 LINE",
"1087 599 LINE",
"1096 644 LINE",
"675 644 LINE",
"655 552 LINE",
"623 621 OFFCURVE",
"553 654 OFFCURVE",
"444 654 CURVE SMOOTH",
"241 654 OFFCURVE",
"132 549 OFFCURVE",
"83 319 CURVE SMOOTH",
"38 104 OFFCURVE",
"110 -10 OFFCURVE",
"302 -10 CURVE SMOOTH"
);
},
{
closed = 1;
nodes = (
"142 37 OFFCURVE",
"96 124 OFFCURVE",
"137 319 CURVE SMOOTH",
"182 531 OFFCURVE",
"274 606 OFFCURVE",
"433 606 CURVE SMOOTH",
"603 606 OFFCURVE",
"651 531 OFFCURVE",
"606 319 CURVE SMOOTH",
"565 124 OFFCURVE",
"470 37 OFFCURVE",
"312 37 CURVE SMOOTH"
);
}
);
width = 1056;
}
);
leftKerningGroup = O;
note = OE;
rightKerningGroup = E;
unicode = 0152;
},
{
glyphname = P;
lastChange = "2015-10-24 21:17:59 +0000";
layers = (
{
layerId = "D3C4CEFB-873C-4437-A63B-85583903CC89";
name = "Light Italic";
paths = (
{
closed = 1;
nodes = (
"90 0 LINE",
"142 247 LINE",
"339 247 LINE SMOOTH",
"468 247 OFFCURVE",
"564 321 OFFCURVE",
"590 443 CURVE SMOOTH",
"615 563 OFFCURVE",
"563 644 OFFCURVE",
"427 644 CURVE SMOOTH",
"171 644 LINE",
"35 0 LINE"
);
},
{
closed = 1;
nodes = (
"217 599 LINE",
"414 599 LINE SMOOTH",
"529 599 OFFCURVE",
"556 543 OFFCURVE",
"535 443 CURVE SMOOTH",
"515 350 OFFCURVE",
"456 291 OFFCURVE",
"343 291 CURVE SMOOTH",
"151 291 LINE"
);
}
);
width = 571;
}
);
note = P;
unicode = 0050;
},
{
glyphname = Thorn;
lastChange = "2015-10-24 21:18:00 +0000";
layers = (
{
layerId = "D3C4CEFB-873C-4437-A63B-85583903CC89";
name = "Light Italic";
paths = (
{
closed = 1;
nodes = (
"90 0 LINE",
"115 122 LINE",
"312 122 LINE SMOOTH",
"451 122 OFFCURVE",
"537 197 OFFCURVE",
"564 320 CURVE SMOOTH",
"589 439 OFFCURVE",
"535 519 OFFCURVE",
"401 519 CURVE SMOOTH",
"200 519 LINE",
"226 644 LINE",
"171 644 LINE",
"35 0 LINE"
);
},
{
closed = 1;
nodes = (
"190 474 LINE",
"387 474 LINE SMOOTH",
"507 474 OFFCURVE",
"530 419 OFFCURVE",
"509 320 CURVE SMOOTH",
"489 227 OFFCURVE",
"422 167 OFFCURVE",
"317 167 CURVE SMOOTH",
"125 167 LINE"
);
}
);
width = 591;
}
);
note = Thorn;
unicode = 00DE;
},
{
glyphname = Q;
lastChange = "2015-10-24 21:18:00 +0000";
layers = (
{
layerId = "D3C4CEFB-873C-4437-A63B-85583903CC89";
name = "Light Italic";
paths = (
{
closed = 1;
nodes = (
"388 -172 OFFCURVE",
"421 -168 OFFCURVE",
"443 -162 CURVE",
"453 -114 LINE",
"432 -120 OFFCURVE",
"401 -124 OFFCURVE",
"380 -124 CURVE SMOOTH",
"312 -124 OFFCURVE",
"305 -93 OFFCURVE",
"322 -9 CURVE",
"514 -1 OFFCURVE",
"616 111 OFFCURVE",
"660 319 CURVE SMOOTH",
"709 549 OFFCURVE",
"638 654 OFFCURVE",
"443 654 CURVE SMOOTH",
"240 654 OFFCURVE",
"131 549 OFFCURVE",
"82 319 CURVE SMOOTH",
"39 116 OFFCURVE",
"101 4 OFFCURVE",
"268 -8 CURVE",
"249 -111 OFFCURVE",
"267 -172 OFFCURVE",
"362 -172 CURVE SMOOTH"
);
},
{
closed = 1;
nodes = (
"141 37 OFFCURVE",
"95 124 OFFCURVE",
"136 319 CURVE SMOOTH",
"181 531 OFFCURVE",
"273 606 OFFCURVE",
"432 606 CURVE SMOOTH",
"602 606 OFFCURVE",
"650 531 OFFCURVE",
"605 319 CURVE SMOOTH",
"564 124 OFFCURVE",
"469 37 OFFCURVE",
"311 37 CURVE SMOOTH"
);
}
);
width = 688;
}
);
leftKerningGroup = O;
note = Q;
rightKerningGroup = O;
unicode = 0051;
},
{
glyphname = R;
lastChange = "2015-10-24 21:18:00 +0000";
layers = (
{
layerId = "D3C4CEFB-873C-4437-A63B-85583903CC89";
name = "Light Italic";
paths = (
{
closed = 1;
nodes = (
"90 0 LINE",
"144 258 LINE",
"295 258 LINE SMOOTH",
"370 258 OFFCURVE",
"386 240 OFFCURVE",
"396 194 CURVE SMOOTH",
"440 0 LINE",
"496 0 LINE",
"452 201 LINE SMOOTH",
"444 236 OFFCURVE",
"438 255 OFFCURVE",
"411 270 CURVE",
"509 288 OFFCURVE",
"571 353 OFFCURVE",
"592 452 CURVE SMOOTH",
"616 569 OFFCURVE",
"571 644 OFFCURVE",
"440 644 CURVE SMOOTH",
"171 644 LINE",
"35 0 LINE"
);
},
{
closed = 1;
nodes = (
"217 599 LINE",
"427 599 LINE SMOOTH",
"529 599 OFFCURVE",
"557 549 OFFCURVE",
"537 452 CURVE SMOOTH",
"514 346 OFFCURVE",
"447 302 OFFCURVE",
"352 302 CURVE SMOOTH",
"154 302 LINE"
);
}
);
width = 592;
}
);
note = R;
rightKerningGroup = R;
unicode = 0052;
},
{
glyphname = Racute;
lastChange = "2015-10-24 21:17:59 +0000";
layers = (
{
layerId = "D3C4CEFB-873C-4437-A63B-85583903CC89";
name = "Light Italic";
paths = (
{
closed = 1;
nodes = (
"90 0 LINE",
"144 258 LINE",
"295 258 LINE SMOOTH",
"370 258 OFFCURVE",
"386 240 OFFCURVE",
"396 194 CURVE SMOOTH",
"440 0 LINE",
"496 0 LINE",
"452 201 LINE SMOOTH",
"444 236 OFFCURVE",
"438 255 OFFCURVE",
"411 270 CURVE",
"509 288 OFFCURVE",
"571 353 OFFCURVE",
"592 452 CURVE SMOOTH",
"616 569 OFFCURVE",
"571 644 OFFCURVE",
"440 644 CURVE SMOOTH",
"171 644 LINE",
"35 0 LINE"
);
},
{
closed = 1;
nodes = (
"217 599 LINE",
"427 599 LINE SMOOTH",
"529 599 OFFCURVE",
"557 549 OFFCURVE",
"537 452 CURVE SMOOTH",
"514 346 OFFCURVE",
"447 302 OFFCURVE",
"352 302 CURVE SMOOTH",
"154 302 LINE"
);
},
{
closed = 1;
nodes = (
"412 688 LINE",
"520 846 LINE",
"468 846 LINE",
"367 688 LINE"
);
}
);
width = 592;
}
);
note = Racute;
rightKerningGroup = R;
unicode = 0154;
},
{
glyphname = Rcaron;
lastChange = "2015-10-24 21:17:59 +0000";
layers = (
{
layerId = "D3C4CEFB-873C-4437-A63B-85583903CC89";
name = "Light Italic";
paths = (
{
closed = 1;
nodes = (
"90 0 LINE",
"144 258 LINE",
"295 258 LINE SMOOTH",
"370 258 OFFCURVE",
"386 240 OFFCURVE",
"396 194 CURVE SMOOTH",
"440 0 LINE",
"496 0 LINE",
"452 201 LINE SMOOTH",
"444 236 OFFCURVE",
"438 255 OFFCURVE",
"411 270 CURVE",
"509 288 OFFCURVE",
"571 353 OFFCURVE",
"592 452 CURVE SMOOTH",
"616 569 OFFCURVE",
"571 644 OFFCURVE",
"440 644 CURVE SMOOTH",
"171 644 LINE",
"35 0 LINE"
);
},
{
closed = 1;
nodes = (
"217 599 LINE",
"427 599 LINE SMOOTH",
"529 599 OFFCURVE",
"557 549 OFFCURVE",
"537 452 CURVE SMOOTH",
"514 346 OFFCURVE",
"447 302 OFFCURVE",
"352 302 CURVE SMOOTH",
"154 302 LINE"
);
},
{
closed = 1;
nodes = (
"422 687 LINE",
"556 822 LINE",
"504 822 LINE",
"403 719 LINE",
"346 822 LINE",
"299 822 LINE",
"374 687 LINE"
);
}
);
width = 592;
}
);
note = Rcaron;
rightKerningGroup = R;
unicode = 0158;
},
{
glyphname = Rcommaaccent;
lastChange = "2015-11-24 09:53:01 +0000";
layers = (
{
layerId = "D3C4CEFB-873C-4437-A63B-85583903CC89";
name = "Light Italic";
paths = (
{
closed = 1;
nodes = (
"90 0 LINE",
"144 258 LINE",
"295 258 LINE SMOOTH",
"370 258 OFFCURVE",
"386 240 OFFCURVE",
"396 194 CURVE SMOOTH",
"440 0 LINE",
"496 0 LINE",
"452 201 LINE SMOOTH",
"444 236 OFFCURVE",
"438 255 OFFCURVE",
"411 270 CURVE",
"509 288 OFFCURVE",
"571 353 OFFCURVE",
"592 452 CURVE SMOOTH",
"616 569 OFFCURVE",
"571 644 OFFCURVE",
"440 644 CURVE SMOOTH",
"171 644 LINE",
"35 0 LINE"
);
},
{
closed = 1;
nodes = (
"217 599 LINE",
"427 599 LINE SMOOTH",
"529 599 OFFCURVE",
"557 549 OFFCURVE",
"537 452 CURVE SMOOTH",
"514 346 OFFCURVE",
"447 302 OFFCURVE",
"352 302 CURVE SMOOTH",
"154 302 LINE"
);
},
{
closed = 1;
nodes = (
"183 -202 LINE",
"256 -37 LINE",
"203 -37 LINE",
"142 -202 LINE"
);
}
);
width = 592;
}
);
note = Rcommaaccent;
rightKerningGroup = R;
unicode = 0156;
},
{
glyphname = Rdotbelow;
lastChange = "2015-11-24 09:53:04 +0000";
layers = (
{
layerId = "D3C4CEFB-873C-4437-A63B-85583903CC89";
name = "Light Italic";
paths = (
{
closed = 1;
nodes = (
"90 0 LINE",
"144 258 LINE",
"295 258 LINE SMOOTH",
"370 258 OFFCURVE",
"386 240 OFFCURVE",
"396 194 CURVE SMOOTH",
"440 0 LINE",
"496 0 LINE",
"452 201 LINE SMOOTH",
"444 236 OFFCURVE",
"438 255 OFFCURVE",
"411 270 CURVE",
"509 288 OFFCURVE",
"571 353 OFFCURVE",
"592 452 CURVE SMOOTH",
"616 569 OFFCURVE",
"571 644 OFFCURVE",
"440 644 CURVE SMOOTH",
"171 644 LINE",
"35 0 LINE"
);
},
{
closed = 1;
nodes = (
"217 599 LINE",
"427 599 LINE SMOOTH",
"529 599 OFFCURVE",
"557 549 OFFCURVE",
"537 452 CURVE SMOOTH",
"514 346 OFFCURVE",
"447 302 OFFCURVE",
"352 302 CURVE SMOOTH",
"154 302 LINE"
);
},
{
closed = 1;
nodes = (
"263 -152 LINE",
"275 -95 LINE",
"216 -95 LINE",
"204 -152 LINE"
);
}
);
width = 592;
}
);
note = Rdotbelow;
rightKerningGroup = R;
unicode = 1E5A;
},
{
glyphname = Rdotbelowmacron;
lastChange = "2015-11-24 09:53:11 +0000";
layers = (
{
layerId = "D3C4CEFB-873C-4437-A63B-85583903CC89";
name = "Light Italic";
paths = (
{
closed = 1;
nodes = (
"90 0 LINE",
"144 258 LINE",
"295 258 LINE SMOOTH",
"370 258 OFFCURVE",
"386 240 OFFCURVE",
"396 194 CURVE SMOOTH",
"440 0 LINE",
"496 0 LINE",
"452 201 LINE SMOOTH",
"444 236 OFFCURVE",
"438 255 OFFCURVE",
"411 270 CURVE",
"509 288 OFFCURVE",
"571 353 OFFCURVE",
"592 452 CURVE SMOOTH",
"616 569 OFFCURVE",
"571 644 OFFCURVE",
"440 644 CURVE SMOOTH",
"171 644 LINE",
"35 0 LINE"
);
},
{
closed = 1;
nodes = (
"217 599 LINE",
"427 599 LINE SMOOTH",
"529 599 OFFCURVE",
"557 549 OFFCURVE",
"537 452 CURVE SMOOTH",
"514 346 OFFCURVE",
"447 302 OFFCURVE",
"352 302 CURVE SMOOTH",
"154 302 LINE"
);
},
{
closed = 1;
nodes = (
"263 -152 LINE",
"275 -95 LINE",
"216 -95 LINE",
"204 -152 LINE"
);
},
{
closed = 1;
nodes = (
"541 717 LINE",
"550 759 LINE",
"274 759 LINE",
"265 717 LINE"
);
}
);
width = 592;
}
);
note = Rdotbelowmacron;
rightKerningGroup = R;
unicode = 1E5C;
},
{
glyphname = Rlinebelow;
lastChange = "2015-11-24 09:53:16 +0000";
layers = (
{
layerId = "D3C4CEFB-873C-4437-A63B-85583903CC89";
name = "Light Italic";
paths = (
{
closed = 1;
nodes = (
"90 0 LINE",
"144 258 LINE",
"295 258 LINE SMOOTH",
"370 258 OFFCURVE",
"386 240 OFFCURVE",
"396 194 CURVE SMOOTH",
"440 0 LINE",
"496 0 LINE",
"452 201 LINE SMOOTH",
"444 236 OFFCURVE",
"438 255 OFFCURVE",
"411 270 CURVE",
"509 288 OFFCURVE",
"571 353 OFFCURVE",
"592 452 CURVE SMOOTH",
"616 569 OFFCURVE",
"571 644 OFFCURVE",
"440 644 CURVE SMOOTH",
"171 644 LINE",
"35 0 LINE"
);
},
{
closed = 1;
nodes = (
"217 599 LINE",
"427 599 LINE SMOOTH",
"529 599 OFFCURVE",
"557 549 OFFCURVE",
"537 452 CURVE SMOOTH",
"514 346 OFFCURVE",
"447 302 OFFCURVE",
"352 302 CURVE SMOOTH",
"154 302 LINE"
);
},
{
closed = 1;
nodes = (
"361 -116 LINE",
"370 -74 LINE",
"94 -74 LINE",
"85 -116 LINE"
);
}
);
width = 592;
}
);
note = Rlinebelow;
rightKerningGroup = R;
unicode = 1E5E;
},
{
glyphname = S;
lastChange = "2015-10-24 21:17:55 +0000";
layers = (
{
layerId = "D3C4CEFB-873C-4437-A63B-85583903CC89";
name = "Light Italic";
paths = (
{
closed = 1;
nodes = (
"372 -10 OFFCURVE",
"468 49 OFFCURVE",
"492 164 CURVE SMOOTH",
"512 256 OFFCURVE",
"475 311 OFFCURVE",
"325 348 CURVE SMOOTH",
"191 381 OFFCURVE",
"155 407 OFFCURVE",
"171 481 CURVE SMOOTH",
"189 569 OFFCURVE",
"258 606 OFFCURVE",
"385 606 CURVE SMOOTH",
"445 606 OFFCURVE",
"499 597 OFFCURVE",
"542 581 CURVE",
"552 630 LINE",
"522 641 OFFCURVE",
"457 654 OFFCURVE",
"385 654 CURVE SMOOTH",
"218 654 OFFCURVE",
"139 585 OFFCURVE",
"117 481 CURVE SMOOTH",
"97 390 OFFCURVE",
"145 340 OFFCURVE",
"278 308 CURVE SMOOTH",
"410 276 OFFCURVE",
"456 247 OFFCURVE",
"438 164 CURVE SMOOTH",
"419 72 OFFCURVE",
"346 37 OFFCURVE",
"221 37 CURVE SMOOTH",
"153 37 OFFCURVE",
"95 47 OFFCURVE",
"45 67 CURVE",
"34 18 LINE",
"78 -1 OFFCURVE",
"137 -10 OFFCURVE",
"215 -10 CURVE SMOOTH"
);
}
);
width = 553;
}
);
leftKerningGroup = S;
note = S;
rightKerningGroup = S;
unicode = 0053;
},
{
glyphname = Sacute;
lastChange = "2015-10-24 21:18:00 +0000";
layers = (
{
layerId = "D3C4CEFB-873C-4437-A63B-85583903CC89";
name = "Light Italic";
paths = (
{
closed = 1;
nodes = (
"372 -10 OFFCURVE",
"468 49 OFFCURVE",
"492 164 CURVE SMOOTH",
"512 256 OFFCURVE",
"475 311 OFFCURVE",
"325 348 CURVE SMOOTH",
"191 381 OFFCURVE",
"155 407 OFFCURVE",
"171 481 CURVE SMOOTH",
"189 569 OFFCURVE",
"258 606 OFFCURVE",
"385 606 CURVE SMOOTH",
"445 606 OFFCURVE",
"499 597 OFFCURVE",
"542 581 CURVE",
"552 630 LINE",
"522 641 OFFCURVE",
"457 654 OFFCURVE",
"385 654 CURVE SMOOTH",
"218 654 OFFCURVE",
"139 585 OFFCURVE",
"117 481 CURVE SMOOTH",
"97 390 OFFCURVE",
"145 340 OFFCURVE",
"278 308 CURVE SMOOTH",
"410 276 OFFCURVE",
"456 247 OFFCURVE",
"438 164 CURVE SMOOTH",
"419 72 OFFCURVE",
"346 37 OFFCURVE",
"221 37 CURVE SMOOTH",
"153 37 OFFCURVE",
"95 47 OFFCURVE",
"45 67 CURVE",
"34 18 LINE",
"78 -1 OFFCURVE",
"137 -10 OFFCURVE",
"215 -10 CURVE SMOOTH"
);
},
{
closed = 1;
nodes = (
"391 694 LINE",
"499 852 LINE",
"447 852 LINE",
"346 694 LINE"
);
}
);
width = 553;
}
);
leftKerningGroup = S;
note = Sacute;
rightKerningGroup = S;
unicode = 015A;
},
{
glyphname = Scaron;
lastChange = "2015-10-24 21:18:01 +0000";
layers = (
{
layerId = "D3C4CEFB-873C-4437-A63B-85583903CC89";
name = "Light Italic";
paths = (
{
closed = 1;
nodes = (
"372 -10 OFFCURVE",
"468 49 OFFCURVE",
"492 164 CURVE SMOOTH",
"512 256 OFFCURVE",
"475 311 OFFCURVE",
"325 348 CURVE SMOOTH",
"191 381 OFFCURVE",
"155 407 OFFCURVE",
"171 481 CURVE SMOOTH",
"189 569 OFFCURVE",
"258 606 OFFCURVE",
"385 606 CURVE SMOOTH",
"445 606 OFFCURVE",
"499 597 OFFCURVE",
"542 581 CURVE",
"552 630 LINE",
"522 641 OFFCURVE",
"457 654 OFFCURVE",
"385 654 CURVE SMOOTH",
"218 654 OFFCURVE",
"139 585 OFFCURVE",
"117 481 CURVE SMOOTH",
"97 390 OFFCURVE",
"145 340 OFFCURVE",
"278 308 CURVE SMOOTH",
"410 276 OFFCURVE",
"456 247 OFFCURVE",
"438 164 CURVE SMOOTH",
"419 72 OFFCURVE",
"346 37 OFFCURVE",
"221 37 CURVE SMOOTH",
"153 37 OFFCURVE",
"95 47 OFFCURVE",
"45 67 CURVE",
"34 18 LINE",
"78 -1 OFFCURVE",
"137 -10 OFFCURVE",
"215 -10 CURVE SMOOTH"
);
},
{
closed = 1;
nodes = (
"420 687 LINE",
"554 822 LINE",
"502 822 LINE",
"401 719 LINE",
"344 822 LINE",
"297 822 LINE",
"372 687 LINE"
);
}
);
width = 553;
}
);
leftKerningGroup = S;
note = Scaron;
rightKerningGroup = S;
unicode = 0160;
},
{
glyphname = Scedilla;
lastChange = "2015-10-24 21:17:59 +0000";
layers = (
{
layerId = "D3C4CEFB-873C-4437-A63B-85583903CC89";
name = "Light Italic";
paths = (
{
closed = 1;
nodes = (
"372 -10 OFFCURVE",
"468 49 OFFCURVE",
"492 164 CURVE SMOOTH",
"512 256 OFFCURVE",
"475 311 OFFCURVE",
"325 348 CURVE SMOOTH",
"191 381 OFFCURVE",
"155 407 OFFCURVE",
"171 481 CURVE SMOOTH",
"189 569 OFFCURVE",
"258 606 OFFCURVE",
"385 606 CURVE SMOOTH",
"445 606 OFFCURVE",
"499 597 OFFCURVE",
"542 581 CURVE",
"552 630 LINE",
"522 641 OFFCURVE",
"457 654 OFFCURVE",
"385 654 CURVE SMOOTH",
"218 654 OFFCURVE",
"139 585 OFFCURVE",
"117 481 CURVE SMOOTH",
"97 390 OFFCURVE",
"145 340 OFFCURVE",
"278 308 CURVE SMOOTH",
"410 276 OFFCURVE",
"456 247 OFFCURVE",
"438 164 CURVE SMOOTH",
"419 72 OFFCURVE",
"346 37 OFFCURVE",
"221 37 CURVE SMOOTH",
"153 37 OFFCURVE",
"95 47 OFFCURVE",
"45 67 CURVE",
"34 18 LINE",
"78 -1 OFFCURVE",
"137 -10 OFFCURVE",
"215 -10 CURVE SMOOTH"
);
},
{
closed = 1;
nodes = (
"254 -240 OFFCURVE",
"303 -204 OFFCURVE",
"317 -139 CURVE SMOOTH",
"329 -81 OFFCURVE",
"296 -51 OFFCURVE",
"223 -51 CURVE",
"250 0 LINE",
"207 0 LINE",
"162 -84 LINE",
"195 -84 LINE SMOOTH",
"256 -84 OFFCURVE",
"283 -96 OFFCURVE",
"274 -139 CURVE SMOOTH",
"264 -187 OFFCURVE",
"229 -203 OFFCURVE",
"162 -203 CURVE SMOOTH",
"140 -203 OFFCURVE",
"118 -200 OFFCURVE",
"101 -195 CURVE",
"93 -232 LINE",
"107 -236 OFFCURVE",
"136 -240 OFFCURVE",
"157 -240 CURVE SMOOTH"
);
}
);
width = 553;
}
);
leftKerningGroup = S;
note = Scedilla;
rightKerningGroup = S;
unicode = 015E;
},
{
glyphname = Scircumflex;
lastChange = "2015-10-24 21:18:00 +0000";
layers = (
{
layerId = "D3C4CEFB-873C-4437-A63B-85583903CC89";
name = "Light Italic";
paths = (
{
closed = 1;
nodes = (
"372 -10 OFFCURVE",
"468 49 OFFCURVE",
"492 164 CURVE SMOOTH",
"512 256 OFFCURVE",
"475 311 OFFCURVE",
"325 348 CURVE SMOOTH",
"191 381 OFFCURVE",
"155 407 OFFCURVE",
"171 481 CURVE SMOOTH",
"189 569 OFFCURVE",
"258 606 OFFCURVE",
"385 606 CURVE SMOOTH",
"445 606 OFFCURVE",
"499 597 OFFCURVE",
"542 581 CURVE",
"552 630 LINE",
"522 641 OFFCURVE",
"457 654 OFFCURVE",
"385 654 CURVE SMOOTH",
"218 654 OFFCURVE",
"139 585 OFFCURVE",
"117 481 CURVE SMOOTH",
"97 390 OFFCURVE",
"145 340 OFFCURVE",
"278 308 CURVE SMOOTH",
"410 276 OFFCURVE",
"456 247 OFFCURVE",
"438 164 CURVE SMOOTH",
"419 72 OFFCURVE",
"346 37 OFFCURVE",
"221 37 CURVE SMOOTH",
"153 37 OFFCURVE",
"95 47 OFFCURVE",
"45 67 CURVE",
"34 18 LINE",
"78 -1 OFFCURVE",
"137 -10 OFFCURVE",
"215 -10 CURVE SMOOTH"
);
},
{
closed = 1;
nodes = (
"307 703 LINE",
"408 806 LINE",
"465 703 LINE",
"513 703 LINE",
"437 838 LINE",
"389 838 LINE",
"256 703 LINE"
);
}
);
width = 553;
}
);
leftKerningGroup = S;
note = Scircumflex;
rightKerningGroup = S;
unicode = 015C;
},
{
glyphname = Scommaaccent;
lastChange = "2015-10-24 21:17:59 +0000";
layers = (
{
layerId = "D3C4CEFB-873C-4437-A63B-85583903CC89";
name = "Light Italic";
paths = (
{
closed = 1;
nodes = (
"372 -10 OFFCURVE",
"468 49 OFFCURVE",
"492 164 CURVE SMOOTH",
"512 256 OFFCURVE",
"475 311 OFFCURVE",
"325 348 CURVE SMOOTH",
"191 381 OFFCURVE",
"155 407 OFFCURVE",
"171 481 CURVE SMOOTH",
"189 569 OFFCURVE",
"258 606 OFFCURVE",
"385 606 CURVE SMOOTH",
"445 606 OFFCURVE",
"499 597 OFFCURVE",
"542 581 CURVE",
"552 630 LINE",
"522 641 OFFCURVE",
"457 654 OFFCURVE",
"385 654 CURVE SMOOTH",
"218 654 OFFCURVE",
"139 585 OFFCURVE",
"117 481 CURVE SMOOTH",
"97 390 OFFCURVE",
"145 340 OFFCURVE",
"278 308 CURVE SMOOTH",
"410 276 OFFCURVE",
"456 247 OFFCURVE",
"438 164 CURVE SMOOTH",
"419 72 OFFCURVE",
"346 37 OFFCURVE",
"221 37 CURVE SMOOTH",
"153 37 OFFCURVE",
"95 47 OFFCURVE",
"45 67 CURVE",
"34 18 LINE",
"78 -1 OFFCURVE",
"137 -10 OFFCURVE",
"215 -10 CURVE SMOOTH"
);
},
{
closed = 1;
nodes = (
"178 -215 LINE",
"248 -55 LINE",
"195 -55 LINE",
"135 -215 LINE"
);
}
);
width = 553;
}
);
leftKerningGroup = S;
note = Scommaaccent;
rightKerningGroup = S;
unicode = 0218;
},
{
glyphname = Sdotaccent;
lastChange = "2015-10-24 21:18:01 +0000";
layers = (
{
layerId = "D3C4CEFB-873C-4437-A63B-85583903CC89";
name = "Light Italic";
paths = (
{
closed = 1;
nodes = (
"372 -10 OFFCURVE",
"468 49 OFFCURVE",
"492 164 CURVE SMOOTH",
"512 256 OFFCURVE",
"475 311 OFFCURVE",
"325 348 CURVE SMOOTH",
"191 381 OFFCURVE",
"155 407 OFFCURVE",
"171 481 CURVE SMOOTH",
"189 569 OFFCURVE",
"258 606 OFFCURVE",
"385 606 CURVE SMOOTH",
"445 606 OFFCURVE",
"499 597 OFFCURVE",
"542 581 CURVE",
"552 630 LINE",
"522 641 OFFCURVE",
"457 654 OFFCURVE",
"385 654 CURVE SMOOTH",
"218 654 OFFCURVE",
"139 585 OFFCURVE",
"117 481 CURVE SMOOTH",
"97 390 OFFCURVE",
"145 340 OFFCURVE",
"278 308 CURVE SMOOTH",
"410 276 OFFCURVE",
"456 247 OFFCURVE",
"438 164 CURVE SMOOTH",
"419 72 OFFCURVE",
"346 37 OFFCURVE",
"221 37 CURVE SMOOTH",
"153 37 OFFCURVE",
"95 47 OFFCURVE",
"45 67 CURVE",
"34 18 LINE",
"78 -1 OFFCURVE",
"137 -10 OFFCURVE",
"215 -10 CURVE SMOOTH"
);
},
{
closed = 1;
nodes = (
"414 714 LINE",
"426 770 LINE",
"369 770 LINE",
"357 714 LINE"
);
}
);
width = 553;
}
);
leftKerningGroup = S;
note = Sdotaccent;
rightKerningGroup = S;
unicode = 1E60;
},
{
glyphname = Sdotbelow;
lastChange = "2015-10-24 21:17:59 +0000";
layers = (
{
layerId = "D3C4CEFB-873C-4437-A63B-85583903CC89";
name = "Light Italic";
paths = (
{
closed = 1;
nodes = (
"372 -10 OFFCURVE",
"468 49 OFFCURVE",
"492 164 CURVE SMOOTH",
"512 256 OFFCURVE",
"475 311 OFFCURVE",
"325 348 CURVE SMOOTH",
"191 381 OFFCURVE",
"155 407 OFFCURVE",
"171 481 CURVE SMOOTH",
"189 569 OFFCURVE",
"258 606 OFFCURVE",
"385 606 CURVE SMOOTH",
"445 606 OFFCURVE",
"499 597 OFFCURVE",
"542 581 CURVE",
"552 630 LINE",
"522 641 OFFCURVE",
"457 654 OFFCURVE",
"385 654 CURVE SMOOTH",
"218 654 OFFCURVE",
"139 585 OFFCURVE",
"117 481 CURVE SMOOTH",
"97 390 OFFCURVE",
"145 340 OFFCURVE",
"278 308 CURVE SMOOTH",
"410 276 OFFCURVE",
"456 247 OFFCURVE",
"438 164 CURVE SMOOTH",
"419 72 OFFCURVE",
"346 37 OFFCURVE",
"221 37 CURVE SMOOTH",
"153 37 OFFCURVE",
"95 47 OFFCURVE",
"45 67 CURVE",
"34 18 LINE",
"78 -1 OFFCURVE",
"137 -10 OFFCURVE",
"215 -10 CURVE SMOOTH"
);
},
{
closed = 1;
nodes = (
"226 -152 LINE",
"238 -95 LINE",
"179 -95 LINE",
"167 -152 LINE"
);
}
);
width = 553;
}
);
leftKerningGroup = S;
note = Sdotbelow;
rightKerningGroup = S;
unicode = 1E62;
},
{
glyphname = Germandbls;
lastChange = "2015-10-24 21:17:55 +0000";
layers = (
{
layerId = "D3C4CEFB-873C-4437-A63B-85583903CC89";
name = "Light Italic";
paths = (
{
closed = 1;
nodes = (
"451 -10 OFFCURVE",
"535 57 OFFCURVE",
"561 179 CURVE SMOOTH",
"583 283 OFFCURVE",
"533 345 OFFCURVE",
"419 345 CURVE SMOOTH",
"366 345 LINE",
"589 466 LINE",
"611 573 OFFCURVE",
"557 654 OFFCURVE",
"404 654 CURVE SMOOTH",
"254 654 OFFCURVE",
"153 582 OFFCURVE",
"124 444 CURVE SMOOTH",
"30 0 LINE",
"85 0 LINE",
"178 442 LINE SMOOTH",
"203 556 OFFCURVE",
"271 606 OFFCURVE",
"393 606 CURVE SMOOTH",
"526 606 OFFCURVE",
"554 553 OFFCURVE",
"539 484 CURVE",
"305 355 LINE",
"294 302 LINE",
"394 302 LINE SMOOTH",
"504 302 OFFCURVE",
"524 264 OFFCURVE",
"506 180 CURVE SMOOTH",
"485 83 OFFCURVE",
"427 37 OFFCURVE",
"330 37 CURVE SMOOTH",
"282 37 OFFCURVE",
"234 43 OFFCURVE",
"197 60 CURVE",
"187 12 LINE",
"224 -4 OFFCURVE",
"274 -10 OFFCURVE",
"326 -10 CURVE SMOOTH"
);
}
);
width = 618;
}
);
note = uni1E9E;
unicode = 1E9E;
},
{
glyphname = Schwa;
lastChange = "2015-10-24 21:18:01 +0000";
layers = (
{
layerId = "D3C4CEFB-873C-4437-A63B-85583903CC89";
name = "Light Italic";
paths = (
{
closed = 1;
nodes = (
"482 -10 OFFCURVE",
"591 113 OFFCURVE",
"634 316 CURVE SMOOTH",
"682 545 OFFCURVE",
"606 654 OFFCURVE",
"381 654 CURVE SMOOTH",
"317 654 OFFCURVE",
"245 640 OFFCURVE",
"187 619 CURVE",
"177 573 LINE",
"238 596 OFFCURVE",
"310 608 OFFCURVE",
"366 608 CURVE SMOOTH",
"577 608 OFFCURVE",
"622 523 OFFCURVE",
"590 351 CURVE",
"89 351 LINE",
"67 247 LINE SMOOTH",
"36 101 OFFCURVE",
"99 -10 OFFCURVE",
"272 -10 CURVE SMOOTH"
);
},
{
closed = 1;
nodes = (
"134 35 OFFCURVE",
"87 108 OFFCURVE",
"116 241 CURVE SMOOTH",
"130 308 LINE",
"581 308 LINE",
"543 131 OFFCURVE",
"452 35 OFFCURVE",
"282 35 CURVE SMOOTH"
);
}
);
width = 662;
}
);
note = uni018F;
unicode = 018F;
},
{
glyphname = T;
lastChange = "2015-10-24 21:17:55 +0000";
layers = (
{
layerId = "D3C4CEFB-873C-4437-A63B-85583903CC89";
name = "Light Italic";
paths = (
{
closed = 1;
nodes = (
"272 0 LINE",
"399 599 LINE",
"621 599 LINE",
"630 644 LINE",
"131 644 LINE",
"122 599 LINE",
"344 599 LINE",
"217 0 LINE"
);
}
);
width = 569;
}
);
leftKerningGroup = T;
note = T;
rightKerningGroup = T;
unicode = 0054;
},
{
glyphname = Tbar;
lastChange = "2015-10-24 21:17:55 +0000";
layers = (
{
layerId = "D3C4CEFB-873C-4437-A63B-85583903CC89";
name = "Light Italic";
paths = (
{
closed = 1;
nodes = (
"272 0 LINE",
"342 333 LINE",
"485 333 LINE",
"495 377 LINE",
"352 377 LINE",
"399 599 LINE",
"621 599 LINE",
"630 644 LINE",
"131 644 LINE",
"122 599 LINE",
"344 599 LINE",
"297 377 LINE",
"137 377 LINE",
"127 333 LINE",
"287 333 LINE",
"217 0 LINE"
);
}
);
width = 569;
}
);
leftKerningGroup = T;
note = Tbar;
rightKerningGroup = T;
unicode = 0166;
},
{
glyphname = Tcaron;
lastChange = "2015-10-24 21:18:01 +0000";
layers = (
{
layerId = "D3C4CEFB-873C-4437-A63B-85583903CC89";
name = "Light Italic";
paths = (
{
closed = 1;
nodes = (
"272 0 LINE",
"399 599 LINE",
"621 599 LINE",
"630 644 LINE",
"131 644 LINE",
"122 599 LINE",
"344 599 LINE",
"217 0 LINE"
);
},
{
closed = 1;
nodes = (
"416 703 LINE",
"550 838 LINE",
"498 838 LINE",
"397 735 LINE",
"340 838 LINE",
"293 838 LINE",
"368 703 LINE"
);
}
);
width = 569;
}
);
leftKerningGroup = T;
note = Tcaron;
rightKerningGroup = T;
unicode = 0164;
},
{
glyphname = Tcedilla;
lastChange = "2015-10-24 21:17:55 +0000";
layers = (
{
layerId = "D3C4CEFB-873C-4437-A63B-85583903CC89";
name = "Light Italic";
paths = (
{
closed = 1;
nodes = (
"269 -240 OFFCURVE",
"318 -204 OFFCURVE",
"332 -139 CURVE SMOOTH",
"344 -81 OFFCURVE",
"311 -51 OFFCURVE",
"238 -51 CURVE",
"265 0 LINE",
"272 0 LINE",
"399 599 LINE",
"621 599 LINE",
"630 644 LINE",
"131 644 LINE",
"122 599 LINE",
"344 599 LINE",
"217 0 LINE",
"222 0 LINE",
"177 -84 LINE",
"210 -84 LINE SMOOTH",
"271 -84 OFFCURVE",
"298 -96 OFFCURVE",
"289 -139 CURVE SMOOTH",
"279 -187 OFFCURVE",
"244 -203 OFFCURVE",
"177 -203 CURVE SMOOTH",
"155 -203 OFFCURVE",
"133 -200 OFFCURVE",
"116 -195 CURVE",
"108 -232 LINE",
"122 -236 OFFCURVE",
"151 -240 OFFCURVE",
"172 -240 CURVE SMOOTH"
);
}
);
width = 569;
}
);
leftKerningGroup = T;
note = Tcedilla;
rightKerningGroup = T;
unicode = 0162;
},
{
glyphname = Tcommaaccent;
lastChange = "2015-10-24 21:18:01 +0000";
layers = (
{
layerId = "D3C4CEFB-873C-4437-A63B-85583903CC89";
name = "Light Italic";
paths = (
{
closed = 1;
nodes = (
"272 0 LINE",
"399 599 LINE",
"621 599 LINE",
"630 644 LINE",
"131 644 LINE",
"122 599 LINE",
"344 599 LINE",
"217 0 LINE"
);
},
{
closed = 1;
nodes = (
"189 -205 LINE",
"262 -40 LINE",
"209 -40 LINE",
"148 -205 LINE"
);
}
);
width = 569;
}
);
leftKerningGroup = T;
note = Tcommaaccent;
rightKerningGroup = T;
unicode = 021A;
},
{
glyphname = Tdotbelow;
lastChange = "2015-10-24 21:17:59 +0000";
layers = (
{
layerId = "D3C4CEFB-873C-4437-A63B-85583903CC89";
name = "Light Italic";
paths = (
{
closed = 1;
nodes = (
"272 0 LINE",
"399 599 LINE",
"621 599 LINE",
"630 644 LINE",
"131 644 LINE",
"122 599 LINE",
"344 599 LINE",
"217 0 LINE"
);
},
{
closed = 1;
nodes = (
"242 -150 LINE",
"254 -93 LINE",
"195 -93 LINE",
"183 -150 LINE"
);
}
);
width = 569;
}
);
leftKerningGroup = T;
note = Tdotbelow;
rightKerningGroup = T;
unicode = 1E6C;
},
{
glyphname = Tlinebelow;
lastChange = "2015-10-24 21:18:00 +0000";
layers = (
{
layerId = "D3C4CEFB-873C-4437-A63B-85583903CC89";
name = "Light Italic";
paths = (
{
closed = 1;
nodes = (
"272 0 LINE",
"399 599 LINE",
"621 599 LINE",
"630 644 LINE",
"131 644 LINE",
"122 599 LINE",
"344 599 LINE",
"217 0 LINE"
);
},
{
closed = 1;
nodes = (
"358 -114 LINE",
"367 -72 LINE",
"91 -72 LINE",
"82 -114 LINE"
);
}
);
width = 569;
}
);
leftKerningGroup = T;
note = Tlinebelow;
rightKerningGroup = T;
unicode = 1E6E;
},
{
glyphname = U;
lastChange = "2015-10-24 21:17:55 +0000";
layers = (
{
layerId = "D3C4CEFB-873C-4437-A63B-85583903CC89";
name = "Light Italic";
paths = (
{
closed = 1;
nodes = (
"468 -10 OFFCURVE",
"568 75 OFFCURVE",
"602 233 CURVE SMOOTH",
"689 644 LINE",
"634 644 LINE",
"546 227 LINE SMOOTH",
"518 93 OFFCURVE",
"424 38 OFFCURVE",
"300 38 CURVE SMOOTH",
"156 38 OFFCURVE",
"105 96 OFFCURVE",
"133 227 CURVE SMOOTH",
"221 644 LINE",
"166 644 LINE",
"79 233 LINE SMOOTH",
"47 81 OFFCURVE",
"117 -10 OFFCURVE",
"289 -10 CURVE SMOOTH"
);
}
);
width = 663;
}
);
leftKerningGroup = U;
note = U;
rightKerningGroup = U;
unicode = 0055;
},
{
glyphname = Uacute;
lastChange = "2015-10-24 21:17:59 +0000";
layers = (
{
layerId = "D3C4CEFB-873C-4437-A63B-85583903CC89";
name = "Light Italic";
paths = (
{
closed = 1;
nodes = (
"468 -10 OFFCURVE",
"568 75 OFFCURVE",
"602 233 CURVE SMOOTH",
"689 644 LINE",
"634 644 LINE",
"546 227 LINE SMOOTH",
"518 93 OFFCURVE",
"424 38 OFFCURVE",
"300 38 CURVE SMOOTH",
"156 38 OFFCURVE",
"105 96 OFFCURVE",
"133 227 CURVE SMOOTH",
"221 644 LINE",
"166 644 LINE",
"79 233 LINE SMOOTH",
"47 81 OFFCURVE",
"117 -10 OFFCURVE",
"289 -10 CURVE SMOOTH"
);
},
{
closed = 1;
nodes = (
"452 688 LINE",
"560 846 LINE",
"508 846 LINE",
"407 688 LINE"
);
}
);
width = 663;
}
);
leftKerningGroup = U;
note = Uacute;
rightKerningGroup = U;
unicode = 00DA;
},
{
glyphname = Ubreve;
lastChange = "2015-10-24 21:18:00 +0000";
layers = (
{
layerId = "D3C4CEFB-873C-4437-A63B-85583903CC89";
name = "Light Italic";
paths = (
{
closed = 1;
nodes = (
"468 -10 OFFCURVE",
"568 75 OFFCURVE",
"602 233 CURVE SMOOTH",
"689 644 LINE",
"634 644 LINE",
"546 227 LINE SMOOTH",
"518 93 OFFCURVE",
"424 38 OFFCURVE",
"300 38 CURVE SMOOTH",
"156 38 OFFCURVE",
"105 96 OFFCURVE",
"133 227 CURVE SMOOTH",
"221 644 LINE",
"166 644 LINE",
"79 233 LINE SMOOTH",
"47 81 OFFCURVE",
"117 -10 OFFCURVE",
"289 -10 CURVE SMOOTH"
);
},
{
closed = 1;
nodes = (
"509 687 OFFCURVE",
"558 734 OFFCURVE",
"572 798 CURVE",
"528 798 LINE",
"518 752 OFFCURVE",
"484 726 OFFCURVE",
"442 726 CURVE SMOOTH",
"394 726 OFFCURVE",
"379 752 OFFCURVE",
"389 798 CURVE",
"349 798 LINE",
"335 734 OFFCURVE",
"368 687 OFFCURVE",
"436 687 CURVE SMOOTH"
);
}
);
width = 663;
}
);
leftKerningGroup = U;
note = Ubreve;
rightKerningGroup = U;
unicode = 016C;
},
{
glyphname = Ucaron;
lastChange = "2015-10-24 21:18:00 +0000";
layers = (
{
layerId = "D3C4CEFB-873C-4437-A63B-85583903CC89";
name = "Light Italic";
paths = (
{
closed = 1;
nodes = (
"468 -10 OFFCURVE",
"568 75 OFFCURVE",
"602 233 CURVE SMOOTH",
"689 644 LINE",
"634 644 LINE",
"546 227 LINE SMOOTH",
"518 93 OFFCURVE",
"424 38 OFFCURVE",
"300 38 CURVE SMOOTH",
"156 38 OFFCURVE",
"105 96 OFFCURVE",
"133 227 CURVE SMOOTH",
"221 644 LINE",
"166 644 LINE",
"79 233 LINE SMOOTH",
"47 81 OFFCURVE",
"117 -10 OFFCURVE",
"289 -10 CURVE SMOOTH"
);
},
{
closed = 1;
nodes = (
"460 687 LINE",
"594 822 LINE",
"542 822 LINE",
"441 719 LINE",
"384 822 LINE",
"337 822 LINE",
"412 687 LINE"
);
}
);
width = 663;
}
);
leftKerningGroup = U;
note = Ucaron;
rightKerningGroup = U;
unicode = 01D3;
},
{
glyphname = Ucircumflex;
lastChange = "2015-10-24 21:18:00 +0000";
layers = (
{
layerId = "D3C4CEFB-873C-4437-A63B-85583903CC89";
name = "Light Italic";
paths = (
{
closed = 1;
nodes = (
"468 -10 OFFCURVE",
"568 75 OFFCURVE",
"602 233 CURVE SMOOTH",
"689 644 LINE",
"634 644 LINE",
"546 227 LINE SMOOTH",
"518 93 OFFCURVE",
"424 38 OFFCURVE",
"300 38 CURVE SMOOTH",
"156 38 OFFCURVE",
"105 96 OFFCURVE",
"133 227 CURVE SMOOTH",
"221 644 LINE",
"166 644 LINE",
"79 233 LINE SMOOTH",
"47 81 OFFCURVE",
"117 -10 OFFCURVE",
"289 -10 CURVE SMOOTH"
);
},
{
closed = 1;
nodes = (
"359 687 LINE",
"460 790 LINE",
"517 687 LINE",
"565 687 LINE",
"489 822 LINE",
"441 822 LINE",
"308 687 LINE"
);
}
);
width = 663;
}
);
leftKerningGroup = U;
note = Ucircumflex;
rightKerningGroup = U;
unicode = 00DB;
},
{
glyphname = Udieresis;
lastChange = "2015-10-24 21:18:00 +0000";
layers = (
{
layerId = "D3C4CEFB-873C-4437-A63B-85583903CC89";
name = "Light Italic";
paths = (
{
closed = 1;
nodes = (
"468 -10 OFFCURVE",
"568 75 OFFCURVE",
"602 233 CURVE SMOOTH",
"689 644 LINE",
"634 644 LINE",
"546 227 LINE SMOOTH",
"518 93 OFFCURVE",
"424 38 OFFCURVE",
"300 38 CURVE SMOOTH",
"156 38 OFFCURVE",
"105 96 OFFCURVE",
"133 227 CURVE SMOOTH",
"221 644 LINE",
"166 644 LINE",
"79 233 LINE SMOOTH",
"47 81 OFFCURVE",
"117 -10 OFFCURVE",
"289 -10 CURVE SMOOTH"
);
},
{
closed = 1;
nodes = (
"381 714 LINE",
"393 769 LINE",
"336 769 LINE",
"325 714 LINE"
);
},
{
closed = 1;
nodes = (
"547 714 LINE",
"559 769 LINE",
"503 769 LINE",
"491 714 LINE"
);
}
);
width = 663;
}
);
leftKerningGroup = U;
note = Udieresis;
rightKerningGroup = U;
unicode = 00DC;
},
{
glyphname = Udieresisacute;
lastChange = "2015-10-24 21:17:59 +0000";
layers = (
{
layerId = "D3C4CEFB-873C-4437-A63B-85583903CC89";
name = "Light Italic";
paths = (
{
closed = 1;
nodes = (
"468 -10 OFFCURVE",
"568 75 OFFCURVE",
"602 233 CURVE SMOOTH",
"689 644 LINE",
"634 644 LINE",
"546 227 LINE SMOOTH",
"518 93 OFFCURVE",
"424 38 OFFCURVE",
"300 38 CURVE SMOOTH",
"156 38 OFFCURVE",
"105 96 OFFCURVE",
"133 227 CURVE SMOOTH",
"221 644 LINE",
"166 644 LINE",
"79 233 LINE SMOOTH",
"47 81 OFFCURVE",
"117 -10 OFFCURVE",
"289 -10 CURVE SMOOTH"
);
},
{
closed = 1;
nodes = (
"375 687 LINE",
"387 742 LINE",
"330 742 LINE",
"318 687 LINE"
);
},
{
closed = 1;
nodes = (
"550 687 LINE",
"562 742 LINE",
"507 742 LINE",
"495 687 LINE"
);
},
{
closed = 1;
nodes = (
"472 764 LINE",
"562 881 LINE",
"512 881 LINE",
"427 764 LINE"
);
}
);
width = 663;
}
);
leftKerningGroup = U;
note = Udieresisacute;
rightKerningGroup = U;
unicode = 01D7;
},
{
glyphname = Udieresiscaron;
lastChange = "2015-10-24 21:18:01 +0000";
layers = (
{
layerId = "D3C4CEFB-873C-4437-A63B-85583903CC89";
name = "Light Italic";
paths = (
{
closed = 1;
nodes = (
"468 -10 OFFCURVE",
"568 75 OFFCURVE",
"602 233 CURVE SMOOTH",
"689 644 LINE",
"634 644 LINE",
"546 227 LINE SMOOTH",
"518 93 OFFCURVE",
"424 38 OFFCURVE",
"300 38 CURVE SMOOTH",
"156 38 OFFCURVE",
"105 96 OFFCURVE",
"133 227 CURVE SMOOTH",
"221 644 LINE",
"166 644 LINE",
"79 233 LINE SMOOTH",
"47 81 OFFCURVE",
"117 -10 OFFCURVE",
"289 -10 CURVE SMOOTH"
);
},
{
closed = 1;
nodes = (
"375 687 LINE",
"387 742 LINE",
"330 742 LINE",
"318 687 LINE"
);
},
{
closed = 1;
nodes = (
"550 687 LINE",
"562 742 LINE",
"507 742 LINE",
"495 687 LINE"
);
},
{
closed = 1;
nodes = (
"477 764 LINE",
"603 874 LINE",
"554 874 LINE",
"459 789 LINE",
"399 874 LINE",
"350 874 LINE",
"429 764 LINE"
);
}
);
width = 663;
}
);
leftKerningGroup = U;
note = Udieresiscaron;
rightKerningGroup = U;
unicode = 01D9;
},
{
glyphname = Udieresisgrave;
lastChange = "2015-10-24 21:18:00 +0000";
layers = (
{
layerId = "D3C4CEFB-873C-4437-A63B-85583903CC89";
name = "Light Italic";
paths = (
{
closed = 1;
nodes = (
"468 -10 OFFCURVE",
"568 75 OFFCURVE",
"602 233 CURVE SMOOTH",
"689 644 LINE",
"634 644 LINE",
"546 227 LINE SMOOTH",
"518 93 OFFCURVE",
"424 38 OFFCURVE",
"300 38 CURVE SMOOTH",
"156 38 OFFCURVE",
"105 96 OFFCURVE",
"133 227 CURVE SMOOTH",
"221 644 LINE",
"166 644 LINE",
"79 233 LINE SMOOTH",
"47 81 OFFCURVE",
"117 -10 OFFCURVE",
"289 -10 CURVE SMOOTH"
);
},
{
closed = 1;
nodes = (
"377 687 LINE",
"389 742 LINE",
"333 742 LINE",
"321 687 LINE"
);
},
{
closed = 1;
nodes = (
"553 687 LINE",
"565 742 LINE",
"509 742 LINE",
"497 687 LINE"
);
},
{
closed = 1;
nodes = (
"477 764 LINE",
"442 881 LINE",
"391 881 LINE",
"432 764 LINE"
);
}
);
width = 663;
}
);
leftKerningGroup = U;
note = Udieresisgrave;
rightKerningGroup = U;
unicode = 01DB;
},
{
glyphname = Udieresismacron;
lastChange = "2015-11-24 09:53:32 +0000";
layers = (
{
layerId = "D3C4CEFB-873C-4437-A63B-85583903CC89";
name = "Light Italic";
paths = (
{
closed = 1;
nodes = (
"468 -10 OFFCURVE",
"568 75 OFFCURVE",
"602 233 CURVE SMOOTH",
"689 644 LINE",
"634 644 LINE",
"546 227 LINE SMOOTH",
"518 93 OFFCURVE",
"424 38 OFFCURVE",
"300 38 CURVE SMOOTH",
"156 38 OFFCURVE",
"105 96 OFFCURVE",
"133 227 CURVE SMOOTH",
"221 644 LINE",
"166 644 LINE",
"79 233 LINE SMOOTH",
"47 81 OFFCURVE",
"117 -10 OFFCURVE",
"289 -10 CURVE SMOOTH"
);
},
{
closed = 1;
nodes = (
"387 711 LINE",
"399 766 LINE",
"342 766 LINE",
"331 711 LINE"
);
},
{
closed = 1;
nodes = (
"553 711 LINE",
"565 766 LINE",
"509 766 LINE",
"497 711 LINE"
);
},
{
closed = 1;
nodes = (
"607 819 LINE",
"616 861 LINE",
"340 861 LINE",
"331 819 LINE"
);
}
);
width = 663;
}
);
leftKerningGroup = U;
note = Udieresismacron;
rightKerningGroup = U;
unicode = 01D5;
},
{
glyphname = Udotbelow;
lastChange = "2015-10-24 21:17:59 +0000";
layers = (
{
layerId = "D3C4CEFB-873C-4437-A63B-85583903CC89";
name = "Light Italic";
paths = (
{
closed = 1;
nodes = (
"468 -10 OFFCURVE",
"568 75 OFFCURVE",
"602 233 CURVE SMOOTH",
"689 644 LINE",
"634 644 LINE",
"546 227 LINE SMOOTH",
"518 93 OFFCURVE",
"424 38 OFFCURVE",
"300 38 CURVE SMOOTH",
"156 38 OFFCURVE",
"105 96 OFFCURVE",
"133 227 CURVE SMOOTH",
"221 644 LINE",
"166 644 LINE",
"79 233 LINE SMOOTH",
"47 81 OFFCURVE",
"117 -10 OFFCURVE",
"289 -10 CURVE SMOOTH"
);
},
{
closed = 1;
nodes = (
"289 -152 LINE",
"301 -95 LINE",
"242 -95 LINE",
"230 -152 LINE"
);
}
);
width = 663;
}
);
leftKerningGroup = U;
note = Udotbelow;
rightKerningGroup = U;
unicode = 1EE4;
},
{
glyphname = Ugrave;
lastChange = "2015-10-24 21:18:01 +0000";
layers = (
{
layerId = "D3C4CEFB-873C-4437-A63B-85583903CC89";
name = "Light Italic";
paths = (
{
closed = 1;
nodes = (
"468 -10 OFFCURVE",
"568 75 OFFCURVE",
"602 233 CURVE SMOOTH",
"689 644 LINE",
"634 644 LINE",
"546 227 LINE SMOOTH",
"518 93 OFFCURVE",
"424 38 OFFCURVE",
"300 38 CURVE SMOOTH",
"156 38 OFFCURVE",
"105 96 OFFCURVE",
"133 227 CURVE SMOOTH",
"221 644 LINE",
"166 644 LINE",
"79 233 LINE SMOOTH",
"47 81 OFFCURVE",
"117 -10 OFFCURVE",
"289 -10 CURVE SMOOTH"
);
},
{
closed = 1;
nodes = (
"480 688 LINE",
"447 846 LINE",
"395 846 LINE",
"435 688 LINE"
);
}
);
width = 663;
}
);
leftKerningGroup = U;
note = Ugrave;
rightKerningGroup = U;
unicode = 00D9;
},
{
glyphname = Uhookabove;
lastChange = "2015-10-24 21:18:00 +0000";
layers = (
{
layerId = "D3C4CEFB-873C-4437-A63B-85583903CC89";
name = "Light Italic";
paths = (
{
closed = 1;
nodes = (
"468 -10 OFFCURVE",
"568 75 OFFCURVE",
"602 233 CURVE SMOOTH",
"689 644 LINE",
"634 644 LINE",
"546 227 LINE SMOOTH",
"518 93 OFFCURVE",
"424 38 OFFCURVE",
"300 38 CURVE SMOOTH",
"156 38 OFFCURVE",
"105 96 OFFCURVE",
"133 227 CURVE SMOOTH",
"221 644 LINE",
"166 644 LINE",
"79 233 LINE SMOOTH",
"47 81 OFFCURVE",
"117 -10 OFFCURVE",
"289 -10 CURVE SMOOTH"
);
},
{
closed = 1;
nodes = (
"458 688 LINE",
"469 740 LINE",
"539 747 OFFCURVE",
"567 776 OFFCURVE",
"578 829 CURVE SMOOTH",
"590 885 OFFCURVE",
"557 917 OFFCURVE",
"481 917 CURVE SMOOTH",
"457 917 OFFCURVE",
"421 912 OFFCURVE",
"401 905 CURVE",
"393 867 LINE",
"412 874 OFFCURVE",
"442 879 OFFCURVE",
"463 879 CURVE SMOOTH",
"521 879 OFFCURVE",
"542 862 OFFCURVE",
"534 826 CURVE SMOOTH",
"526 788 OFFCURVE",
"509 771 OFFCURVE",
"428 767 CURVE",
"411 688 LINE"
);
}
);
width = 663;
}
);
leftKerningGroup = U;
note = Uhookabove;
rightKerningGroup = U;
unicode = 1EE6;
},
{
glyphname = Uhorn;
lastChange = "2015-10-24 21:17:55 +0000";
layers = (
{
layerId = "D3C4CEFB-873C-4437-A63B-85583903CC89";
name = "Light Italic";
paths = (
{
closed = 1;
nodes = (
"468 -10 OFFCURVE",
"568 75 OFFCURVE",
"602 233 CURVE SMOOTH",
"663 519 LINE",
"765 520 OFFCURVE",
"828 559 OFFCURVE",
"856 688 CURVE",
"808 688 LINE",
"788 593 OFFCURVE",
"754 564 OFFCURVE",
"672 564 CURVE",
"689 644 LINE",
"634 644 LINE",
"546 227 LINE SMOOTH",
"518 93 OFFCURVE",
"424 38 OFFCURVE",
"300 38 CURVE SMOOTH",
"156 38 OFFCURVE",
"105 96 OFFCURVE",
"133 227 CURVE SMOOTH",
"221 644 LINE",
"166 644 LINE",
"79 233 LINE SMOOTH",
"47 81 OFFCURVE",
"117 -10 OFFCURVE",
"289 -10 CURVE SMOOTH"
);
}
);
width = 785;
}
);
leftKerningGroup = U;
note = Uhorn;
rightKerningGroup = U;
unicode = 01AF;
},
{
glyphname = Uhornacute;
lastChange = "2015-10-24 21:18:01 +0000";
layers = (
{
layerId = "D3C4CEFB-873C-4437-A63B-85583903CC89";
name = "Light Italic";
paths = (
{
closed = 1;
nodes = (
"468 -10 OFFCURVE",
"568 75 OFFCURVE",
"602 233 CURVE SMOOTH",
"663 519 LINE",
"765 520 OFFCURVE",
"828 559 OFFCURVE",
"856 688 CURVE",
"808 688 LINE",
"788 593 OFFCURVE",
"754 564 OFFCURVE",
"672 564 CURVE",
"689 644 LINE",
"634 644 LINE",
"546 227 LINE SMOOTH",
"518 93 OFFCURVE",
"424 38 OFFCURVE",
"300 38 CURVE SMOOTH",
"156 38 OFFCURVE",
"105 96 OFFCURVE",
"133 227 CURVE SMOOTH",
"221 644 LINE",
"166 644 LINE",
"79 233 LINE SMOOTH",
"47 81 OFFCURVE",
"117 -10 OFFCURVE",
"289 -10 CURVE SMOOTH"
);
},
{
closed = 1;
nodes = (
"469 688 LINE",
"577 846 LINE",
"525 846 LINE",
"424 688 LINE"
);
}
);
width = 785;
}
);
leftKerningGroup = U;
note = Uhornacute;
rightKerningGroup = U;
unicode = 1EE8;
},
{
glyphname = Uhorndotbelow;
lastChange = "2015-10-24 21:18:00 +0000";
layers = (
{
layerId = "D3C4CEFB-873C-4437-A63B-85583903CC89";
name = "Light Italic";
paths = (
{
closed = 1;
nodes = (
"468 -10 OFFCURVE",
"568 75 OFFCURVE",
"602 233 CURVE SMOOTH",
"663 519 LINE",
"765 520 OFFCURVE",
"828 559 OFFCURVE",
"856 688 CURVE",
"808 688 LINE",
"788 593 OFFCURVE",
"754 564 OFFCURVE",
"672 564 CURVE",
"689 644 LINE",
"634 644 LINE",
"546 227 LINE SMOOTH",
"518 93 OFFCURVE",
"424 38 OFFCURVE",
"300 38 CURVE SMOOTH",
"156 38 OFFCURVE",
"105 96 OFFCURVE",
"133 227 CURVE SMOOTH",
"221 644 LINE",
"166 644 LINE",
"79 233 LINE SMOOTH",
"47 81 OFFCURVE",
"117 -10 OFFCURVE",
"289 -10 CURVE SMOOTH"
);
},
{
closed = 1;
nodes = (
"286 -152 LINE",
"298 -95 LINE",
"239 -95 LINE",
"227 -152 LINE"
);
}
);
width = 785;
}
);
leftKerningGroup = U;
note = Uhorndotbelow;
rightKerningGroup = U;
unicode = 1EF0;
},
{
glyphname = Uhorngrave;
lastChange = "2015-10-24 21:18:01 +0000";
layers = (
{
layerId = "D3C4CEFB-873C-4437-A63B-85583903CC89";
name = "Light Italic";
paths = (
{
closed = 1;
nodes = (
"468 -10 OFFCURVE",
"568 75 OFFCURVE",
"602 233 CURVE SMOOTH",
"663 519 LINE",
"765 520 OFFCURVE",
"828 559 OFFCURVE",
"856 688 CURVE",
"808 688 LINE",
"788 593 OFFCURVE",
"754 564 OFFCURVE",
"672 564 CURVE",
"689 644 LINE",
"634 644 LINE",
"546 227 LINE SMOOTH",
"518 93 OFFCURVE",
"424 38 OFFCURVE",
"300 38 CURVE SMOOTH",
"156 38 OFFCURVE",
"105 96 OFFCURVE",
"133 227 CURVE SMOOTH",
"221 644 LINE",
"166 644 LINE",
"79 233 LINE SMOOTH",
"47 81 OFFCURVE",
"117 -10 OFFCURVE",
"289 -10 CURVE SMOOTH"
);
},
{
closed = 1;
nodes = (
"470 688 LINE",
"437 846 LINE",
"385 846 LINE",
"425 688 LINE"
);
}
);
width = 785;
}
);
leftKerningGroup = U;
note = Uhorngrave;
rightKerningGroup = U;
unicode = 1EEA;
},
{
glyphname = Uhornhookabove;
lastChange = "2015-10-24 21:18:00 +0000";
layers = (
{
layerId = "D3C4CEFB-873C-4437-A63B-85583903CC89";
name = "Light Italic";
paths = (
{
closed = 1;
nodes = (
"468 -10 OFFCURVE",
"568 75 OFFCURVE",
"602 233 CURVE SMOOTH",
"663 519 LINE",
"765 520 OFFCURVE",
"828 559 OFFCURVE",
"856 688 CURVE",
"808 688 LINE",
"788 593 OFFCURVE",
"754 564 OFFCURVE",
"672 564 CURVE",
"689 644 LINE",
"634 644 LINE",
"546 227 LINE SMOOTH",
"518 93 OFFCURVE",
"424 38 OFFCURVE",
"300 38 CURVE SMOOTH",
"156 38 OFFCURVE",
"105 96 OFFCURVE",
"133 227 CURVE SMOOTH",
"221 644 LINE",
"166 644 LINE",
"79 233 LINE SMOOTH",
"47 81 OFFCURVE",
"117 -10 OFFCURVE",
"289 -10 CURVE SMOOTH"
);
},
{
closed = 1;
nodes = (
"468 688 LINE",
"479 740 LINE",
"549 747 OFFCURVE",
"577 776 OFFCURVE",
"588 829 CURVE SMOOTH",
"600 885 OFFCURVE",
"567 917 OFFCURVE",
"491 917 CURVE SMOOTH",
"467 917 OFFCURVE",
"431 912 OFFCURVE",
"411 905 CURVE",
"403 867 LINE",
"422 874 OFFCURVE",
"452 879 OFFCURVE",
"473 879 CURVE SMOOTH",
"531 879 OFFCURVE",
"552 862 OFFCURVE",
"544 826 CURVE SMOOTH",
"536 788 OFFCURVE",
"519 771 OFFCURVE",
"438 767 CURVE",
"421 688 LINE"
);
}
);
width = 785;
}
);
leftKerningGroup = U;
note = Uhornhookabove;
rightKerningGroup = U;
unicode = 1EEC;
},
{
glyphname = Uhorntilde;
lastChange = "2015-10-24 21:18:01 +0000";
layers = (
{
layerId = "D3C4CEFB-873C-4437-A63B-85583903CC89";
name = "Light Italic";
paths = (
{
closed = 1;
nodes = (
"468 -10 OFFCURVE",
"568 75 OFFCURVE",
"602 233 CURVE SMOOTH",
"663 519 LINE",
"765 520 OFFCURVE",
"828 559 OFFCURVE",
"856 688 CURVE",
"808 688 LINE",
"788 593 OFFCURVE",
"754 564 OFFCURVE",
"672 564 CURVE",
"689 644 LINE",
"634 644 LINE",
"546 227 LINE SMOOTH",
"518 93 OFFCURVE",
"424 38 OFFCURVE",
"300 38 CURVE SMOOTH",
"156 38 OFFCURVE",
"105 96 OFFCURVE",
"133 227 CURVE SMOOTH",
"221 644 LINE",
"166 644 LINE",
"79 233 LINE SMOOTH",
"47 81 OFFCURVE",
"117 -10 OFFCURVE",
"289 -10 CURVE SMOOTH"
);
},
{
closed = 1;
nodes = (
"543 712 OFFCURVE",
"572 723 OFFCURVE",
"588 741 CURVE",
"598 788 LINE",
"575 763 OFFCURVE",
"550 753 OFFCURVE",
"518 753 CURVE SMOOTH",
"472 753 OFFCURVE",
"446 790 OFFCURVE",
"394 790 CURVE SMOOTH",
"364 790 OFFCURVE",
"329 779 OFFCURVE",
"310 761 CURVE",
"300 714 LINE",
"327 741 OFFCURVE",
"356 749 OFFCURVE",
"386 749 CURVE SMOOTH",
"426 749 OFFCURVE",
"462 712 OFFCURVE",
"511 712 CURVE SMOOTH"
);
}
);
width = 785;
}
);
leftKerningGroup = U;
note = Uhorntilde;
rightKerningGroup = U;
unicode = 1EEE;
},
{
glyphname = Uhungarumlaut;
lastChange = "2015-10-24 21:17:59 +0000";
layers = (
{
layerId = "D3C4CEFB-873C-4437-A63B-85583903CC89";
name = "Light Italic";
paths = (
{
closed = 1;
nodes = (
"468 -10 OFFCURVE",
"568 75 OFFCURVE",
"602 233 CURVE SMOOTH",
"689 644 LINE",
"634 644 LINE",
"546 227 LINE SMOOTH",
"518 93 OFFCURVE",
"424 38 OFFCURVE",
"300 38 CURVE SMOOTH",
"156 38 OFFCURVE",
"105 96 OFFCURVE",
"133 227 CURVE SMOOTH",
"221 644 LINE",
"166 644 LINE",
"79 233 LINE SMOOTH",
"47 81 OFFCURVE",
"117 -10 OFFCURVE",
"289 -10 CURVE SMOOTH"
);
},
{
closed = 1;
nodes = (
"326 687 LINE",
"431 828 LINE",
"377 828 LINE",
"281 687 LINE"
);
},
{
closed = 1;
nodes = (
"524 687 LINE",
"630 828 LINE",
"576 828 LINE",
"479 687 LINE"
);
}
);
width = 663;
}
);
leftKerningGroup = U;
note = Uhungarumlaut;
rightKerningGroup = U;
unicode = 0170;
},
{
glyphname = Umacron;
lastChange = "2015-10-24 21:18:00 +0000";
layers = (
{
layerId = "D3C4CEFB-873C-4437-A63B-85583903CC89";
name = "Light Italic";
paths = (
{
closed = 1;
nodes = (
"468 -10 OFFCURVE",
"568 75 OFFCURVE",
"602 233 CURVE SMOOTH",
"689 644 LINE",
"634 644 LINE",
"546 227 LINE SMOOTH",
"518 93 OFFCURVE",
"424 38 OFFCURVE",
"300 38 CURVE SMOOTH",
"156 38 OFFCURVE",
"105 96 OFFCURVE",
"133 227 CURVE SMOOTH",
"221 644 LINE",
"166 644 LINE",
"79 233 LINE SMOOTH",
"47 81 OFFCURVE",
"117 -10 OFFCURVE",
"289 -10 CURVE SMOOTH"
);
},
{
closed = 1;
nodes = (
"582 719 LINE",
"591 761 LINE",
"315 761 LINE",
"306 719 LINE"
);
}
);
width = 663;
}
);
leftKerningGroup = U;
note = Umacron;
rightKerningGroup = U;
unicode = 016A;
},
{
glyphname = Uogonek;
lastChange = "2015-10-24 21:17:55 +0000";
layers = (
{
layerId = "D3C4CEFB-873C-4437-A63B-85583903CC89";
name = "Light Italic";
paths = (
{
closed = 1;
nodes = (
"285 -220 OFFCURVE",
"309 -217 OFFCURVE",
"326 -209 CURVE",
"335 -168 LINE",
"321 -175 OFFCURVE",
"300 -179 OFFCURVE",
"283 -179 CURVE SMOOTH",
"246 -179 OFFCURVE",
"233 -165 OFFCURVE",
"241 -128 CURVE SMOOTH",
"250 -86 OFFCURVE",
"280 -44 OFFCURVE",
"329 -8 CURVE",
"483 3 OFFCURVE",
"570 87 OFFCURVE",
"602 233 CURVE SMOOTH",
"689 644 LINE",
"634 644 LINE",
"546 227 LINE SMOOTH",
"518 93 OFFCURVE",
"424 38 OFFCURVE",
"300 38 CURVE SMOOTH",
"156 38 OFFCURVE",
"105 96 OFFCURVE",
"133 227 CURVE SMOOTH",
"221 644 LINE",
"166 644 LINE",
"79 233 LINE SMOOTH",
"47 83 OFFCURVE",
"115 -7 OFFCURVE",
"281 -10 CURVE",
"239 -40 OFFCURVE",
"203 -85 OFFCURVE",
"193 -134 CURVE SMOOTH",
"180 -197 OFFCURVE",
"215 -220 OFFCURVE",
"266 -220 CURVE SMOOTH"
);
}
);
width = 663;
}
);
leftKerningGroup = U;
note = Uogonek;
rightKerningGroup = U;
unicode = 0172;
},
{
glyphname = Uring;
lastChange = "2015-10-24 21:18:00 +0000";
layers = (
{
layerId = "D3C4CEFB-873C-4437-A63B-85583903CC89";
name = "Light Italic";
paths = (
{
closed = 1;
nodes = (
"468 -10 OFFCURVE",
"568 75 OFFCURVE",
"602 233 CURVE SMOOTH",
"689 644 LINE",
"634 644 LINE",
"546 227 LINE SMOOTH",
"518 93 OFFCURVE",
"424 38 OFFCURVE",
"300 38 CURVE SMOOTH",
"156 38 OFFCURVE",
"105 96 OFFCURVE",
"133 227 CURVE SMOOTH",
"221 644 LINE",
"166 644 LINE",
"79 233 LINE SMOOTH",
"47 81 OFFCURVE",
"117 -10 OFFCURVE",
"289 -10 CURVE SMOOTH"
);
},
{
closed = 1;
nodes = (
"501 687 OFFCURVE",
"548 732 OFFCURVE",
"560 788 CURVE SMOOTH",
"572 845 OFFCURVE",
"539 890 OFFCURVE",
"479 890 CURVE SMOOTH",
"414 890 OFFCURVE",
"367 845 OFFCURVE",
"355 788 CURVE SMOOTH",
"343 732 OFFCURVE",
"377 687 OFFCURVE",
"436 687 CURVE SMOOTH"
);
},
{
closed = 1;
nodes = (
"399 723 OFFCURVE",
"383 751 OFFCURVE",
"391 788 CURVE SMOOTH",
"399 826 OFFCURVE",
"433 854 OFFCURVE",
"471 854 CURVE SMOOTH",
"516 854 OFFCURVE",
"531 826 OFFCURVE",
"523 788 CURVE SMOOTH",
"515 751 OFFCURVE",
"482 723 OFFCURVE",
"443 723 CURVE SMOOTH"
);
}
);
width = 663;
}
);
leftKerningGroup = U;
note = Uring;
rightKerningGroup = U;
unicode = 016E;
},
{
glyphname = Utilde;
lastChange = "2015-10-24 21:17:59 +0000";
layers = (
{
layerId = "D3C4CEFB-873C-4437-A63B-85583903CC89";
name = "Light Italic";
paths = (
{
closed = 1;
nodes = (
"468 -10 OFFCURVE",
"568 75 OFFCURVE",
"602 233 CURVE SMOOTH",
"689 644 LINE",
"634 644 LINE",
"546 227 LINE SMOOTH",
"518 93 OFFCURVE",
"424 38 OFFCURVE",
"300 38 CURVE SMOOTH",
"156 38 OFFCURVE",
"105 96 OFFCURVE",
"133 227 CURVE SMOOTH",
"221 644 LINE",
"166 644 LINE",
"79 233 LINE SMOOTH",
"47 81 OFFCURVE",
"117 -10 OFFCURVE",
"289 -10 CURVE SMOOTH"
);
},
{
closed = 1;
nodes = (
"545 713 OFFCURVE",
"574 724 OFFCURVE",
"590 742 CURVE",
"600 789 LINE",
"577 764 OFFCURVE",
"552 754 OFFCURVE",
"520 754 CURVE SMOOTH",
"474 754 OFFCURVE",
"448 791 OFFCURVE",
"396 791 CURVE SMOOTH",
"366 791 OFFCURVE",
"331 780 OFFCURVE",
"312 762 CURVE",
"302 715 LINE",
"329 742 OFFCURVE",
"358 750 OFFCURVE",
"388 750 CURVE SMOOTH",
"428 750 OFFCURVE",
"464 713 OFFCURVE",
"513 713 CURVE SMOOTH"
);
}
);
width = 663;
}
);
leftKerningGroup = U;
note = Utilde;
rightKerningGroup = U;
unicode = 0168;
},
{
glyphname = V;
lastChange = "2015-10-24 21:17:55 +0000";
layers = (
{
layerId = "D3C4CEFB-873C-4437-A63B-85583903CC89";
name = "Light Italic";
paths = (
{
closed = 1;
nodes = (
"330 0 LINE",
"709 644 LINE",
"649 644 LINE",
"301 49 LINE",
"205 644 LINE",
"151 644 LINE",
"258 0 LINE"
);
}
);
width = 668;
}
);
note = V;
unicode = 0056;
},
{
glyphname = W;
lastChange = "2015-10-24 21:17:55 +0000";
layers = (
{
layerId = "D3C4CEFB-873C-4437-A63B-85583903CC89";
name = "Light Italic";
paths = (
{
closed = 1;
nodes = (
"235 0 LINE",
"506 530 LINE",
"543 0 LINE",
"606 0 LINE",
"891 644 LINE",
"837 644 LINE",
"581 67 LINE",
"540 644 LINE",
"495 644 LINE",
"482 579 LINE",
"217 67 LINE",
"206 644 LINE",
"151 644 LINE",
"165 0 LINE"
);
}
);
width = 850;
}
);
leftKerningGroup = W;
note = W;
rightKerningGroup = W;
unicode = 0057;
},
{
glyphname = Wacute;
lastChange = "2015-10-24 21:18:01 +0000";
layers = (
{
layerId = "D3C4CEFB-873C-4437-A63B-85583903CC89";
name = "Light Italic";
paths = (
{
closed = 1;
nodes = (
"235 0 LINE",
"506 530 LINE",
"543 0 LINE",
"606 0 LINE",
"891 644 LINE",
"837 644 LINE",
"581 67 LINE",
"540 644 LINE",
"495 644 LINE",
"482 579 LINE",
"217 67 LINE",
"206 644 LINE",
"151 644 LINE",
"165 0 LINE"
);
},
{
closed = 1;
nodes = (
"560 688 LINE",
"668 846 LINE",
"616 846 LINE",
"515 688 LINE"
);
}
);
width = 850;
}
);
leftKerningGroup = W;
note = Wacute;
rightKerningGroup = W;
unicode = 1E82;
},
{
glyphname = Wcircumflex;
lastChange = "2015-10-24 21:17:59 +0000";
layers = (
{
layerId = "D3C4CEFB-873C-4437-A63B-85583903CC89";
name = "Light Italic";
paths = (
{
closed = 1;
nodes = (
"235 0 LINE",
"506 530 LINE",
"543 0 LINE",
"606 0 LINE",
"891 644 LINE",
"837 644 LINE",
"581 67 LINE",
"540 644 LINE",
"495 644 LINE",
"482 579 LINE",
"217 67 LINE",
"206 644 LINE",
"151 644 LINE",
"165 0 LINE"
);
},
{
closed = 1;
nodes = (
"458 687 LINE",
"559 790 LINE",
"616 687 LINE",
"664 687 LINE",
"588 822 LINE",
"540 822 LINE",
"407 687 LINE"
);
}
);
width = 850;
}
);
leftKerningGroup = W;
note = Wcircumflex;
rightKerningGroup = W;
unicode = 0174;
},
{
glyphname = Wdieresis;
lastChange = "2015-10-24 21:18:01 +0000";
layers = (
{
layerId = "D3C4CEFB-873C-4437-A63B-85583903CC89";
name = "Light Italic";
paths = (
{
closed = 1;
nodes = (
"235 0 LINE",
"506 530 LINE",
"543 0 LINE",
"606 0 LINE",
"891 644 LINE",
"837 644 LINE",
"581 67 LINE",
"540 644 LINE",
"495 644 LINE",
"482 579 LINE",
"217 67 LINE",
"206 644 LINE",
"151 644 LINE",
"165 0 LINE"
);
},
{
closed = 1;
nodes = (
"486 712 LINE",
"498 767 LINE",
"441 767 LINE",
"430 712 LINE"
);
},
{
closed = 1;
nodes = (
"652 712 LINE",
"664 767 LINE",
"608 767 LINE",
"596 712 LINE"
);
}
);
width = 850;
}
);
leftKerningGroup = W;
note = Wdieresis;
rightKerningGroup = W;
unicode = 1E84;
},
{
glyphname = Wgrave;
lastChange = "2015-10-24 21:17:59 +0000";
layers = (
{
layerId = "D3C4CEFB-873C-4437-A63B-85583903CC89";
name = "Light Italic";
paths = (
{
closed = 1;
nodes = (
"235 0 LINE",
"506 530 LINE",
"543 0 LINE",
"606 0 LINE",
"891 644 LINE",
"837 644 LINE",
"581 67 LINE",
"540 644 LINE",
"495 644 LINE",
"482 579 LINE",
"217 67 LINE",
"206 644 LINE",
"151 644 LINE",
"165 0 LINE"
);
},
{
closed = 1;
nodes = (
"552 688 LINE",
"519 846 LINE",
"467 846 LINE",
"507 688 LINE"
);
}
);
width = 850;
}
);
leftKerningGroup = W;
note = Wgrave;
rightKerningGroup = W;
unicode = 1E80;
},
{
glyphname = X;
lastChange = "2015-10-24 21:17:55 +0000";
layers = (
{
layerId = "D3C4CEFB-873C-4437-A63B-85583903CC89";
name = "Light Italic";
paths = (
{
closed = 1;
nodes = (
"77 0 LINE",
"331 278 LINE",
"467 0 LINE",
"529 0 LINE",
"371 318 LINE",
"663 644 LINE",
"602 644 LINE",
"347 357 LINE",
"214 644 LINE",
"152 644 LINE",
"306 318 LINE",
"15 0 LINE"
);
}
);
width = 624;
}
);
note = X;
unicode = 0058;
},
{
glyphname = Y;
lastChange = "2015-10-24 21:17:55 +0000";
layers = (
{
layerId = "D3C4CEFB-873C-4437-A63B-85583903CC89";
name = "Light Italic";
paths = (
{
closed = 1;
nodes = (
"299 0 LINE",
"350 241 LINE",
"665 644 LINE",
"605 644 LINE",
"330 289 LINE",
"205 644 LINE",
"151 644 LINE",
"295 241 LINE",
"244 0 LINE"
);
}
);
width = 624;
}
);
leftKerningGroup = Y;
note = Y;
rightKerningGroup = Y;
unicode = 0059;
},
{
glyphname = Yacute;
lastChange = "2015-10-24 21:18:00 +0000";
layers = (
{
layerId = "D3C4CEFB-873C-4437-A63B-85583903CC89";
name = "Light Italic";
paths = (
{
closed = 1;
nodes = (
"299 0 LINE",
"350 241 LINE",
"665 644 LINE",
"605 644 LINE",
"330 289 LINE",
"205 644 LINE",
"151 644 LINE",
"295 241 LINE",
"244 0 LINE"
);
},
{
closed = 1;
nodes = (
"427 688 LINE",
"535 846 LINE",
"483 846 LINE",
"382 688 LINE"
);
}
);
width = 624;
}
);
leftKerningGroup = Y;
note = Yacute;
rightKerningGroup = Y;
unicode = 00DD;
},
{
glyphname = Ycircumflex;
lastChange = "2015-10-24 21:18:00 +0000";
layers = (
{
layerId = "D3C4CEFB-873C-4437-A63B-85583903CC89";
name = "Light Italic";
paths = (
{
closed = 1;
nodes = (
"299 0 LINE",
"350 241 LINE",
"665 644 LINE",
"605 644 LINE",
"330 289 LINE",
"205 644 LINE",
"151 644 LINE",
"295 241 LINE",
"244 0 LINE"
);
},
{
closed = 1;
nodes = (
"339 687 LINE",
"440 790 LINE",
"497 687 LINE",
"545 687 LINE",
"469 822 LINE",
"421 822 LINE",
"288 687 LINE"
);
}
);
width = 624;
}
);
leftKerningGroup = Y;
note = Ycircumflex;
rightKerningGroup = Y;
unicode = 0176;
},
{
glyphname = Ydieresis;
lastChange = "2015-10-24 21:18:01 +0000";
layers = (
{
layerId = "D3C4CEFB-873C-4437-A63B-85583903CC89";
name = "Light Italic";
paths = (
{
closed = 1;
nodes = (
"299 0 LINE",
"350 241 LINE",
"665 644 LINE",
"605 644 LINE",
"330 289 LINE",
"205 644 LINE",
"151 644 LINE",
"295 241 LINE",
"244 0 LINE"
);
},
{
closed = 1;
nodes = (
"369 714 LINE",
"381 769 LINE",
"324 769 LINE",
"313 714 LINE"
);
},
{
closed = 1;
nodes = (
"535 714 LINE",
"547 769 LINE",
"491 769 LINE",
"479 714 LINE"
);
}
);
width = 624;
}
);
leftKerningGroup = Y;
note = Ydieresis;
rightKerningGroup = Y;
unicode = 0178;
},
{
glyphname = Ydotaccent;
lastChange = "2015-10-24 21:17:59 +0000";
layers = (
{
layerId = "D3C4CEFB-873C-4437-A63B-85583903CC89";
name = "Light Italic";
paths = (
{
closed = 1;
nodes = (
"299 0 LINE",
"350 241 LINE",
"665 644 LINE",
"605 644 LINE",
"330 289 LINE",
"205 644 LINE",
"151 644 LINE",
"295 241 LINE",
"244 0 LINE"
);
},
{
closed = 1;
nodes = (
"451 714 LINE",
"463 770 LINE",
"406 770 LINE",
"394 714 LINE"
);
}
);
width = 624;
}
);
leftKerningGroup = Y;
note = Ydotaccent;
rightKerningGroup = Y;
unicode = 1E8E;
},
{
glyphname = Ydotbelow;
lastChange = "2015-10-24 21:17:59 +0000";
layers = (
{
layerId = "D3C4CEFB-873C-4437-A63B-85583903CC89";
name = "Light Italic";
paths = (
{
closed = 1;
nodes = (
"299 0 LINE",
"350 241 LINE",
"665 644 LINE",
"605 644 LINE",
"330 289 LINE",
"205 644 LINE",
"151 644 LINE",
"295 241 LINE",
"244 0 LINE"
);
},
{
closed = 1;
nodes = (
"273 -135 LINE",
"285 -78 LINE",
"226 -78 LINE",
"214 -135 LINE"
);
}
);
width = 624;
}
);
leftKerningGroup = Y;
note = Ydotbelow;
rightKerningGroup = Y;
unicode = 1EF4;
},
{
glyphname = Ygrave;
lastChange = "2015-10-24 21:18:00 +0000";
layers = (
{
layerId = "D3C4CEFB-873C-4437-A63B-85583903CC89";
name = "Light Italic";
paths = (
{
closed = 1;
nodes = (
"299 0 LINE",
"350 241 LINE",
"665 644 LINE",
"605 644 LINE",
"330 289 LINE",
"205 644 LINE",
"151 644 LINE",
"295 241 LINE",
"244 0 LINE"
);
},
{
closed = 1;
nodes = (
"454 688 LINE",
"421 846 LINE",
"369 846 LINE",
"409 688 LINE"
);
}
);
width = 624;
}
);
leftKerningGroup = Y;
note = Ygrave;
rightKerningGroup = Y;
unicode = 1EF2;
},
{
glyphname = Yhookabove;
lastChange = "2015-10-24 21:18:01 +0000";
layers = (
{
layerId = "D3C4CEFB-873C-4437-A63B-85583903CC89";
name = "Light Italic";
paths = (
{
closed = 1;
nodes = (
"299 0 LINE",
"350 241 LINE",
"665 644 LINE",
"605 644 LINE",
"330 289 LINE",
"205 644 LINE",
"151 644 LINE",
"295 241 LINE",
"244 0 LINE"
);
},
{
closed = 1;
nodes = (
"430 688 LINE",
"441 740 LINE",
"511 747 OFFCURVE",
"539 776 OFFCURVE",
"550 829 CURVE SMOOTH",
"562 885 OFFCURVE",
"529 917 OFFCURVE",
"453 917 CURVE SMOOTH",
"429 917 OFFCURVE",
"393 912 OFFCURVE",
"373 905 CURVE",
"365 867 LINE",
"384 874 OFFCURVE",
"414 879 OFFCURVE",
"435 879 CURVE SMOOTH",
"493 879 OFFCURVE",
"514 862 OFFCURVE",
"506 826 CURVE SMOOTH",
"498 788 OFFCURVE",
"481 771 OFFCURVE",
"400 767 CURVE",
"383 688 LINE"
);
}
);
width = 624;
}
);
leftKerningGroup = Y;
note = Yhookabove;
rightKerningGroup = Y;
unicode = 1EF6;
},
{
glyphname = Ytilde;
lastChange = "2015-10-24 21:18:00 +0000";
layers = (
{
layerId = "D3C4CEFB-873C-4437-A63B-85583903CC89";
name = "Light Italic";
paths = (
{
closed = 1;
nodes = (
"299 0 LINE",
"350 241 LINE",
"665 644 LINE",
"605 644 LINE",
"330 289 LINE",
"205 644 LINE",
"151 644 LINE",
"295 241 LINE",
"244 0 LINE"
);
},
{
closed = 1;
nodes = (
"526 713 OFFCURVE",
"555 724 OFFCURVE",
"571 742 CURVE",
"581 789 LINE",
"558 764 OFFCURVE",
"533 754 OFFCURVE",
"501 754 CURVE SMOOTH",
"455 754 OFFCURVE",
"429 791 OFFCURVE",
"377 791 CURVE SMOOTH",
"347 791 OFFCURVE",
"312 780 OFFCURVE",
"293 762 CURVE",
"283 715 LINE",
"310 742 OFFCURVE",
"339 750 OFFCURVE",
"369 750 CURVE SMOOTH",
"409 750 OFFCURVE",
"445 713 OFFCURVE",
"494 713 CURVE SMOOTH"
);
}
);
width = 624;
}
);
leftKerningGroup = Y;
note = Ytilde;
rightKerningGroup = Y;
unicode = 1EF8;
},
{
glyphname = Z;
lastChange = "2015-10-24 21:17:55 +0000";
layers = (
{
layerId = "D3C4CEFB-873C-4437-A63B-85583903CC89";
name = "Light Italic";
paths = (
{
closed = 1;
nodes = (
"478 0 LINE",
"487 44 LINE",
"95 44 LINE",
"601 605 LINE",
"609 644 LINE",
"168 644 LINE",
"159 599 LINE",
"532 599 LINE",
"22 34 LINE",
"15 0 LINE"
);
}
);
width = 568;
}
);
leftKerningGroup = Z;
note = Z;
rightKerningGroup = Z;
unicode = 005A;
},
{
glyphname = Zacute;
lastChange = "2015-10-24 21:18:00 +0000";
layers = (
{
layerId = "D3C4CEFB-873C-4437-A63B-85583903CC89";
name = "Light Italic";
paths = (
{
closed = 1;
nodes = (
"478 0 LINE",
"487 44 LINE",
"95 44 LINE",
"601 605 LINE",
"609 644 LINE",
"168 644 LINE",
"159 599 LINE",
"532 599 LINE",
"22 34 LINE",
"15 0 LINE"
);
},
{
closed = 1;
nodes = (
"430 688 LINE",
"538 846 LINE",
"486 846 LINE",
"385 688 LINE"
);
}
);
width = 568;
}
);
leftKerningGroup = Z;
note = Zacute;
rightKerningGroup = Z;
unicode = 0179;
},
{
glyphname = Zcaron;
lastChange = "2015-10-24 21:17:59 +0000";
layers = (
{
layerId = "D3C4CEFB-873C-4437-A63B-85583903CC89";
name = "Light Italic";
paths = (
{
closed = 1;
nodes = (
"478 0 LINE",
"487 44 LINE",
"95 44 LINE",
"601 605 LINE",
"609 644 LINE",
"168 644 LINE",
"159 599 LINE",
"532 599 LINE",
"22 34 LINE",
"15 0 LINE"
);
},
{
closed = 1;
nodes = (
"436 687 LINE",
"570 822 LINE",
"518 822 LINE",
"417 719 LINE",
"360 822 LINE",
"313 822 LINE",
"388 687 LINE"
);
}
);
width = 568;
}
);
leftKerningGroup = Z;
note = Zcaron;
rightKerningGroup = Z;
unicode = 017D;
},
{
glyphname = Zdotaccent;
lastChange = "2015-10-24 21:18:00 +0000";
layers = (
{
layerId = "D3C4CEFB-873C-4437-A63B-85583903CC89";
name = "Light Italic";
paths = (
{
closed = 1;
nodes = (
"478 0 LINE",
"487 44 LINE",
"95 44 LINE",
"601 605 LINE",
"609 644 LINE",
"168 644 LINE",
"159 599 LINE",
"532 599 LINE",
"22 34 LINE",
"15 0 LINE"
);
},
{
closed = 1;
nodes = (
"439 714 LINE",
"451 770 LINE",
"394 770 LINE",
"382 714 LINE"
);
}
);
width = 568;
}
);
leftKerningGroup = Z;
note = Zdotaccent;
rightKerningGroup = Z;
unicode = 017B;
},
{
glyphname = Zdotbelow;
lastChange = "2015-10-24 21:17:59 +0000";
layers = (
{
layerId = "D3C4CEFB-873C-4437-A63B-85583903CC89";
name = "Light Italic";
paths = (
{
closed = 1;
nodes = (
"478 0 LINE",
"487 44 LINE",
"95 44 LINE",
"601 605 LINE",
"609 644 LINE",
"168 644 LINE",
"159 599 LINE",
"532 599 LINE",
"22 34 LINE",
"15 0 LINE"
);
},
{
closed = 1;
nodes = (
"258 -152 LINE",
"270 -95 LINE",
"211 -95 LINE",
"199 -152 LINE"
);
}
);
width = 568;
}
);
leftKerningGroup = Z;
note = Zdotbelow;
rightKerningGroup = Z;
unicode = 1E92;
},
{
glyphname = a;
lastChange = "2015-10-24 21:18:00 +0000";
layers = (
{
layerId = "D3C4CEFB-873C-4437-A63B-85583903CC89";
name = "Light Italic";
paths = (
{
closed = 1;
nodes = (
"297 -10 OFFCURVE",
"354 10 OFFCURVE",
"409 53 CURVE",
"403 0 LINE",
"449 0 LINE",
"549 474 LINE",
"494 474 LINE",
"486 434 LINE",
"445 470 OFFCURVE",
"405 484 OFFCURVE",
"339 484 CURVE SMOOTH",
"210 484 OFFCURVE",
"98 393 OFFCURVE",
"61 221 CURVE SMOOTH",
"25 52 OFFCURVE",
"99 -10 OFFCURVE",
"224 -10 CURVE SMOOTH"
);
},
{
closed = 1;
nodes = (
"123 35 OFFCURVE",
"87 86 OFFCURVE",
"115 221 CURVE SMOOTH",
"145 362 OFFCURVE",
"228 438 OFFCURVE",
"346 438 CURVE SMOOTH",
"410 438 OFFCURVE",
"445 418 OFFCURVE",
"476 386 CURVE",
"415 99 LINE",
"364 55 OFFCURVE",
"309 35 OFFCURVE",
"247 35 CURVE SMOOTH"
);
}
);
width = 531;
}
);
leftKerningGroup = a;
note = a;
rightKerningGroup = a;
unicode = 0061;
},
{
glyphname = aacute;
lastChange = "2015-11-24 09:54:04 +0000";
layers = (
{
layerId = "D3C4CEFB-873C-4437-A63B-85583903CC89";
name = "Light Italic";
paths = (
{
closed = 1;
nodes = (
"297 -10 OFFCURVE",
"354 10 OFFCURVE",
"409 53 CURVE",
"403 0 LINE",
"449 0 LINE",
"549 474 LINE",
"494 474 LINE",
"486 434 LINE",
"445 470 OFFCURVE",
"405 484 OFFCURVE",
"339 484 CURVE SMOOTH",
"210 484 OFFCURVE",
"98 393 OFFCURVE",
"61 221 CURVE SMOOTH",
"25 52 OFFCURVE",
"99 -10 OFFCURVE",
"224 -10 CURVE SMOOTH"
);
},
{
closed = 1;
nodes = (
"123 35 OFFCURVE",
"87 86 OFFCURVE",
"115 221 CURVE SMOOTH",
"145 362 OFFCURVE",
"228 438 OFFCURVE",
"346 438 CURVE SMOOTH",
"410 438 OFFCURVE",
"445 418 OFFCURVE",
"476 386 CURVE",
"415 99 LINE",
"364 55 OFFCURVE",
"309 35 OFFCURVE",
"247 35 CURVE SMOOTH"
);
},
{
closed = 1;
nodes = (
"368 522 LINE",
"476 680 LINE",
"424 680 LINE",
"323 522 LINE"
);
}
);
width = 531;
}
);
leftKerningGroup = a;
note = aacute;
rightKerningGroup = a;
unicode = 00E1;
},
{
glyphname = abreve;
lastChange = "2015-10-24 21:18:01 +0000";
layers = (
{
layerId = "D3C4CEFB-873C-4437-A63B-85583903CC89";
name = "Light Italic";
paths = (
{
closed = 1;
nodes = (
"297 -10 OFFCURVE",
"354 10 OFFCURVE",
"409 53 CURVE",
"403 0 LINE",
"449 0 LINE",
"549 474 LINE",
"494 474 LINE",
"486 434 LINE",
"445 470 OFFCURVE",
"405 484 OFFCURVE",
"339 484 CURVE SMOOTH",
"210 484 OFFCURVE",
"98 393 OFFCURVE",
"61 221 CURVE SMOOTH",
"25 52 OFFCURVE",
"99 -10 OFFCURVE",
"224 -10 CURVE SMOOTH"
);
},
{
closed = 1;
nodes = (
"123 35 OFFCURVE",
"87 86 OFFCURVE",
"115 221 CURVE SMOOTH",
"145 362 OFFCURVE",
"228 438 OFFCURVE",
"346 438 CURVE SMOOTH",
"410 438 OFFCURVE",
"445 418 OFFCURVE",
"476 386 CURVE",
"415 99 LINE",
"364 55 OFFCURVE",
"309 35 OFFCURVE",
"247 35 CURVE SMOOTH"
);
},
{
closed = 1;
nodes = (
"428 521 OFFCURVE",
"477 568 OFFCURVE",
"491 632 CURVE",
"447 632 LINE",
"437 586 OFFCURVE",
"403 560 OFFCURVE",
"361 560 CURVE SMOOTH",
"313 560 OFFCURVE",
"298 586 OFFCURVE",
"308 632 CURVE",
"268 632 LINE",
"254 568 OFFCURVE",
"287 521 OFFCURVE",
"355 521 CURVE SMOOTH"
);
}
);
width = 531;
}
);
leftKerningGroup = a;
note = abreve;
rightKerningGroup = a;
unicode = 0103;
},
{
glyphname = abreveacute;
lastChange = "2015-10-24 21:18:01 +0000";
layers = (
{
layerId = "D3C4CEFB-873C-4437-A63B-85583903CC89";
name = "Light Italic";
paths = (
{
closed = 1;
nodes = (
"297 -10 OFFCURVE",
"354 10 OFFCURVE",
"409 53 CURVE",
"403 0 LINE",
"449 0 LINE",
"549 474 LINE",
"494 474 LINE",
"486 434 LINE",
"445 470 OFFCURVE",
"405 484 OFFCURVE",
"339 484 CURVE SMOOTH",
"210 484 OFFCURVE",
"98 393 OFFCURVE",
"61 221 CURVE SMOOTH",
"25 52 OFFCURVE",
"99 -10 OFFCURVE",
"224 -10 CURVE SMOOTH"
);
},
{
closed = 1;
nodes = (
"123 35 OFFCURVE",
"87 86 OFFCURVE",
"115 221 CURVE SMOOTH",
"145 362 OFFCURVE",
"228 438 OFFCURVE",
"346 438 CURVE SMOOTH",
"410 438 OFFCURVE",
"445 418 OFFCURVE",
"476 386 CURVE",
"415 99 LINE",
"364 55 OFFCURVE",
"309 35 OFFCURVE",
"247 35 CURVE SMOOTH"
);
},
{
closed = 1;
nodes = (
"432 522 OFFCURVE",
"504 557 OFFCURVE",
"525 654 CURVE",
"484 654 LINE",
"470 588 OFFCURVE",
"422 558 OFFCURVE",
"363 558 CURVE SMOOTH",
"294 558 OFFCURVE",
"270 588 OFFCURVE",
"284 654 CURVE",
"248 654 LINE",
"227 557 OFFCURVE",
"286 522 OFFCURVE",
"359 522 CURVE SMOOTH"
);
},
{
closed = 1;
nodes = (
"388 620 LINE",
"479 737 LINE",
"432 737 LINE",
"347 620 LINE"
);
}
);
width = 531;
}
);
leftKerningGroup = a;
note = abreveacute;
rightKerningGroup = a;
unicode = 1EAF;
},
{
glyphname = abrevedotbelow;
lastChange = "2015-11-24 09:54:10 +0000";
layers = (
{
layerId = "D3C4CEFB-873C-4437-A63B-85583903CC89";
name = "Light Italic";
paths = (
{
closed = 1;
nodes = (
"297 -10 OFFCURVE",
"354 10 OFFCURVE",
"409 53 CURVE",
"403 0 LINE",
"449 0 LINE",
"549 474 LINE",
"494 474 LINE",
"486 434 LINE",
"445 470 OFFCURVE",
"405 484 OFFCURVE",
"339 484 CURVE SMOOTH",
"210 484 OFFCURVE",
"98 393 OFFCURVE",
"61 221 CURVE SMOOTH",
"25 52 OFFCURVE",
"99 -10 OFFCURVE",
"224 -10 CURVE SMOOTH"
);
},
{
closed = 1;
nodes = (
"123 35 OFFCURVE",
"87 86 OFFCURVE",
"115 221 CURVE SMOOTH",
"145 362 OFFCURVE",
"228 438 OFFCURVE",
"346 438 CURVE SMOOTH",
"410 438 OFFCURVE",
"445 418 OFFCURVE",
"476 386 CURVE",
"415 99 LINE",
"364 55 OFFCURVE",
"309 35 OFFCURVE",
"247 35 CURVE SMOOTH"
);
},
{
closed = 1;
nodes = (
"238 -152 LINE",
"250 -95 LINE",
"191 -95 LINE",
"179 -152 LINE"
);
},
{
closed = 1;
nodes = (
"422 521 OFFCURVE",
"471 568 OFFCURVE",
"485 632 CURVE",
"441 632 LINE",
"431 586 OFFCURVE",
"397 560 OFFCURVE",
"355 560 CURVE SMOOTH",
"307 560 OFFCURVE",
"292 586 OFFCURVE",
"302 632 CURVE",
"262 632 LINE",
"248 568 OFFCURVE",
"281 521 OFFCURVE",
"349 521 CURVE SMOOTH"
);
}
);
width = 531;
}
);
leftKerningGroup = a;
note = abrevedotbelow;
rightKerningGroup = a;
unicode = 1EB7;
},
{
glyphname = abrevegrave;
lastChange = "2015-10-24 21:18:01 +0000";
layers = (
{
layerId = "D3C4CEFB-873C-4437-A63B-85583903CC89";
name = "Light Italic";
paths = (
{
closed = 1;
nodes = (
"297 -10 OFFCURVE",
"354 10 OFFCURVE",
"409 53 CURVE",
"403 0 LINE",
"449 0 LINE",
"549 474 LINE",
"494 474 LINE",
"486 434 LINE",
"445 470 OFFCURVE",
"405 484 OFFCURVE",
"339 484 CURVE SMOOTH",
"210 484 OFFCURVE",
"98 393 OFFCURVE",
"61 221 CURVE SMOOTH",
"25 52 OFFCURVE",
"99 -10 OFFCURVE",
"224 -10 CURVE SMOOTH"
);
},
{
closed = 1;
nodes = (
"123 35 OFFCURVE",
"87 86 OFFCURVE",
"115 221 CURVE SMOOTH",
"145 362 OFFCURVE",
"228 438 OFFCURVE",
"346 438 CURVE SMOOTH",
"410 438 OFFCURVE",
"445 418 OFFCURVE",
"476 386 CURVE",
"415 99 LINE",
"364 55 OFFCURVE",
"309 35 OFFCURVE",
"247 35 CURVE SMOOTH"
);
},
{
closed = 1;
nodes = (
"428 522 OFFCURVE",
"500 557 OFFCURVE",
"521 654 CURVE",
"480 654 LINE",
"466 588 OFFCURVE",
"418 558 OFFCURVE",
"359 558 CURVE SMOOTH",
"290 558 OFFCURVE",
"266 588 OFFCURVE",
"280 654 CURVE",
"244 654 LINE",
"223 557 OFFCURVE",
"282 522 OFFCURVE",
"355 522 CURVE SMOOTH"
);
},
{
closed = 1;
nodes = (
"406 620 LINE",
"372 737 LINE",
"325 737 LINE",
"366 620 LINE"
);
}
);
width = 531;
}
);
leftKerningGroup = a;
note = abrevegrave;
rightKerningGroup = a;
unicode = 1EB1;
},
{
glyphname = abrevehookabove;
lastChange = "2015-10-24 21:18:01 +0000";
layers = (
{
layerId = "D3C4CEFB-873C-4437-A63B-85583903CC89";
name = "Light Italic";
paths = (
{
closed = 1;
nodes = (
"297 -10 OFFCURVE",
"354 10 OFFCURVE",
"409 53 CURVE",
"403 0 LINE",
"449 0 LINE",
"549 474 LINE",
"494 474 LINE",
"486 434 LINE",
"445 470 OFFCURVE",
"405 484 OFFCURVE",
"339 484 CURVE SMOOTH",
"210 484 OFFCURVE",
"98 393 OFFCURVE",
"61 221 CURVE SMOOTH",
"25 52 OFFCURVE",
"99 -10 OFFCURVE",
"224 -10 CURVE SMOOTH"
);
},
{
closed = 1;
nodes = (
"123 35 OFFCURVE",
"87 86 OFFCURVE",
"115 221 CURVE SMOOTH",
"145 362 OFFCURVE",
"228 438 OFFCURVE",
"346 438 CURVE SMOOTH",
"410 438 OFFCURVE",
"445 418 OFFCURVE",
"476 386 CURVE",
"415 99 LINE",
"364 55 OFFCURVE",
"309 35 OFFCURVE",
"247 35 CURVE SMOOTH"
);
},
{
closed = 1;
nodes = (
"430 522 OFFCURVE",
"502 557 OFFCURVE",
"523 654 CURVE",
"482 654 LINE",
"468 588 OFFCURVE",
"420 558 OFFCURVE",
"361 558 CURVE SMOOTH",
"292 558 OFFCURVE",
"268 588 OFFCURVE",
"282 654 CURVE",
"246 654 LINE",
"225 557 OFFCURVE",
"284 522 OFFCURVE",
"357 522 CURVE SMOOTH"
);
},
{
closed = 1;
nodes = (
"384 610 LINE",
"392 645 LINE",
"450 653 OFFCURVE",
"478 674 OFFCURVE",
"487 717 CURVE SMOOTH",
"497 762 OFFCURVE",
"470 788 OFFCURVE",
"415 788 CURVE SMOOTH",
"389 788 OFFCURVE",
"365 783 OFFCURVE",
"346 776 CURVE",
"339 743 LINE",
"358 751 OFFCURVE",
"377 756 OFFCURVE",
"400 756 CURVE SMOOTH",
"437 756 OFFCURVE",
"451 742 OFFCURVE",
"445 714 CURVE SMOOTH",
"439 685 OFFCURVE",
"422 670 OFFCURVE",
"352 667 CURVE",
"340 610 LINE"
);
}
);
width = 531;
}
);
leftKerningGroup = a;
note = abrevehookabove;
rightKerningGroup = a;
unicode = 1EB3;
},
{
glyphname = abrevetilde;
lastChange = "2015-10-24 21:17:59 +0000";
layers = (
{
layerId = "D3C4CEFB-873C-4437-A63B-85583903CC89";
name = "Light Italic";
paths = (
{
closed = 1;
nodes = (
"297 -10 OFFCURVE",
"354 10 OFFCURVE",
"409 53 CURVE",
"403 0 LINE",
"449 0 LINE",
"549 474 LINE",
"494 474 LINE",
"486 434 LINE",
"445 470 OFFCURVE",
"405 484 OFFCURVE",
"339 484 CURVE SMOOTH",
"210 484 OFFCURVE",
"98 393 OFFCURVE",
"61 221 CURVE SMOOTH",
"25 52 OFFCURVE",
"99 -10 OFFCURVE",
"224 -10 CURVE SMOOTH"
);
},
{
closed = 1;
nodes = (
"123 35 OFFCURVE",
"87 86 OFFCURVE",
"115 221 CURVE SMOOTH",
"145 362 OFFCURVE",
"228 438 OFFCURVE",
"346 438 CURVE SMOOTH",
"410 438 OFFCURVE",
"445 418 OFFCURVE",
"476 386 CURVE",
"415 99 LINE",
"364 55 OFFCURVE",
"309 35 OFFCURVE",
"247 35 CURVE SMOOTH"
);
},
{
closed = 1;
nodes = (
"433 522 OFFCURVE",
"505 557 OFFCURVE",
"526 654 CURVE",
"485 654 LINE",
"471 588 OFFCURVE",
"423 558 OFFCURVE",
"364 558 CURVE SMOOTH",
"295 558 OFFCURVE",
"271 588 OFFCURVE",
"285 654 CURVE",
"249 654 LINE",
"228 557 OFFCURVE",
"287 522 OFFCURVE",
"360 522 CURVE SMOOTH"
);
},
{
closed = 1;
nodes = (
"486 682 OFFCURVE",
"515 692 OFFCURVE",
"532 709 CURVE",
"542 753 LINE",
"516 728 OFFCURVE",
"492 720 OFFCURVE",
"463 720 CURVE SMOOTH",
"419 720 OFFCURVE",
"398 754 OFFCURVE",
"348 754 CURVE SMOOTH",
"320 754 OFFCURVE",
"289 744 OFFCURVE",
"269 727 CURVE",
"260 684 LINE",
"287 709 OFFCURVE",
"313 716 OFFCURVE",
"342 716 CURVE SMOOTH",
"380 716 OFFCURVE",
"409 682 OFFCURVE",
"456 682 CURVE SMOOTH"
);
}
);
width = 531;
}
);
leftKerningGroup = a;
note = abrevetilde;
rightKerningGroup = a;
unicode = 1EB5;
},
{
glyphname = acaron;
lastChange = "2015-10-24 21:18:00 +0000";
layers = (
{
layerId = "D3C4CEFB-873C-4437-A63B-85583903CC89";
name = "Light Italic";
paths = (
{
closed = 1;
nodes = (
"297 -10 OFFCURVE",
"354 10 OFFCURVE",
"409 53 CURVE",
"403 0 LINE",
"449 0 LINE",
"549 474 LINE",
"494 474 LINE",
"486 434 LINE",
"445 470 OFFCURVE",
"405 484 OFFCURVE",
"339 484 CURVE SMOOTH",
"210 484 OFFCURVE",
"98 393 OFFCURVE",
"61 221 CURVE SMOOTH",
"25 52 OFFCURVE",
"99 -10 OFFCURVE",
"224 -10 CURVE SMOOTH"
);
},
{
closed = 1;
nodes = (
"123 35 OFFCURVE",
"87 86 OFFCURVE",
"115 221 CURVE SMOOTH",
"145 362 OFFCURVE",
"228 438 OFFCURVE",
"346 438 CURVE SMOOTH",
"410 438 OFFCURVE",
"445 418 OFFCURVE",
"476 386 CURVE",
"415 99 LINE",
"364 55 OFFCURVE",
"309 35 OFFCURVE",
"247 35 CURVE SMOOTH"
);
},
{
closed = 1;
nodes = (
"370 521 LINE",
"504 656 LINE",
"452 656 LINE",
"351 553 LINE",
"294 656 LINE",
"247 656 LINE",
"322 521 LINE"
);
}
);
width = 531;
}
);
leftKerningGroup = a;
note = acaron;
rightKerningGroup = a;
unicode = 01CE;
},
{
glyphname = acircumflex;
lastChange = "2015-10-24 21:18:00 +0000";
layers = (
{
layerId = "D3C4CEFB-873C-4437-A63B-85583903CC89";
name = "Light Italic";
paths = (
{
closed = 1;
nodes = (
"297 -10 OFFCURVE",
"354 10 OFFCURVE",
"409 53 CURVE",
"403 0 LINE",
"449 0 LINE",
"549 474 LINE",
"494 474 LINE",
"486 434 LINE",
"445 470 OFFCURVE",
"405 484 OFFCURVE",
"339 484 CURVE SMOOTH",
"210 484 OFFCURVE",
"98 393 OFFCURVE",
"61 221 CURVE SMOOTH",
"25 52 OFFCURVE",
"99 -10 OFFCURVE",
"224 -10 CURVE SMOOTH"
);
},
{
closed = 1;
nodes = (
"123 35 OFFCURVE",
"87 86 OFFCURVE",
"115 221 CURVE SMOOTH",
"145 362 OFFCURVE",
"228 438 OFFCURVE",
"346 438 CURVE SMOOTH",
"410 438 OFFCURVE",
"445 418 OFFCURVE",
"476 386 CURVE",
"415 99 LINE",
"364 55 OFFCURVE",
"309 35 OFFCURVE",
"247 35 CURVE SMOOTH"
);
},
{
closed = 1;
nodes = (
"271 521 LINE",
"372 624 LINE",
"429 521 LINE",
"477 521 LINE",
"401 656 LINE",
"353 656 LINE",
"220 521 LINE"
);
}
);
width = 531;
}
);
leftKerningGroup = a;
note = acircumflex;
rightKerningGroup = a;
unicode = 00E2;
},
{
glyphname = acircumflexacute;
lastChange = "2015-11-24 09:54:18 +0000";
layers = (
{
layerId = "D3C4CEFB-873C-4437-A63B-85583903CC89";
name = "Light Italic";
paths = (
{
closed = 1;
nodes = (
"297 -10 OFFCURVE",
"354 10 OFFCURVE",
"409 53 CURVE",
"403 0 LINE",
"449 0 LINE",
"549 474 LINE",
"494 474 LINE",
"486 434 LINE",
"445 470 OFFCURVE",
"405 484 OFFCURVE",
"339 484 CURVE SMOOTH",
"210 484 OFFCURVE",
"98 393 OFFCURVE",
"61 221 CURVE SMOOTH",
"25 52 OFFCURVE",
"99 -10 OFFCURVE",
"224 -10 CURVE SMOOTH"
);
},
{
closed = 1;
nodes = (
"123 35 OFFCURVE",
"87 86 OFFCURVE",
"115 221 CURVE SMOOTH",
"145 362 OFFCURVE",
"228 438 OFFCURVE",
"346 438 CURVE SMOOTH",
"410 438 OFFCURVE",
"445 418 OFFCURVE",
"476 386 CURVE",
"415 99 LINE",
"364 55 OFFCURVE",
"309 35 OFFCURVE",
"247 35 CURVE SMOOTH"
);
},
{
closed = 1;
nodes = (
"277 521 LINE",
"373 606 LINE",
"433 521 LINE",
"479 521 LINE",
"399 631 LINE",
"351 631 LINE",
"225 521 LINE"
);
},
{
closed = 1;
nodes = (
"484 627 LINE",
"574 744 LINE",
"528 744 LINE",
"443 627 LINE"
);
}
);
width = 531;
}
);
leftKerningGroup = a;
note = acircumflexacute;
rightKerningGroup = a;
unicode = 1EA5;
},
{
glyphname = acircumflexdotbelow;
lastChange = "2015-11-24 09:54:26 +0000";
layers = (
{
layerId = "D3C4CEFB-873C-4437-A63B-85583903CC89";
name = "Light Italic";
paths = (
{
closed = 1;
nodes = (
"297 -10 OFFCURVE",
"354 10 OFFCURVE",
"409 53 CURVE",
"403 0 LINE",
"449 0 LINE",
"549 474 LINE",
"494 474 LINE",
"486 434 LINE",
"445 470 OFFCURVE",
"405 484 OFFCURVE",
"339 484 CURVE SMOOTH",
"210 484 OFFCURVE",
"98 393 OFFCURVE",
"61 221 CURVE SMOOTH",
"25 52 OFFCURVE",
"99 -10 OFFCURVE",
"224 -10 CURVE SMOOTH"
);
},
{
closed = 1;
nodes = (
"123 35 OFFCURVE",
"87 86 OFFCURVE",
"115 221 CURVE SMOOTH",
"145 362 OFFCURVE",
"228 438 OFFCURVE",
"346 438 CURVE SMOOTH",
"410 438 OFFCURVE",
"445 418 OFFCURVE",
"476 386 CURVE",
"415 99 LINE",
"364 55 OFFCURVE",
"309 35 OFFCURVE",
"247 35 CURVE SMOOTH"
);
},
{
closed = 1;
nodes = (
"234 -152 LINE",
"246 -95 LINE",
"187 -95 LINE",
"175 -152 LINE"
);
},
{
closed = 1;
nodes = (
"269 521 LINE",
"370 624 LINE",
"427 521 LINE",
"475 521 LINE",
"399 656 LINE",
"351 656 LINE",
"218 521 LINE"
);
}
);
width = 531;
}
);
leftKerningGroup = a;
note = acircumflexdotbelow;
rightKerningGroup = a;
unicode = 1EAD;
},
{
glyphname = acircumflexgrave;
lastChange = "2015-10-24 21:17:59 +0000";
layers = (
{
layerId = "D3C4CEFB-873C-4437-A63B-85583903CC89";
name = "Light Italic";
paths = (
{
closed = 1;
nodes = (
"297 -10 OFFCURVE",
"354 10 OFFCURVE",
"409 53 CURVE",
"403 0 LINE",
"449 0 LINE",
"549 474 LINE",
"494 474 LINE",
"486 434 LINE",
"445 470 OFFCURVE",
"405 484 OFFCURVE",
"339 484 CURVE SMOOTH",
"210 484 OFFCURVE",
"98 393 OFFCURVE",
"61 221 CURVE SMOOTH",
"25 52 OFFCURVE",
"99 -10 OFFCURVE",
"224 -10 CURVE SMOOTH"
);
},
{
closed = 1;
nodes = (
"123 35 OFFCURVE",
"87 86 OFFCURVE",
"115 221 CURVE SMOOTH",
"145 362 OFFCURVE",
"228 438 OFFCURVE",
"346 438 CURVE SMOOTH",
"410 438 OFFCURVE",
"445 418 OFFCURVE",
"476 386 CURVE",
"415 99 LINE",
"364 55 OFFCURVE",
"309 35 OFFCURVE",
"247 35 CURVE SMOOTH"
);
},
{
closed = 1;
nodes = (
"269 521 LINE",
"365 606 LINE",
"425 521 LINE",
"471 521 LINE",
"391 631 LINE",
"343 631 LINE",
"217 521 LINE"
);
},
{
closed = 1;
nodes = (
"296 627 LINE",
"262 744 LINE",
"215 744 LINE",
"256 627 LINE"
);
}
);
width = 531;
}
);
leftKerningGroup = a;
note = acircumflexgrave;
rightKerningGroup = a;
unicode = 1EA7;
},
{
glyphname = acircumflexhookabove;
lastChange = "2015-11-24 09:54:31 +0000";
layers = (
{
layerId = "D3C4CEFB-873C-4437-A63B-85583903CC89";
name = "Light Italic";
paths = (
{
closed = 1;
nodes = (
"297 -10 OFFCURVE",
"354 10 OFFCURVE",
"409 53 CURVE",
"403 0 LINE",
"449 0 LINE",
"549 474 LINE",
"494 474 LINE",
"486 434 LINE",
"445 470 OFFCURVE",
"405 484 OFFCURVE",
"339 484 CURVE SMOOTH",
"210 484 OFFCURVE",
"98 393 OFFCURVE",
"61 221 CURVE SMOOTH",
"25 52 OFFCURVE",
"99 -10 OFFCURVE",
"224 -10 CURVE SMOOTH"
);
},
{
closed = 1;
nodes = (
"123 35 OFFCURVE",
"87 86 OFFCURVE",
"115 221 CURVE SMOOTH",
"145 362 OFFCURVE",
"228 438 OFFCURVE",
"346 438 CURVE SMOOTH",
"410 438 OFFCURVE",
"445 418 OFFCURVE",
"476 386 CURVE",
"415 99 LINE",
"364 55 OFFCURVE",
"309 35 OFFCURVE",
"247 35 CURVE SMOOTH"
);
},
{
closed = 1;
nodes = (
"271 521 LINE",
"366 606 LINE",
"426 521 LINE",
"472 521 LINE",
"392 631 LINE",
"344 631 LINE",
"218 521 LINE"
);
},
{
closed = 1;
nodes = (
"485 606 LINE",
"493 642 LINE",
"549 648 OFFCURVE",
"578 671 OFFCURVE",
"587 713 CURVE SMOOTH",
"596 759 OFFCURVE",
"569 785 OFFCURVE",
"514 785 CURVE SMOOTH",
"488 785 OFFCURVE",
"465 780 OFFCURVE",
"446 773 CURVE",
"439 739 LINE",
"458 747 OFFCURVE",
"477 752 OFFCURVE",
"500 752 CURVE SMOOTH",
"536 752 OFFCURVE",
"550 738 OFFCURVE",
"544 711 CURVE SMOOTH",
"538 683 OFFCURVE",
"522 669 OFFCURVE",
"452 665 CURVE",
"440 606 LINE"
);
}
);
width = 531;
}
);
leftKerningGroup = a;
note = acircumflexhookabove;
rightKerningGroup = a;
unicode = 1EA9;
},
{
glyphname = acircumflextilde;
lastChange = "2015-10-24 21:18:01 +0000";
layers = (
{
layerId = "D3C4CEFB-873C-4437-A63B-85583903CC89";
name = "Light Italic";
paths = (
{
closed = 1;
nodes = (
"297 -10 OFFCURVE",
"354 10 OFFCURVE",
"409 53 CURVE",
"403 0 LINE",
"449 0 LINE",
"549 474 LINE",
"494 474 LINE",
"486 434 LINE",
"445 470 OFFCURVE",
"405 484 OFFCURVE",
"339 484 CURVE SMOOTH",
"210 484 OFFCURVE",
"98 393 OFFCURVE",
"61 221 CURVE SMOOTH",
"25 52 OFFCURVE",
"99 -10 OFFCURVE",
"224 -10 CURVE SMOOTH"
);
},
{
closed = 1;
nodes = (
"123 35 OFFCURVE",
"87 86 OFFCURVE",
"115 221 CURVE SMOOTH",
"145 362 OFFCURVE",
"228 438 OFFCURVE",
"346 438 CURVE SMOOTH",
"410 438 OFFCURVE",
"445 418 OFFCURVE",
"476 386 CURVE",
"415 99 LINE",
"364 55 OFFCURVE",
"309 35 OFFCURVE",
"247 35 CURVE SMOOTH"
);
},
{
closed = 1;
nodes = (
"277 521 LINE",
"372 606 LINE",
"432 521 LINE",
"478 521 LINE",
"398 631 LINE",
"350 631 LINE",
"224 521 LINE"
);
},
{
closed = 1;
nodes = (
"471 639 OFFCURVE",
"499 649 OFFCURVE",
"516 665 CURVE",
"526 709 LINE",
"501 685 OFFCURVE",
"477 677 OFFCURVE",
"448 677 CURVE SMOOTH",
"404 677 OFFCURVE",
"383 710 OFFCURVE",
"333 710 CURVE SMOOTH",
"305 710 OFFCURVE",
"274 700 OFFCURVE",
"255 684 CURVE",
"245 640 LINE",
"272 665 OFFCURVE",
"298 672 OFFCURVE",
"327 672 CURVE SMOOTH",
"365 672 OFFCURVE",
"394 639 OFFCURVE",
"441 639 CURVE SMOOTH"
);
}
);
width = 531;
}
);
leftKerningGroup = a;
note = acircumflextilde;
rightKerningGroup = a;
unicode = 1EAB;
},
{
glyphname = adieresis;
lastChange = "2015-10-24 21:18:01 +0000";
layers = (
{
layerId = "D3C4CEFB-873C-4437-A63B-85583903CC89";
name = "Light Italic";
paths = (
{
closed = 1;
nodes = (
"297 -10 OFFCURVE",
"354 10 OFFCURVE",
"409 53 CURVE",
"403 0 LINE",
"449 0 LINE",
"549 474 LINE",
"494 474 LINE",
"486 434 LINE",
"445 470 OFFCURVE",
"405 484 OFFCURVE",
"339 484 CURVE SMOOTH",
"210 484 OFFCURVE",
"98 393 OFFCURVE",
"61 221 CURVE SMOOTH",
"25 52 OFFCURVE",
"99 -10 OFFCURVE",
"224 -10 CURVE SMOOTH"
);
},
{
closed = 1;
nodes = (
"123 35 OFFCURVE",
"87 86 OFFCURVE",
"115 221 CURVE SMOOTH",
"145 362 OFFCURVE",
"228 438 OFFCURVE",
"346 438 CURVE SMOOTH",
"410 438 OFFCURVE",
"445 418 OFFCURVE",
"476 386 CURVE",
"415 99 LINE",
"364 55 OFFCURVE",
"309 35 OFFCURVE",
"247 35 CURVE SMOOTH"
);
},
{
closed = 1;
nodes = (
"303 548 LINE",
"315 603 LINE",
"258 603 LINE",
"247 548 LINE"
);
},
{
closed = 1;
nodes = (
"469 548 LINE",
"481 603 LINE",
"425 603 LINE",
"413 548 LINE"
);
}
);
width = 531;
}
);
leftKerningGroup = a;
note = adieresis;
rightKerningGroup = a;
unicode = 00E4;
},
{
glyphname = adotbelow;
lastChange = "2015-11-24 09:54:37 +0000";
layers = (
{
layerId = "D3C4CEFB-873C-4437-A63B-85583903CC89";
name = "Light Italic";
paths = (
{
closed = 1;
nodes = (
"297 -10 OFFCURVE",
"354 10 OFFCURVE",
"409 53 CURVE",
"403 0 LINE",
"449 0 LINE",
"549 474 LINE",
"494 474 LINE",
"486 434 LINE",
"445 470 OFFCURVE",
"405 484 OFFCURVE",
"339 484 CURVE SMOOTH",
"210 484 OFFCURVE",
"98 393 OFFCURVE",
"61 221 CURVE SMOOTH",
"25 52 OFFCURVE",
"99 -10 OFFCURVE",
"224 -10 CURVE SMOOTH"
);
},
{
closed = 1;
nodes = (
"123 35 OFFCURVE",
"87 86 OFFCURVE",
"115 221 CURVE SMOOTH",
"145 362 OFFCURVE",
"228 438 OFFCURVE",
"346 438 CURVE SMOOTH",
"410 438 OFFCURVE",
"445 418 OFFCURVE",
"476 386 CURVE",
"415 99 LINE",
"364 55 OFFCURVE",
"309 35 OFFCURVE",
"247 35 CURVE SMOOTH"
);
},
{
closed = 1;
nodes = (
"236 -152 LINE",
"248 -95 LINE",
"189 -95 LINE",
"177 -152 LINE"
);
}
);
width = 531;
}
);
leftKerningGroup = a;
note = adotbelow;
rightKerningGroup = a;
unicode = 1EA1;
},
{
glyphname = agrave;
lastChange = "2015-10-24 21:18:00 +0000";
layers = (
{
layerId = "D3C4CEFB-873C-4437-A63B-85583903CC89";
name = "Light Italic";
paths = (
{
closed = 1;
nodes = (
"297 -10 OFFCURVE",
"354 10 OFFCURVE",
"409 53 CURVE",
"403 0 LINE",
"449 0 LINE",
"549 474 LINE",
"494 474 LINE",
"486 434 LINE",
"445 470 OFFCURVE",
"405 484 OFFCURVE",
"339 484 CURVE SMOOTH",
"210 484 OFFCURVE",
"98 393 OFFCURVE",
"61 221 CURVE SMOOTH",
"25 52 OFFCURVE",
"99 -10 OFFCURVE",
"224 -10 CURVE SMOOTH"
);
},
{
closed = 1;
nodes = (
"123 35 OFFCURVE",
"87 86 OFFCURVE",
"115 221 CURVE SMOOTH",
"145 362 OFFCURVE",
"228 438 OFFCURVE",
"346 438 CURVE SMOOTH",
"410 438 OFFCURVE",
"445 418 OFFCURVE",
"476 386 CURVE",
"415 99 LINE",
"364 55 OFFCURVE",
"309 35 OFFCURVE",
"247 35 CURVE SMOOTH"
);
},
{
closed = 1;
nodes = (
"384 522 LINE",
"351 680 LINE",
"299 680 LINE",
"339 522 LINE"
);
}
);
width = 531;
}
);
leftKerningGroup = a;
note = agrave;
rightKerningGroup = a;
unicode = 00E0;
},
{
glyphname = ahookabove;
lastChange = "2015-10-24 21:18:01 +0000";
layers = (
{
layerId = "D3C4CEFB-873C-4437-A63B-85583903CC89";
name = "Light Italic";
paths = (
{
closed = 1;
nodes = (
"297 -10 OFFCURVE",
"354 10 OFFCURVE",
"409 53 CURVE",
"403 0 LINE",
"449 0 LINE",
"549 474 LINE",
"494 474 LINE",
"486 434 LINE",
"445 470 OFFCURVE",
"405 484 OFFCURVE",
"339 484 CURVE SMOOTH",
"210 484 OFFCURVE",
"98 393 OFFCURVE",
"61 221 CURVE SMOOTH",
"25 52 OFFCURVE",
"99 -10 OFFCURVE",
"224 -10 CURVE SMOOTH"
);
},
{
closed = 1;
nodes = (
"123 35 OFFCURVE",
"87 86 OFFCURVE",
"115 221 CURVE SMOOTH",
"145 362 OFFCURVE",
"228 438 OFFCURVE",
"346 438 CURVE SMOOTH",
"410 438 OFFCURVE",
"445 418 OFFCURVE",
"476 386 CURVE",
"415 99 LINE",
"364 55 OFFCURVE",
"309 35 OFFCURVE",
"247 35 CURVE SMOOTH"
);
},
{
closed = 1;
nodes = (
"363 517 LINE",
"374 569 LINE",
"444 576 OFFCURVE",
"472 605 OFFCURVE",
"483 658 CURVE SMOOTH",
"495 714 OFFCURVE",
"462 746 OFFCURVE",
"386 746 CURVE SMOOTH",
"362 746 OFFCURVE",
"326 741 OFFCURVE",
"306 734 CURVE",
"298 696 LINE",
"317 703 OFFCURVE",
"347 708 OFFCURVE",
"368 708 CURVE SMOOTH",
"426 708 OFFCURVE",
"447 691 OFFCURVE",
"439 655 CURVE SMOOTH",
"431 617 OFFCURVE",
"414 600 OFFCURVE",
"333 596 CURVE",
"316 517 LINE"
);
}
);
width = 531;
}
);
leftKerningGroup = a;
note = ahookabove;
rightKerningGroup = a;
unicode = 1EA3;
},
{
glyphname = "alpha-latin";
lastChange = "2015-11-24 09:54:44 +0000";
layers = (
{
layerId = "D3C4CEFB-873C-4437-A63B-85583903CC89";
name = "Light Italic";
paths = (
{
closed = 1;
nodes = (
"297 -10 OFFCURVE",
"354 10 OFFCURVE",
"409 53 CURVE",
"403 0 LINE",
"449 0 LINE",
"549 474 LINE",
"494 474 LINE",
"486 434 LINE",
"445 470 OFFCURVE",
"405 484 OFFCURVE",
"339 484 CURVE SMOOTH",
"210 484 OFFCURVE",
"98 393 OFFCURVE",
"61 221 CURVE SMOOTH",
"25 48 OFFCURVE",
"101 -10 OFFCURVE",
"224 -10 CURVE SMOOTH"
);
},
{
closed = 1;
nodes = (
"119 35 OFFCURVE",
"87 86 OFFCURVE",
"115 221 CURVE SMOOTH",
"145 362 OFFCURVE",
"228 438 OFFCURVE",
"346 438 CURVE SMOOTH",
"410 438 OFFCURVE",
"445 418 OFFCURVE",
"476 386 CURVE",
"415 99 LINE",
"364 55 OFFCURVE",
"309 35 OFFCURVE",
"247 35 CURVE SMOOTH"
);
}
);
width = 531;
}
);
leftKerningGroup = a;
note = ascript;
rightKerningGroup = a;
unicode = 0251;
},
{
glyphname = amacron;
lastChange = "2015-10-24 21:18:01 +0000";
layers = (
{
layerId = "D3C4CEFB-873C-4437-A63B-85583903CC89";
name = "Light Italic";
paths = (
{
closed = 1;
nodes = (
"297 -10 OFFCURVE",
"354 10 OFFCURVE",
"409 53 CURVE",
"403 0 LINE",
"449 0 LINE",
"549 474 LINE",
"494 474 LINE",
"486 434 LINE",
"445 470 OFFCURVE",
"405 484 OFFCURVE",
"339 484 CURVE SMOOTH",
"210 484 OFFCURVE",
"98 393 OFFCURVE",
"61 221 CURVE SMOOTH",
"25 52 OFFCURVE",
"99 -10 OFFCURVE",
"224 -10 CURVE SMOOTH"
);
},
{
closed = 1;
nodes = (
"123 35 OFFCURVE",
"87 86 OFFCURVE",
"115 221 CURVE SMOOTH",
"145 362 OFFCURVE",
"228 438 OFFCURVE",
"346 438 CURVE SMOOTH",
"410 438 OFFCURVE",
"445 418 OFFCURVE",
"476 386 CURVE",
"415 99 LINE",
"364 55 OFFCURVE",
"309 35 OFFCURVE",
"247 35 CURVE SMOOTH"
);
},
{
closed = 1;
nodes = (
"491 549 LINE",
"500 591 LINE",
"224 591 LINE",
"215 549 LINE"
);
}
);
width = 531;
}
);
leftKerningGroup = a;
note = amacron;
rightKerningGroup = a;
unicode = 0101;
},
{
glyphname = aogonek;
lastChange = "2015-10-24 21:18:00 +0000";
layers = (
{
layerId = "D3C4CEFB-873C-4437-A63B-85583903CC89";
name = "Light Italic";
paths = (
{
closed = 1;
nodes = (
"392 -220 OFFCURVE",
"416 -217 OFFCURVE",
"433 -209 CURVE",
"442 -168 LINE",
"428 -175 OFFCURVE",
"407 -179 OFFCURVE",
"390 -179 CURVE SMOOTH",
"353 -179 OFFCURVE",
"340 -165 OFFCURVE",
"348 -128 CURVE SMOOTH",
"358 -83 OFFCURVE",
"392 -37 OFFCURVE",
"449 0 CURVE",
"549 474 LINE",
"494 474 LINE",
"486 434 LINE",
"445 470 OFFCURVE",
"405 484 OFFCURVE",
"339 484 CURVE SMOOTH",
"210 484 OFFCURVE",
"98 393 OFFCURVE",
"61 221 CURVE SMOOTH",
"25 52 OFFCURVE",
"99 -10 OFFCURVE",
"224 -10 CURVE SMOOTH",
"297 -10 OFFCURVE",
"354 10 OFFCURVE",
"409 53 CURVE",
"403 0 LINE",
"355 -29 OFFCURVE",
"311 -80 OFFCURVE",
"300 -134 CURVE SMOOTH",
"287 -197 OFFCURVE",
"322 -220 OFFCURVE",
"373 -220 CURVE SMOOTH"
);
},
{
closed = 1;
nodes = (
"123 35 OFFCURVE",
"87 86 OFFCURVE",
"115 221 CURVE SMOOTH",
"145 362 OFFCURVE",
"228 438 OFFCURVE",
"346 438 CURVE SMOOTH",
"410 438 OFFCURVE",
"445 418 OFFCURVE",
"476 386 CURVE",
"415 99 LINE",
"364 55 OFFCURVE",
"309 35 OFFCURVE",
"247 35 CURVE SMOOTH"
);
}
);
width = 560;
}
);
leftKerningGroup = a;
note = aogonek;
rightKerningGroup = a;
unicode = 0105;
},
{
glyphname = aring;
lastChange = "2015-10-24 21:18:00 +0000";
layers = (
{
layerId = "D3C4CEFB-873C-4437-A63B-85583903CC89";
name = "Light Italic";
paths = (
{
closed = 1;
nodes = (
"297 -10 OFFCURVE",
"354 10 OFFCURVE",
"409 53 CURVE",
"403 0 LINE",
"449 0 LINE",
"549 474 LINE",
"494 474 LINE",
"486 434 LINE",
"445 470 OFFCURVE",
"405 484 OFFCURVE",
"339 484 CURVE SMOOTH",
"210 484 OFFCURVE",
"98 393 OFFCURVE",
"61 221 CURVE SMOOTH",
"25 52 OFFCURVE",
"99 -10 OFFCURVE",
"224 -10 CURVE SMOOTH"
);
},
{
closed = 1;
nodes = (
"123 35 OFFCURVE",
"87 86 OFFCURVE",
"115 221 CURVE SMOOTH",
"145 362 OFFCURVE",
"228 438 OFFCURVE",
"346 438 CURVE SMOOTH",
"410 438 OFFCURVE",
"445 418 OFFCURVE",
"476 386 CURVE",
"415 99 LINE",
"364 55 OFFCURVE",
"309 35 OFFCURVE",
"247 35 CURVE SMOOTH"
);
},
{
closed = 1;
nodes = (
"419 521 OFFCURVE",
"466 566 OFFCURVE",
"478 622 CURVE SMOOTH",
"490 679 OFFCURVE",
"457 724 OFFCURVE",
"397 724 CURVE SMOOTH",
"332 724 OFFCURVE",
"285 679 OFFCURVE",
"273 622 CURVE SMOOTH",
"261 566 OFFCURVE",
"295 521 OFFCURVE",
"354 521 CURVE SMOOTH"
);
},
{
closed = 1;
nodes = (
"317 557 OFFCURVE",
"301 585 OFFCURVE",
"309 622 CURVE SMOOTH",
"317 660 OFFCURVE",
"351 688 OFFCURVE",
"389 688 CURVE SMOOTH",
"434 688 OFFCURVE",
"449 660 OFFCURVE",
"441 622 CURVE SMOOTH",
"433 585 OFFCURVE",
"400 557 OFFCURVE",
"361 557 CURVE SMOOTH"
);
}
);
width = 531;
}
);
leftKerningGroup = a;
note = aring;
rightKerningGroup = a;
unicode = 00E5;
},
{
glyphname = aringacute;
lastChange = "2015-10-24 21:18:00 +0000";
layers = (
{
layerId = "D3C4CEFB-873C-4437-A63B-85583903CC89";
name = "Light Italic";
paths = (
{
closed = 1;
nodes = (
"297 -10 OFFCURVE",
"354 10 OFFCURVE",
"409 53 CURVE",
"403 0 LINE",
"449 0 LINE",
"549 474 LINE",
"494 474 LINE",
"486 434 LINE",
"445 470 OFFCURVE",
"405 484 OFFCURVE",
"339 484 CURVE SMOOTH",
"210 484 OFFCURVE",
"98 393 OFFCURVE",
"61 221 CURVE SMOOTH",
"25 52 OFFCURVE",
"99 -10 OFFCURVE",
"224 -10 CURVE SMOOTH"
);
},
{
closed = 1;
nodes = (
"123 35 OFFCURVE",
"87 86 OFFCURVE",
"115 221 CURVE SMOOTH",
"145 362 OFFCURVE",
"228 438 OFFCURVE",
"346 438 CURVE SMOOTH",
"410 438 OFFCURVE",
"445 418 OFFCURVE",
"476 386 CURVE",
"415 99 LINE",
"364 55 OFFCURVE",
"309 35 OFFCURVE",
"247 35 CURVE SMOOTH"
);
},
{
closed = 1;
nodes = (
"412 520 OFFCURVE",
"459 565 OFFCURVE",
"471 621 CURVE SMOOTH",
"483 678 OFFCURVE",
"450 723 OFFCURVE",
"390 723 CURVE SMOOTH",
"325 723 OFFCURVE",
"278 678 OFFCURVE",
"266 621 CURVE SMOOTH",
"254 565 OFFCURVE",
"288 520 OFFCURVE",
"347 520 CURVE SMOOTH"
);
},
{
closed = 1;
nodes = (
"310 556 OFFCURVE",
"294 584 OFFCURVE",
"302 621 CURVE SMOOTH",
"310 659 OFFCURVE",
"344 687 OFFCURVE",
"382 687 CURVE SMOOTH",
"427 687 OFFCURVE",
"442 659 OFFCURVE",
"434 621 CURVE SMOOTH",
"426 584 OFFCURVE",
"393 556 OFFCURVE",
"354 556 CURVE SMOOTH"
);
},
{
closed = 1;
nodes = (
"445 781 LINE",
"553 907 LINE",
"501 907 LINE",
"400 781 LINE"
);
}
);
width = 531;
}
);
leftKerningGroup = a;
note = aringacute;
rightKerningGroup = a;
unicode = 01FB;
},
{
glyphname = atilde;
lastChange = "2015-10-24 21:18:00 +0000";
layers = (
{
layerId = "D3C4CEFB-873C-4437-A63B-85583903CC89";
name = "Light Italic";
paths = (
{
closed = 1;
nodes = (
"297 -10 OFFCURVE",
"354 10 OFFCURVE",
"409 53 CURVE",
"403 0 LINE",
"449 0 LINE",
"549 474 LINE",
"494 474 LINE",
"486 434 LINE",
"445 470 OFFCURVE",
"405 484 OFFCURVE",
"339 484 CURVE SMOOTH",
"210 484 OFFCURVE",
"98 393 OFFCURVE",
"61 221 CURVE SMOOTH",
"25 52 OFFCURVE",
"99 -10 OFFCURVE",
"224 -10 CURVE SMOOTH"
);
},
{
closed = 1;
nodes = (
"123 35 OFFCURVE",
"87 86 OFFCURVE",
"115 221 CURVE SMOOTH",
"145 362 OFFCURVE",
"228 438 OFFCURVE",
"346 438 CURVE SMOOTH",
"410 438 OFFCURVE",
"445 418 OFFCURVE",
"476 386 CURVE",
"415 99 LINE",
"364 55 OFFCURVE",
"309 35 OFFCURVE",
"247 35 CURVE SMOOTH"
);
},
{
closed = 1;
nodes = (
"457 547 OFFCURVE",
"486 558 OFFCURVE",
"502 576 CURVE",
"512 623 LINE",
"489 598 OFFCURVE",
"464 588 OFFCURVE",
"432 588 CURVE SMOOTH",
"386 588 OFFCURVE",
"360 625 OFFCURVE",
"308 625 CURVE SMOOTH",
"278 625 OFFCURVE",
"243 614 OFFCURVE",
"224 596 CURVE",
"214 549 LINE",
"241 576 OFFCURVE",
"270 584 OFFCURVE",
"300 584 CURVE SMOOTH",
"340 584 OFFCURVE",
"376 547 OFFCURVE",
"425 547 CURVE SMOOTH"
);
}
);
width = 531;
}
);
leftKerningGroup = a;
note = atilde;
rightKerningGroup = a;
unicode = 00E3;
},
{
glyphname = ae;
lastChange = "2015-10-24 21:17:59 +0000";
layers = (
{
layerId = "D3C4CEFB-873C-4437-A63B-85583903CC89";
name = "Light Italic";
paths = (
{
closed = 1;
nodes = (
"290 -10 OFFCURVE",
"370 33 OFFCURVE",
"418 94 CURVE",
"438 22 OFFCURVE",
"499 -10 OFFCURVE",
"611 -10 CURVE SMOOTH",
"660 -10 OFFCURVE",
"712 -1 OFFCURVE",
"756 15 CURVE",
"765 60 LINE",
"721 44 OFFCURVE",
"675 35 OFFCURVE",
"631 35 CURVE SMOOTH",
"479 35 OFFCURVE",
"444 82 OFFCURVE",
"467 208 CURVE",
"828 208 LINE",
"846 294 LINE SMOOTH",
"869 400 OFFCURVE",
"823 484 OFFCURVE",
"687 484 CURVE SMOOTH",
"596 484 OFFCURVE",
"527 452 OFFCURVE",
"482 393 CURVE",
"472 453 OFFCURVE",
"422 484 OFFCURVE",
"332 484 CURVE SMOOTH",
"269 484 OFFCURVE",
"210 474 OFFCURVE",
"166 458 CURVE",
"156 411 LINE",
"204 427 OFFCURVE",
"258 437 OFFCURVE",
"314 437 CURVE SMOOTH",
"424 437 OFFCURVE",
"450 387 OFFCURVE",
"431 301 CURVE SMOOTH",
"424 268 LINE",
"247 268 LINE SMOOTH",
"119 268 OFFCURVE",
"59 210 OFFCURVE",
"41 126 CURVE SMOOTH",
"21 31 OFFCURVE",
"87 -10 OFFCURVE",
"177 -10 CURVE SMOOTH"
);
},
{
closed = 1;
nodes = (
"124 36 OFFCURVE",
"81 60 OFFCURVE",
"95 126 CURVE SMOOTH",
"109 190 OFFCURVE",
"146 224 OFFCURVE",
"240 224 CURVE SMOOTH",
"415 224 LINE",
"396 136 LINE",
"359 70 OFFCURVE",
"294 36 OFFCURVE",
"201 36 CURVE SMOOTH"
);
},
{
closed = 1;
nodes = (
"503 377 OFFCURVE",
"554 438 OFFCURVE",
"679 438 CURVE SMOOTH",
"792 438 OFFCURVE",
"814 384 OFFCURVE",
"795 296 CURVE SMOOTH",
"786 251 LINE",
"476 251 LINE"
);
}
);
width = 879;
}
);
leftKerningGroup = a;
note = ae;
rightKerningGroup = e;
unicode = 00E6;
},
{
glyphname = aeacute;
lastChange = "2015-10-24 21:18:00 +0000";
layers = (
{
layerId = "D3C4CEFB-873C-4437-A63B-85583903CC89";
name = "Light Italic";
paths = (
{
closed = 1;
nodes = (
"290 -10 OFFCURVE",
"370 33 OFFCURVE",
"418 94 CURVE",
"438 22 OFFCURVE",
"499 -10 OFFCURVE",
"611 -10 CURVE SMOOTH",
"660 -10 OFFCURVE",
"712 -1 OFFCURVE",
"756 15 CURVE",
"765 60 LINE",
"721 44 OFFCURVE",
"675 35 OFFCURVE",
"631 35 CURVE SMOOTH",
"479 35 OFFCURVE",
"444 82 OFFCURVE",
"467 208 CURVE",
"828 208 LINE",
"846 294 LINE SMOOTH",
"869 400 OFFCURVE",
"823 484 OFFCURVE",
"687 484 CURVE SMOOTH",
"596 484 OFFCURVE",
"527 452 OFFCURVE",
"482 393 CURVE",
"472 453 OFFCURVE",
"422 484 OFFCURVE",
"332 484 CURVE SMOOTH",
"269 484 OFFCURVE",
"210 474 OFFCURVE",
"166 458 CURVE",
"156 411 LINE",
"204 427 OFFCURVE",
"258 437 OFFCURVE",
"314 437 CURVE SMOOTH",
"424 437 OFFCURVE",
"450 387 OFFCURVE",
"431 301 CURVE SMOOTH",
"424 268 LINE",
"247 268 LINE SMOOTH",
"119 268 OFFCURVE",
"59 210 OFFCURVE",
"41 126 CURVE SMOOTH",
"21 31 OFFCURVE",
"87 -10 OFFCURVE",
"177 -10 CURVE SMOOTH"
);
},
{
closed = 1;
nodes = (
"124 36 OFFCURVE",
"81 60 OFFCURVE",
"95 126 CURVE SMOOTH",
"109 190 OFFCURVE",
"146 224 OFFCURVE",
"240 224 CURVE SMOOTH",
"415 224 LINE",
"396 136 LINE",
"359 70 OFFCURVE",
"294 36 OFFCURVE",
"201 36 CURVE SMOOTH"
);
},
{
closed = 1;
nodes = (
"503 377 OFFCURVE",
"554 438 OFFCURVE",
"679 438 CURVE SMOOTH",
"792 438 OFFCURVE",
"814 384 OFFCURVE",
"795 296 CURVE SMOOTH",
"786 251 LINE",
"476 251 LINE"
);
},
{
closed = 1;
nodes = (
"528 522 LINE",
"636 680 LINE",
"584 680 LINE",
"483 522 LINE"
);
}
);
width = 879;
}
);
leftKerningGroup = a;
note = aeacute;
rightKerningGroup = e;
unicode = 01FD;
},
{
glyphname = b;
lastChange = "2015-10-24 21:18:00 +0000";
layers = (
{
layerId = "D3C4CEFB-873C-4437-A63B-85583903CC89";
name = "Light Italic";
paths = (
{
closed = 1;
nodes = (
"394 -10 OFFCURVE",
"483 68 OFFCURVE",
"520 241 CURVE SMOOTH",
"556 413 OFFCURVE",
"486 484 OFFCURVE",
"359 484 CURVE SMOOTH",
"294 484 OFFCURVE",
"237 469 OFFCURVE",
"182 434 CURVE",
"233 674 LINE",
"178 674 LINE",
"35 0 LINE",
"81 0 LINE",
"97 53 LINE",
"134 10 OFFCURVE",
"181 -10 OFFCURVE",
"254 -10 CURVE SMOOTH"
);
},
{
closed = 1;
nodes = (
"189 35 OFFCURVE",
"142 55 OFFCURVE",
"111 99 CURVE",
"172 386 LINE",
"215 417 OFFCURVE",
"270 438 OFFCURVE",
"335 438 CURVE SMOOTH",
"458 438 OFFCURVE",
"496 382 OFFCURVE",
"466 241 CURVE SMOOTH",
"437 106 OFFCURVE",
"374 35 OFFCURVE",
"251 35 CURVE SMOOTH"
);
}
);
width = 564;
}
);
note = b;
unicode = 0062;
},
{
glyphname = c;
lastChange = "2015-10-24 21:17:55 +0000";
layers = (
{
layerId = "D3C4CEFB-873C-4437-A63B-85583903CC89";
name = "Light Italic";
paths = (
{
closed = 1;
nodes = (
"302 -10 OFFCURVE",
"349 -1 OFFCURVE",
"391 15 CURVE",
"400 61 LINE",
"360 45 OFFCURVE",
"313 35 OFFCURVE",
"270 35 CURVE SMOOTH",
"123 35 OFFCURVE",
"90 99 OFFCURVE",
"119 237 CURVE SMOOTH",
"149 377 OFFCURVE",
"237 438 OFFCURVE",
"360 438 CURVE SMOOTH",
"407 438 OFFCURVE",
"442 430 OFFCURVE",
"474 413 CURVE",
"484 458 LINE",
"451 475 OFFCURVE",
"421 484 OFFCURVE",
"360 484 CURVE SMOOTH",
"211 484 OFFCURVE",
"100 403 OFFCURVE",
"65 237 CURVE SMOOTH",
"32 81 OFFCURVE",
"89 -10 OFFCURVE",
"247 -10 CURVE SMOOTH"
);
}
);
width = 483;
}
);
leftKerningGroup = c;
note = c;
rightKerningGroup = c;
unicode = 0063;
},
{
glyphname = cacute;
lastChange = "2015-10-24 21:18:01 +0000";
layers = (
{
layerId = "D3C4CEFB-873C-4437-A63B-85583903CC89";
name = "Light Italic";
paths = (
{
closed = 1;
nodes = (
"302 -10 OFFCURVE",
"349 -1 OFFCURVE",
"391 15 CURVE",
"400 61 LINE",
"360 45 OFFCURVE",
"313 35 OFFCURVE",
"270 35 CURVE SMOOTH",
"123 35 OFFCURVE",
"90 99 OFFCURVE",
"119 237 CURVE SMOOTH",
"149 377 OFFCURVE",
"237 438 OFFCURVE",
"360 438 CURVE SMOOTH",
"407 438 OFFCURVE",
"442 430 OFFCURVE",
"474 413 CURVE",
"484 458 LINE",
"451 475 OFFCURVE",
"421 484 OFFCURVE",
"360 484 CURVE SMOOTH",
"211 484 OFFCURVE",
"100 403 OFFCURVE",
"65 237 CURVE SMOOTH",
"32 81 OFFCURVE",
"89 -10 OFFCURVE",
"247 -10 CURVE SMOOTH"
);
},
{
closed = 1;
nodes = (
"359 522 LINE",
"467 680 LINE",
"415 680 LINE",
"314 522 LINE"
);
}
);
width = 483;
}
);
leftKerningGroup = c;
note = cacute;
rightKerningGroup = c;
unicode = 0107;
},
